SplineFontDB: 3.0
FontName: Boon-700
FullName: Boon 700
FamilyName: Boon
Weight: 700
Copyright: Copyright 2013-2015, Sungsit Sawaiwan (https://fontuni.com | uni@fontuni.com). This Font Software is licensed under the SIL Open Font License, Version 1.1 (http://scripts.sil.org/OFL).
Version: 1.0-beta2
ItalicAngle: 0
UnderlinePosition: -120
UnderlineWidth: 60
Ascent: 960
Descent: 240
InvalidEm: 0
woffMajor: 1
woffMinor: 0
UFOAscent: 960
UFODescent: -240
LayerCount: 2
Layer: 0 0 "Back" 1
Layer: 1 0 "Fore" 0
StyleMap: 0x0000
FSType: 0
OS2Version: 0
OS2_WeightWidthSlopeOnly: 0
OS2_UseTypoMetrics: 0
CreationTime: 1369324892
ModificationTime: 1445512641
PfmFamily: 33
TTFWeight: 700
TTFWidth: 5
LineGap: 90
VLineGap: 0
OS2TypoAscent: 960
OS2TypoAOffset: 0
OS2TypoDescent: -240
OS2TypoDOffset: 0
OS2TypoLinegap: 90
OS2WinAscent: 1320
OS2WinAOffset: 0
OS2WinDescent: 480
OS2WinDOffset: 0
HheadAscent: 1320
HheadAOffset: 0
HheadDescent: -480
HheadDOffset: 0
OS2CapHeight: 780
OS2XHeight: 600
OS2Vendor: 'FUni'
Lookup: 1 0 0 "ThaiRC.rd" { "ThaiRC.rd subtable"  } ['ss01' ('thai' <'dflt' > ) 'salt' ('thai' <'dflt' > ) 'ccmp' ('thai' <'PAL ' 'SAN ' > ) 'locl' ('thai' <'PAL ' 'SAN ' > ) ]
Lookup: 6 0 0 "ThaiContextRC.rd" { "ThaiContextRC.rd subtable"  } ['ccmp' ('thai' <'dflt' > ) ]
Lookup: 2 0 0 "ThaiDecomp" { "ThaiDecomp subtable"  } ['ccmp' ('thai' <'dflt' > ) ]
Lookup: 1 0 0 "ThaiT.0E4D" { "ThaiT.0E4D subtable"  } []
Lookup: 1 0 0 "Thai0E4D.0E48" { "Thai0E4D.0E48 subtable"  } []
Lookup: 1 0 0 "Thai0E4D.0E49" { "Thai0E4D.0E49 subtable"  } []
Lookup: 1 0 0 "Thai0E4D.0E4A" { "Thai0E4D.0E4A subtable"  } []
Lookup: 1 0 0 "Thai0E4D.0E4B" { "Thai0E4D.0E4B subtable"  } []
Lookup: 6 0 0 "ThaiContext.ro" { "ThaiContext.ro contextual 0"  "ThaiContext.ro contextual 1"  "ThaiContext.ro contextual 2"  "ThaiContext.ro contextual 3"  } ['ccmp' ('thai' <'dflt' > ) ]
Lookup: 1 0 0 "Thai.sd" { "Thai.sd subtable"  } []
Lookup: 1 0 0 "ThaiBV.sd" { "ThaiBV.sd subtable"  } []

StartChar: .notdef
Encoding: 844 -1 0
GlifName: _notdef
Width: 660
VWidth: 0
Flags: MW
LayerCount: 2
Fore
SplineSet
80 0 m 1
 80 600 l 1
 330 600 l 1
 580 600 l 1
 580 0 l 1
 330 0 l 1
 80 0 l 1
330 120 m 1
 430 120 l 1
 430 480 l 1
 330 480 l 1
 230 480 l 1
 230 120 l 1
 330 120 l 1
EndSplineSet
PickledDataWithLists: "(dp0
Vcom.fontlab.hintData
p1
(dp2
Vvhints
p3
(lp4
(dp5
Vwidth
p6
L10L
sVposition
p7
L160L
sa(dp8
g6
L10L
sg7
L190L
sa(dp9
g6
L10L
sg7
L520L
sa(dp10
g6
L10L
sg7
L550L
sasVhhints
p11
(lp12
(dp13
g6
L10L
sg7
L0L
sa(dp14
g6
L10L
sg7
L30L
sa(dp15
g6
L10L
sg7
L560L
sa(dp16
g6
L10L
sg7
L590L
sass."
EndChar

StartChar: exclam
Encoding: 4 33 5
GlifName: exclam
Width: 330
VWidth: 0
Flags: HMW
LayerCount: 2
Fore
SplineSet
110 270 m 1
 70 810 l 1
 260 810 l 1
 220 270 l 1
 110 270 l 1
EndSplineSet
Refer: 18 46 S 1 0 0 1 0 0 2
PickledDataWithLists: "(dp0
Vcom.fontlab.hintData
p1
(dp2
Vvhints
p3
(lp4
(dp5
Vwidth
p6
L10L
sVposition
p7
L81L
sa(dp8
g6
L10L
sg7
L101L
sa(dp9
g6
L10L
sg7
L125L
sa(dp10
g6
L10L
sg7
L195L
sa(dp11
g6
L10L
sg7
L210L
sa(dp12
g6
L10L
sg7
L239L
sasVhhints
p13
(lp14
(dp15
g6
L10L
sg7
L-5L
sa(dp16
g6
L10L
sg7
L122L
sa(dp17
g6
L10L
sg7
L268L
sa(dp18
g6
L10L
sg7
L826L
sass."
EndChar

StartChar: numbersign
Encoding: 6 35 7
GlifName: numbersign
Width: 810
VWidth: 0
Flags: MW
LayerCount: 2
Fore
SplineSet
30 190 m 1
 30 300 l 1
 176 300 l 1
 224 480 l 1
 90 480 l 1
 90 590 l 1
 254 590 l 1
 305 780 l 1
 435 780 l 1
 384 590 l 1
 534 590 l 1
 585 780 l 1
 715 780 l 1
 664 590 l 1
 780 590 l 1
 780 480 l 1
 634 480 l 1
 586 300 l 1
 720 300 l 1
 720 190 l 1
 556 190 l 1
 505 0 l 1
 375 0 l 1
 426 190 l 1
 276 190 l 1
 225 0 l 1
 95 0 l 1
 146 190 l 1
 30 190 l 1
354 480 m 1
 306 300 l 1
 456 300 l 1
 504 480 l 1
 354 480 l 1
EndSplineSet
PickledDataWithLists: "(dp0
Vcom.fontlab.hintData
p1
(dp2
Vvhints
p3
(lp4
(dp5
Vwidth
p6
L10L
sVposition
p7
L111L
sa(dp8
g6
L10L
sg7
L329L
sa(dp9
g6
L10L
sg7
L381L
sa(dp10
g6
L10L
sg7
L599L
sa(dp11
g6
L10L
sg7
L649L
sa(dp12
g6
L10L
sg7
L689L
sasVhhints
p13
(lp14
(dp15
g6
L10L
sg7
L-29L
sa(dp16
g6
L10L
sg7
L-19L
sa(dp17
g6
L7L
sg7
L241L
sa(dp18
g6
L10L
sg7
L284L
sa(dp19
g6
L7L
sg7
L521L
sa(dp20
g6
L10L
sg7
L564L
sa(dp21
g6
L10L
sg7
L819L
sa(dp22
g6
L10L
sg7
L829L
sass."
EndChar

StartChar: dollar
Encoding: 7 36 8
GlifName: dollar
Width: 660
VWidth: 0
Flags: MW
LayerCount: 2
Fore
SplineSet
45 191 m 1
 210 201 l 1
 219 142 270 105 331 105 c 0
 401 105 450 132 450 210 c 0
 450 278 395 299 375 306 c 0
 324 322 255 351 207 370 c 0
 137 399 62 464 62 574 c 0
 62 675 133 772 275 792 c 1
 275 900 l 1
 395 900 l 1
 395 791 l 1
 537 766 589 656 599 594 c 1
 434 582 l 1
 425 643 385 675 331 675 c 0
 284 675 227 650 227 574 c 0
 227 518 276 499 307 486 c 0
 355 467 421 441 461 428 c 0
 544 401 615 336 615 210 c 0
 615 109 544 10 395 -12 c 1
 395 -120 l 1
 275 -120 l 1
 275 -12 l 1
 116 10 55 123 45 191 c 1
EndSplineSet
PickledDataWithLists: "(dp0
Vcom.fontlab.hintData
p1
(dp2
Vvhints
p3
(lp4
(dp5
Vwidth
p6
L10L
sVposition
p7
L70L
sa(dp8
g6
L10L
sg7
L78L
sa(dp9
g6
L10L
sg7
L169L
sa(dp10
g6
L10L
sg7
L319L
sa(dp11
g6
L10L
sg7
L323L
sa(dp12
g6
L10L
sg7
L382L
sa(dp13
g6
L10L
sg7
L392L
sa(dp14
g6
L10L
sg7
L504L
sa(dp15
g6
L10L
sg7
L565L
sa(dp16
g6
L10L
sg7
L604L
sa(dp17
g6
L10L
sg7
L664L
sasVhhints
p18
(lp19
(dp20
g6
L10L
sg7
L-127L
sa(dp21
g6
L10L
sg7
L46L
sa(dp22
g6
L10L
sg7
L192L
sa(dp23
g6
L10L
sg7
L584L
sa(dp24
g6
L10L
sg7
L812L
sa(dp25
g6
L10L
sg7
L916L
sass."
EndChar

StartChar: ampersand
Encoding: 9 38 10
GlifName: ampersand
Width: 810
VWidth: 0
Flags: MW
LayerCount: 2
Fore
SplineSet
805 8 m 2
 805 0 l 1
 620 0 l 1
 620 0 596 26 561 64 c 1
 491 12 405 -21 310 -21 c 0
 131 -21 50 75 50 180 c 0
 50 289 139 366 236 428 c 1
 196 484 160 552 160 615 c 0
 160 736 249 801 360 801 c 0
 496 801 555 715 555 638 c 0
 555 554 506 472 421 412 c 1
 458 373 512 315 568 256 c 1
 592 304 606 360 610 420 c 1
 750 400 l 1
 744 316 710 232 658 161 c 1
 739 77 805 8 805 8 c 2
310 338 m 1
 236 279 215 225 215 180 c 0
 215 123 254 101 310 101 c 0
 380 101 436 119 480 151 c 1
 421 215 356 287 310 338 c 1
360 695 m 0
 319 695 305 655 305 611 c 0
 305 577 321 538 346 501 c 1
 395 547 415 602 415 638 c 0
 415 679 389 695 360 695 c 0
EndSplineSet
PickledDataWithLists: "(dp0
Vcom.fontlab.hintData
p1
(dp2
Vvhints
p3
(lp4
(dp5
Vwidth
p6
L10L
sVposition
p7
L66L
sa(dp8
g6
L10L
sg7
L164L
sa(dp9
g6
L10L
sg7
L202L
sa(dp10
g6
L10L
sg7
L296L
sa(dp11
g6
L10L
sg7
L450L
sa(dp12
g6
L10L
sg7
L538L
sa(dp13
g6
L10L
sg7
L695L
sa(dp14
g6
L10L
sg7
L749L
sasVhhints
p15
(lp16
(dp17
g6
L10L
sg7
L-25L
sa(dp18
g6
L10L
sg7
L39L
sa(dp19
g6
L10L
sg7
L389L
sa(dp20
g6
L10L
sg7
L734L
sa(dp21
g6
L10L
sg7
L796L
sass."
EndChar

StartChar: quotesingle
Encoding: 10 39 11
GlifName: quotesingle
Width: 330
VWidth: 0
Flags: MW
LayerCount: 2
Fore
SplineSet
240 900 m 1
 215 540 l 1
 115 540 l 1
 90 900 l 1
 240 900 l 1
EndSplineSet
PickledDataWithLists: "(dp0
Vcom.fontlab.hintData
p1
(dp2
Vvhints
p3
(lp4
(dp5
Vwidth
p6
L10L
sVposition
p7
L110L
sa(dp8
g6
L10L
sg7
L209L
sasVhhints
p9
(lp10
(dp11
g6
L10L
sg7
L544L
sa(dp12
g6
L10L
sg7
L832L
sass."
EndChar

StartChar: parenleft
Encoding: 11 40 12
GlifName: parenleft
Width: 390
VWidth: 0
Flags: MW
LayerCount: 2
Fore
SplineSet
50 390 m 0
 50 612 129 786 235 915 c 1
 335 875 l 1
 245 756 195 598 195 390 c 0
 195 182 245 24 335 -95 c 1
 235 -135 l 1
 129 -6 50 168 50 390 c 0
EndSplineSet
PickledDataWithLists: "(dp0
Vcom.fontlab.hintData
p1
(dp2
Vvhints
p3
(lp4
(dp5
Vwidth
p6
L10L
sVposition
p7
L55L
sa(dp8
g6
L10L
sg7
L135L
sa(dp9
g6
L10L
sg7
L270L
sasVhhints
p10
(lp11
(dp12
g6
L10L
sg7
L-112L
sa(dp13
g6
L10L
sg7
L882L
sass."
Substitution2: "Latin.subs subtable" parenleft.subs
Substitution2: "Latin.subs subtable" parenleft.subs
Substitution2: "Latin.sups subtable" parenleft.sups
Substitution2: "Latin.sups subtable" parenleft.sups
EndChar

StartChar: asterisk
Encoding: 13 42 14
GlifName: asterisk
Width: 570
VWidth: 0
Flags: MW
LayerCount: 2
Fore
SplineSet
35 668 m 1
 78 801 l 1
 245 715 l 1
 215 900 l 1
 355 900 l 1
 325 715 l 1
 492 801 l 1
 535 668 l 1
 350 639 l 1
 483 507 l 1
 370 425 l 1
 285 592 l 1
 200 425 l 1
 87 507 l 1
 220 639 l 1
 35 668 l 1
EndSplineSet
PickledDataWithLists: "(dp0
Vcom.fontlab.hintData
p1
(dp2
Vvhints
p3
(lp4
(dp5
Vwidth
p6
L10L
sVposition
p7
L84L
sa(dp8
g6
L10L
sg7
L89L
sa(dp9
g6
L10L
sg7
L256L
sa(dp10
g6
L10L
sg7
L265L
sa(dp11
g6
L10L
sg7
L272L
sa(dp12
g6
L10L
sg7
L326L
sa(dp13
g6
L10L
sg7
L335L
sa(dp14
g6
L10L
sg7
L501L
sa(dp15
g6
L10L
sg7
L506L
sasVhhints
p16
(lp17
(dp18
g6
L10L
sg7
L392L
sa(dp19
g6
L10L
sg7
L488L
sa(dp20
g6
L10L
sg7
L495L
sa(dp21
g6
L10L
sg7
L735L
sa(dp22
g6
L10L
sg7
L742L
sa(dp23
g6
L10L
sg7
L839L
sass."
EndChar

StartChar: plus
Encoding: 14 43 15
GlifName: plus
Width: 600
VWidth: 0
Flags: MW
LayerCount: 2
Fore
SplineSet
75 415 m 17
 225 415 l 1
 225 570 l 1
 375 570 l 1
 375 415 l 1
 525 415 l 9
 525 305 l 17
 375 305 l 1
 375 150 l 1
 225 150 l 1
 225 305 l 1
 75 305 l 9
 75 415 l 17
EndSplineSet
PickledDataWithLists: "(dp0
Vcom.fontlab.hintData
p1
(dp2
Vvhints
p3
(lp4
(dp5
Vwidth
p6
L10L
sVposition
p7
L80L
sa(dp8
g6
L10L
sg7
L250L
sa(dp9
g6
L10L
sg7
L259L
sa(dp10
g6
L10L
sg7
L340L
sa(dp11
g6
L10L
sg7
L510L
sasVhhints
p12
(lp13
(dp14
g6
L10L
sg7
L145L
sa(dp15
g6
L10L
sg7
L302L
sa(dp16
g6
L10L
sg7
L362L
sa(dp17
g6
L10L
sg7
L370L
sa(dp18
g6
L10L
sg7
L525L
sass."
EndChar

StartChar: comma
Encoding: 15 44 16
GlifName: comma
Width: 330
VWidth: 0
Flags: MW
LayerCount: 2
Fore
SplineSet
70 78 m 0
 70 131 105 170 165 170 c 0
 244 170 275 105 275 45 c 0
 275 -78 191 -166 118 -210 c 1
 70 -146 l 1
 114 -119 152 -74 165 -6 c 1
 163 -6 162 -6 160 -6 c 0
 109 -6 70 26 70 78 c 0
EndSplineSet
PickledDataWithLists: "(dp0
Vcom.fontlab.hintData
p1
(dp2
Vvhints
p3
(lp4
(dp5
Vwidth
p6
L10L
sVposition
p7
L61L
sa(dp8
g6
L10L
sg7
L170L
sa(dp9
g6
L10L
sg7
L251L
sasVhhints
p10
(lp11
(dp12
g6
L10L
sg7
L-182L
sa(dp13
g6
L10L
sg7
L48L
sa(dp14
g6
L10L
sg7
L117L
sass."
EndChar

StartChar: hyphen
Encoding: 16 45 17
GlifName: hyphen
Width: 600
VWidth: 0
Flags: MW
LayerCount: 2
Fore
SplineSet
75 420 m 25
 525 420 l 25
 525 300 l 25
 75 300 l 25
 75 420 l 25
EndSplineSet
PickledDataWithLists: "(dp0
Vcom.fontlab.hintData
p1
(dp2
Vvhints
p3
(lp4
(dp5
Vwidth
p6
L10L
sVposition
p7
L75L
sa(dp8
g6
L10L
sg7
L514L
sasVhhints
p9
(lp10
(dp11
g6
L10L
sg7
L301L
sa(dp12
g6
L10L
sg7
L363L
sa(dp13
g6
L10L
sg7
L371L
sass."
EndChar

StartChar: period
Encoding: 17 46 18
GlifName: period
Width: 330
VWidth: 0
Flags: MW
LayerCount: 2
Fore
SplineSet
70 82 m 0
 70 136 111 170 165 170 c 0
 219 170 260 136 260 82 c 0
 260 28 219 -6 165 -6 c 0
 111 -6 70 28 70 82 c 0
EndSplineSet
PickledDataWithLists: "(dp0
Vcom.fontlab.hintData
p1
(dp2
Vvhints
p3
(lp4
(dp5
Vwidth
p6
L10L
sVposition
p7
L81L
sa(dp8
g6
L10L
sg7
L239L
sasVhhints
p9
(lp10
(dp11
g6
L10L
sg7
L-5L
sa(dp12
g6
L10L
sg7
L122L
sass."
EndChar

StartChar: slash
Encoding: 18 47 19
GlifName: slash
Width: 510
VWidth: 0
Flags: MW
LayerCount: 2
Fore
SplineSet
165 0 m 1
 20 0 l 1
 20 8 l 1
 345 780 l 1
 490 780 l 1
 490 772 l 1
 165 0 l 1
EndSplineSet
PickledDataWithLists: "(dp0
Vcom.fontlab.hintData
p1
(dp2
Vvhints
p3
(lp4
(dp5
Vwidth
p6
L10L
sVposition
p7
L41L
sa(dp8
g6
L10L
sg7
L429L
sasVhhints
p9
(lp10
(dp11
g6
L10L
sg7
L-29L
sa(dp12
g6
L10L
sg7
L818L
sass."
Substitution2: "LatinSlash.frac subtable" fraction
EndChar

StartChar: zero
Encoding: 19 48 20
GlifName: zero
Width: 660
VWidth: 0
Flags: MW
LayerCount: 2
Fore
SplineSet
45 370 m 2
 45 410 l 2
 45 570 87 801 330 801 c 0
 573 801 615 570 615 410 c 2
 615 370 l 2
 615 210 573 -21 330 -21 c 0
 87 -21 45 210 45 370 c 2
330 101 m 0
 390 101 449 182 449 370 c 2
 449 410 l 2
 449 598 390 679 330 679 c 0
 270 679 211 598 211 410 c 2
 211 370 l 2
 211 182 270 101 330 101 c 0
EndSplineSet
PickledDataWithLists: "(dp0
Vcom.fontlab.hintData
p1
(dp2
Vvhints
p3
(lp4
(dp5
Vwidth
p6
L10L
sVposition
p7
L66L
sa(dp8
g6
L10L
sg7
L164L
sa(dp9
g6
L10L
sg7
L456L
sa(dp10
g6
L10L
sg7
L546L
sa(dp11
g6
L10L
sg7
L564L
sa(dp12
g6
L10L
sg7
L644L
sasVhhints
p13
(lp14
(dp15
g6
L10L
sg7
L-24L
sa(dp16
g6
L10L
sg7
L46L
sa(dp17
g6
L10L
sg7
L742L
sa(dp18
g6
L10L
sg7
L811L
sass."
Substitution2: "Latin.dnom subtable" zero.dnom
Substitution2: "Latin.numr subtable" zero.numr
Substitution2: "Latin.subs subtable" zero.subs
Substitution2: "Latin.sups subtable" zero.sups
Substitution2: "Latin.pnum subtable" zero.pnum
EndChar

StartChar: one
Encoding: 20 49 21
GlifName: one
Width: 660
VWidth: 0
Flags: MW
LayerCount: 2
Fore
SplineSet
80 630 m 1
 345 786 l 1
 464 774 l 1
 464 130 l 1
 605 130 l 1
 605 0 l 1
 120 0 l 1
 120 130 l 1
 300 130 l 1
 300 605 l 1
 150 512 l 1
 80 630 l 1
EndSplineSet
PickledDataWithLists: "(dp0
Vcom.fontlab.hintData
p1
(dp2
Vvhints
p3
(lp4
(dp5
Vwidth
p6
L10L
sVposition
p7
L126L
sa(dp8
g6
L10L
sg7
L364L
sa(dp9
g6
L10L
sg7
L371L
sa(dp10
g6
L10L
sg7
L462L
sa(dp11
g6
L10L
sg7
L469L
sa(dp12
g6
L10L
sg7
L677L
sasVhhints
p13
(lp14
(dp15
g6
L10L
sg7
L-19L
sa(dp16
g6
L10L
sg7
L-9L
sa(dp17
g6
L10L
sg7
L49L
sa(dp18
g6
L10L
sg7
L57L
sa(dp19
g6
L10L
sg7
L591L
sa(dp20
g6
L10L
sg7
L802L
sass."
Substitution2: "Latin.dnom subtable" one.dnom
Substitution2: "Latin.numr subtable" one.numr
Substitution2: "Latin.subs subtable" one.subs
Substitution2: "Latin.sups subtable" one.sups
Substitution2: "Latin.pnum subtable" one.pnum
EndChar

StartChar: two
Encoding: 21 50 22
GlifName: two
Width: 660
VWidth: 0
Flags: MW
LayerCount: 2
Fore
SplineSet
55 60 m 0
 55 237 204 343 312 412 c 0
 387 460 438 504 438 570 c 0
 438 631 411 679 333 679 c 0
 282 679 241 637 231 587 c 1
 60 603 l 1
 74 674 148 801 330 801 c 0
 566 801 600 634 600 570 c 0
 600 440 488 356 415 308 c 0
 325 249 262 198 240 130 c 1
 605 130 l 1
 605 0 l 1
 64 0 l 1
 64 0 55 25 55 60 c 0
EndSplineSet
PickledDataWithLists: "(dp0
Vcom.fontlab.hintData
p1
(dp2
Vvhints
p3
(lp4
(dp5
Vwidth
p6
L10L
sVposition
p7
L71L
sa(dp8
g6
L10L
sg7
L81L
sa(dp9
g6
L10L
sg7
L501L
sa(dp10
g6
L10L
sg7
L599L
sa(dp11
g6
L10L
sg7
L639L
sasVhhints
p12
(lp13
(dp14
g6
L10L
sg7
L-13L
sa(dp15
g6
L10L
sg7
L61L
sa(dp16
g6
L10L
sg7
L74L
sa(dp17
g6
L10L
sg7
L620L
sa(dp18
g6
L10L
sg7
L740L
sa(dp19
g6
L10L
sg7
L809L
sass."
Substitution2: "Latin.dnom subtable" two.dnom
Substitution2: "Latin.numr subtable" two.numr
Substitution2: "Latin.subs subtable" two.subs
Substitution2: "Latin.sups subtable" two.sups
Substitution2: "Latin.pnum subtable" two.pnum
EndChar

StartChar: three
Encoding: 22 51 23
GlifName: three
Width: 660
VWidth: 0
Flags: MW
LayerCount: 2
Fore
SplineSet
35 603 m 1
 49 674 123 801 305 801 c 0
 541 801 575 634 575 570 c 0
 575 489 532 437 482 402 c 1
 574 364 600 285 600 230 c 0
 600 149 557 -21 303 -21 c 0
 113 -21 41 92 25 137 c 1
 189 167 l 1
 199 140 225 99 303 99 c 0
 401 99 431 158 431 220 c 0
 431 287 397 325 311 325 c 2
 195 325 l 1
 195 445 l 1
 295 445 l 2
 370 445 413 498 413 570 c 0
 413 631 386 679 308 679 c 0
 257 679 216 637 206 587 c 1
 35 603 l 1
EndSplineSet
PickledDataWithLists: "(dp0
Vcom.fontlab.hintData
p1
(dp2
Vvhints
p3
(lp4
(dp5
Vwidth
p6
L10L
sVposition
p7
L66L
sa(dp8
g6
L10L
sg7
L76L
sa(dp9
g6
L10L
sg7
L203L
sa(dp10
g6
L10L
sg7
L491L
sa(dp11
g6
L10L
sg7
L546L
sa(dp12
g6
L10L
sg7
L589L
sa(dp13
g6
L10L
sg7
L644L
sasVhhints
p14
(lp15
(dp16
g6
L10L
sg7
L-27L
sa(dp17
g6
L10L
sg7
L44L
sa(dp18
g6
L10L
sg7
L150L
sa(dp19
g6
L10L
sg7
L361L
sa(dp20
g6
L10L
sg7
L372L
sa(dp21
g6
L10L
sg7
L630L
sa(dp22
g6
L10L
sg7
L741L
sa(dp23
g6
L10L
sg7
L810L
sass."
Substitution2: "Latin.dnom subtable" three.dnom
Substitution2: "Latin.numr subtable" three.numr
Substitution2: "Latin.subs subtable" three.subs
Substitution2: "Latin.sups subtable" three.sups
Substitution2: "Latin.pnum subtable" three.pnum
EndChar

StartChar: four
Encoding: 23 52 24
GlifName: four
Width: 660
VWidth: 0
Flags: MW
LayerCount: 2
Fore
SplineSet
360 180 m 1
 27 180 l 1
 15 260 l 1
 380 786 l 1
 520 774 l 1
 520 300 l 1
 645 300 l 1
 645 180 l 1
 520 180 l 1
 520 0 l 1
 360 0 l 1
 360 180 l 1
365 300 m 1
 365 560 l 1
 190 300 l 1
 365 300 l 1
EndSplineSet
PickledDataWithLists: "(dp0
Vcom.fontlab.hintData
p1
(dp2
Vvhints
p3
(lp4
(dp5
Vwidth
p6
L10L
sVposition
p7
L31L
sa(dp8
g6
L10L
sg7
L276L
sa(dp9
g6
L10L
sg7
L374L
sa(dp10
g6
L10L
sg7
L455L
sa(dp11
g6
L10L
sg7
L554L
sa(dp12
g6
L10L
sg7
L679L
sasVhhints
p13
(lp14
(dp15
g6
L10L
sg7
L-30L
sa(dp16
g6
L10L
sg7
L174L
sa(dp17
g6
L10L
sg7
L243L
sa(dp18
g6
L10L
sg7
L259L
sa(dp19
g6
L10L
sg7
L609L
sa(dp20
g6
L10L
sg7
L819L
sass."
Substitution2: "Latin.dnom subtable" four.dnom
Substitution2: "Latin.numr subtable" four.numr
Substitution2: "Latin.subs subtable" four.subs
Substitution2: "Latin.sups subtable" four.sups
Substitution2: "Latin.pnum subtable" four.pnum
EndChar

StartChar: five
Encoding: 24 53 25
GlifName: five
Width: 660
VWidth: 0
Flags: MW
LayerCount: 2
Fore
SplineSet
45 137 m 1
 209 167 l 1
 219 140 245 99 323 99 c 0
 421 99 451 168 451 240 c 0
 451 317 424 381 338 381 c 0
 280 381 234 336 202 290 c 1
 201 291 l 1
 201 290 l 1
 81 354 l 1
 96 780 l 1
 573 780 l 1
 573 660 l 1
 251 660 l 1
 244 464 l 1
 276 482 317 496 371 496 c 0
 579 496 620 319 620 250 c 0
 620 166 577 -21 323 -21 c 0
 133 -21 61 92 45 137 c 1
EndSplineSet
PickledDataWithLists: "(dp0
Vcom.fontlab.hintData
p1
(dp2
Vvhints
p3
(lp4
(dp5
Vwidth
p6
L10L
sVposition
p7
L76L
sa(dp8
g6
L10L
sg7
L106L
sa(dp9
g6
L10L
sg7
L125L
sa(dp10
g6
L10L
sg7
L226L
sa(dp11
g6
L10L
sg7
L541L
sa(dp12
g6
L10L
sg7
L614L
sa(dp13
g6
L10L
sg7
L639L
sasVhhints
p14
(lp15
(dp16
g6
L10L
sg7
L-26L
sa(dp17
g6
L10L
sg7
L43L
sa(dp18
g6
L10L
sg7
L150L
sa(dp19
g6
L10L
sg7
L334L
sa(dp20
g6
L10L
sg7
L409L
sa(dp21
g6
L10L
sg7
L477L
sa(dp22
g6
L10L
sg7
L716L
sa(dp23
g6
L10L
sg7
L784L
sa(dp24
g6
L10L
sg7
L795L
sass."
Substitution2: "Latin.dnom subtable" five.dnom
Substitution2: "Latin.numr subtable" five.numr
Substitution2: "Latin.subs subtable" five.subs
Substitution2: "Latin.sups subtable" five.sups
Substitution2: "Latin.pnum subtable" five.pnum
EndChar

StartChar: six
Encoding: 25 54 26
GlifName: six
Width: 660
VWidth: 0
Flags: MW
LayerCount: 2
Fore
SplineSet
65 301 m 2
 65 434 l 2
 65 549 84 801 344 801 c 0
 532 801 588 674 601 632 c 1
 439 606 l 1
 428 642 404 679 344 679 c 0
 270 679 235 599 231 459 c 1
 267 482 313 495 368 495 c 0
 533 495 620 375 620 240 c 0
 620 107 530 -21 344 -21 c 0
 150 -21 65 114 65 301 c 2
455 240 m 0
 455 345 400 381 338 381 c 0
 289 381 245 352 231 280 c 1
 236 121 300 101 344 101 c 0
 398 101 455 133 455 240 c 0
EndSplineSet
PickledDataWithLists: "(dp0
Vcom.fontlab.hintData
p1
(dp2
Vvhints
p3
(lp4
(dp5
Vwidth
p6
L10L
sVposition
p7
L32L
sa(dp8
g6
L10L
sg7
L90L
sa(dp9
g6
L10L
sg7
L188L
sa(dp10
g6
L10L
sg7
L464L
sa(dp11
g6
L10L
sg7
L560L
sa(dp12
g6
L10L
sg7
L658L
sasVhhints
p13
(lp14
(dp15
g6
L10L
sg7
L-29L
sa(dp16
g6
L10L
sg7
L39L
sa(dp17
g6
L10L
sg7
L251L
sa(dp18
g6
L10L
sg7
L397L
sa(dp19
g6
L10L
sg7
L466L
sa(dp20
g6
L10L
sg7
L819L
sass."
Substitution2: "Latin.dnom subtable" six.dnom
Substitution2: "Latin.numr subtable" six.numr
Substitution2: "Latin.subs subtable" six.subs
Substitution2: "Latin.sups subtable" six.sups
Substitution2: "Latin.pnum subtable" six.pnum
EndChar

StartChar: seven
Encoding: 26 55 27
GlifName: seven
Width: 660
VWidth: 0
Flags: MW
LayerCount: 2
Fore
SplineSet
50 650 m 1
 50 780 l 1
 588 780 l 0
 600 689 l 0
 498 554 368 291 368 60 c 0
 368 0 l 1
 193 0 l 1
 193 60 l 0
 193 261 304 485 405 650 c 1
 50 650 l 1
EndSplineSet
PickledDataWithLists: "(dp0
Vcom.fontlab.hintData
p1
(dp2
Vvhints
p3
(lp4
(dp5
Vwidth
p6
L10L
sVposition
p7
L69L
sa(dp8
g6
L10L
sg7
L199L
sa(dp9
g6
L10L
sg7
L274L
sa(dp10
g6
L10L
sg7
L648L
sasVhhints
p11
(lp12
(dp13
g6
L10L
sg7
L-19L
sa(dp14
g6
L10L
sg7
L554L
sa(dp15
g6
L10L
sg7
L716L
sa(dp16
g6
L10L
sg7
L784L
sa(dp17
g6
L10L
sg7
L795L
sass."
Substitution2: "Latin.dnom subtable" seven.dnom
Substitution2: "Latin.numr subtable" seven.numr
Substitution2: "Latin.subs subtable" seven.subs
Substitution2: "Latin.sups subtable" seven.sups
Substitution2: "Latin.pnum subtable" seven.pnum
EndChar

StartChar: eight
Encoding: 27 56 28
GlifName: eight
Width: 660
VWidth: 0
Flags: MW
LayerCount: 2
Fore
SplineSet
330 -21 m 0
 148 -21 35 86 35 210 c 0
 35 323 124 374 184 401 c 1
 125 432 70 484 70 574 c 0
 70 693 166 801 330 801 c 0
 494 801 590 693 590 574 c 0
 590 484 535 432 476 401 c 1
 536 374 625 323 625 210 c 0
 625 86 512 -21 330 -21 c 0
330 99 m 0
 406 99 455 134 455 210 c 0
 455 281 414 308 374 325 c 0
 363 330 347 336 330 343 c 1
 313 336 297 330 286 325 c 0
 246 308 205 281 205 210 c 0
 205 134 254 99 330 99 c 0
330 681 m 0
 286 681 235 655 235 574 c 0
 235 513 270 482 299 470 c 0
 308 467 318 462 330 458 c 1
 342 462 352 467 361 470 c 0
 390 482 425 513 425 574 c 0
 425 655 374 681 330 681 c 0
EndSplineSet
PickledDataWithLists: "(dp0
Vcom.fontlab.hintData
p1
(dp2
Vvhints
p3
(lp4
(dp5
Vwidth
p6
L10L
sVposition
p7
L76L
sa(dp8
g6
L10L
sg7
L87L
sa(dp9
g6
L10L
sg7
L174L
sa(dp10
g6
L10L
sg7
L185L
sa(dp11
g6
L10L
sg7
L549L
sa(dp12
g6
L10L
sg7
L584L
sa(dp13
g6
L10L
sg7
L594L
sa(dp14
g6
L10L
sg7
L649L
sasVhhints
p15
(lp16
(dp17
g6
L10L
sg7
L-24L
sa(dp18
g6
L10L
sg7
L44L
sa(dp19
g6
L9L
sg7
L394L
sa(dp20
g6
L10L
sg7
L610L
sa(dp21
g6
L10L
sg7
L651L
sa(dp22
g6
L10L
sg7
L741L
sa(dp23
g6
L10L
sg7
L809L
sass."
Substitution2: "Latin.dnom subtable" eight.dnom
Substitution2: "Latin.numr subtable" eight.numr
Substitution2: "Latin.subs subtable" eight.subs
Substitution2: "Latin.sups subtable" eight.sups
Substitution2: "Latin.pnum subtable" eight.pnum
EndChar

StartChar: less
Encoding: 31 60 32
GlifName: less
Width: 600
VWidth: 0
Flags: HMW
LayerCount: 2
Fore
SplineSet
75 315 m 1
 75 360 l 1
 75 405 l 1
 495 660 l 1
 525 535 l 1
 225 360 l 1
 525 185 l 1
 495 60 l 1
 75 315 l 1
EndSplineSet
PickledDataWithLists: "(dp0
Vcom.fontlab.hintData
p1
(dp2
Vvhints
p3
(lp4
(dp5
Vwidth
p6
L10L
sVposition
p7
L63L
sa(dp8
g6
L10L
sg7
L514L
sa(dp9
g6
L10L
sg7
L524L
sasVhhints
p10
(lp11
(dp12
g6
L10L
sg7
L65L
sa(dp13
g6
L10L
sg7
L606L
sass."
EndChar

StartChar: equal
Encoding: 32 61 33
GlifName: equal
Width: 600
VWidth: 0
Flags: MW
LayerCount: 2
Fore
SplineSet
75 300 m 25
 525 300 l 25
 525 185 l 25
 75 185 l 25
 75 300 l 25
75 535 m 25
 525 535 l 25
 525 420 l 25
 75 420 l 25
 75 535 l 25
EndSplineSet
PickledDataWithLists: "(dp0
Vcom.fontlab.hintData
p1
(dp2
Vvhints
p3
(lp4
(dp5
Vwidth
p6
L10L
sVposition
p7
L75L
sa(dp8
g6
L10L
sg7
L514L
sasVhhints
p9
(lp10
(dp11
g6
L10L
sg7
L201L
sa(dp12
g6
L10L
sg7
L263L
sa(dp13
g6
L10L
sg7
L271L
sa(dp14
g6
L10L
sg7
L401L
sa(dp15
g6
L10L
sg7
L463L
sa(dp16
g6
L10L
sg7
L471L
sass."
EndChar

StartChar: question
Encoding: 34 63 35
GlifName: question
Width: 570
VWidth: 0
Flags: MW
LayerCount: 2
Fore
SplineSet
40 640 m 0
 40 744 132 831 285 831 c 0
 432 831 520 749 520 630 c 0
 520 467 330 431 330 330 c 0
 330 312 334 298 340 285 c 1
 210 270 l 1
 197 292 190 315 190 340 c 0
 190 494 350 510 350 625 c 0
 350 695 309 708 280 708 c 0
 241 708 210 689 210 640 c 0
 210 623 213 605 220 590 c 1
 60 550 l 1
 47 579 40 610 40 640 c 0
EndSplineSet
Refer: 18 46 S 1 0 0 1 120 0 2
PickledDataWithLists: "(dp0
Vcom.fontlab.hintData
p1
(dp2
Vvhints
p3
(lp4
(dp5
Vwidth
p6
L10L
sVposition
p7
L11L
sa(dp8
g6
L10L
sg7
L98L
sa(dp9
g6
L10L
sg7
L120L
sa(dp10
g6
L10L
sg7
L152L
sa(dp11
g6
L10L
sg7
L161L
sa(dp12
g6
L10L
sg7
L241L
sa(dp13
g6
L10L
sg7
L254L
sa(dp14
g6
L10L
sg7
L310L
sa(dp15
g6
L10L
sg7
L351L
sa(dp16
g6
L10L
sg7
L439L
sasVhhints
p17
(lp18
(dp19
g6
L10L
sg7
L-5L
sa(dp20
g6
L10L
sg7
L122L
sa(dp21
g6
L10L
sg7
L255L
sa(dp22
g6
L10L
sg7
L594L
sa(dp23
g6
L10L
sg7
L784L
sa(dp24
g6
L10L
sg7
L846L
sass."
EndChar

StartChar: at
Encoding: 35 64 36
GlifName: at
Width: 1020
VWidth: 0
Flags: MW
LayerCount: 2
Fore
SplineSet
70 238 m 0
 70 489 243 780 558 780 c 0
 821 780 950 595 950 395 c 0
 950 234 857 31 698 31 c 0
 641 31 612 57 598 88 c 1
 565 51 522 25 470 25 c 0
 321 25 275 141 275 230 c 0
 275 363 367 567 578 567 c 0
 682 567 717 488 717 431 c 0
 717 386 694 294 694 292 c 0
 684 232 678 187 678 157 c 0
 678 127 684 111 698 111 c 0
 761 111 860 240 860 395 c 0
 860 567 761 700 558 700 c 0
 317 700 160 467 160 238 c 0
 160 49 264 -110 502 -110 c 0
 566 -110 647 -76 671 -62 c 1
 721 -128 l 1
 685 -150 596 -190 502 -190 c 0
 200 -190 70 23 70 238 c 0
470 115 m 0
 531 115 566 180 586 308 c 0
 586 309 607 405 607 431 c 0
 607 472 589 477 578 477 c 0
 491 477 395 357 395 230 c 0
 395 147 435 115 470 115 c 0
EndSplineSet
PickledDataWithLists: "(dp0
Vcom.fontlab.hintData
p1
(dp2
Vvhints
p3
(lp4
(dp5
Vwidth
p6
L10L
sVposition
p7
L74L
sa(dp8
g6
L10L
sg7
L143L
sa(dp9
g6
L10L
sg7
L293L
sa(dp10
g6
L10L
sg7
L372L
sa(dp11
g6
L10L
sg7
L622L
sa(dp12
g6
L10L
sg7
L670L
sa(dp13
g6
L10L
sg7
L702L
sa(dp14
g6
L10L
sg7
L726L
sa(dp15
g6
L10L
sg7
L865L
sa(dp16
g6
L10L
sg7
L935L
sasVhhints
p17
(lp18
(dp19
g6
L10L
sg7
L-179L
sa(dp20
g6
L10L
sg7
L-131L
sa(dp21
g6
L10L
sg7
L-76L
sa(dp22
g6
L10L
sg7
L38L
sa(dp23
g6
L10L
sg7
L92L
sa(dp24
g6
L10L
sg7
L352L
sa(dp25
g6
L10L
sg7
L399L
sa(dp26
g6
L10L
sg7
L490L
sa(dp27
g6
L10L
sg7
L544L
sa(dp28
g6
L10L
sg7
L711L
sa(dp29
g6
L10L
sg7
L759L
sass."
EndChar

StartChar: A
Encoding: 36 65 37
GlifName: A_
Width: 750
VWidth: 0
Flags: MW
AnchorPoint: "LatinOgonek.mark" 670 0 basechar 0
AnchorPoint: "LatinBelow.mark" 375 0 basechar 0
AnchorPoint: "LatinAbove.mark" 375 150 basechar 0
LayerCount: 2
Fore
SplineSet
750 0 m 1
 560 0 l 1
 511 150 l 1
 239 150 l 1
 190 0 l 1
 0 0 l 1
 0 11 l 1
 305 780 l 1
 445 780 l 1
 750 11 l 1
 750 0 l 1
472 270 m 1
 375 566 l 1
 278 270 l 1
 472 270 l 1
EndSplineSet
PickledDataWithLists: "(dp0
Vcom.fontlab.hintData
p1
(dp2
Vvhints
p3
(lp4
(dp5
Vwidth
p6
L10L
sVposition
p7
L33L
sa(dp8
g6
L10L
sg7
L39L
sa(dp9
g6
L10L
sg7
L763L
sasVhhints
p10
(lp11
(dp12
g6
L10L
sg7
L-16L
sa(dp13
g6
L10L
sg7
L3L
sa(dp14
g6
L10L
sg7
L179L
sa(dp15
g6
L10L
sg7
L209L
sa(dp16
g6
L10L
sg7
L271L
sa(dp17
g6
L10L
sg7
L810L
sass."
EndChar

StartChar: B
Encoding: 37 66 38
GlifName: B_
Width: 745
VWidth: 0
Flags: MW
AnchorPoint: "LatinBelow.mark" 320 0 basechar 0
AnchorPoint: "LatinAbove.mark" 320 150 basechar 0
LayerCount: 2
Fore
SplineSet
541 440 m 1
 643 406 705 337 705 235 c 0
 705 85 570 -9 370 -9 c 0
 232 -9 75 0 75 0 c 1
 75 780 l 1
 75 780 221 789 345 789 c 0
 501 789 630 717 630 590 c 0
 630 519 593 471 541 440 c 1
370 464 m 1
 415 470 465 502 465 575 c 0
 465 643 413 670 325 670 c 0
 286 670 248 668 235 667 c 1
 235 462 l 1
 276 463 323 464 370 464 c 1
235 115 m 1
 266 113 311 111 350 111 c 0
 452 111 539 136 539 235 c 0
 539 334 452 354 350 354 c 0
 311 354 266 352 235 350 c 1
 235 115 l 1
EndSplineSet
PickledDataWithLists: "(dp0
Vcom.fontlab.hintData
p1
(dp2
Vvhints
p3
(lp4
(dp5
Vwidth
p6
L10L
sVposition
p7
L26L
sa(dp8
g6
L10L
sg7
L116L
sa(dp9
g6
L10L
sg7
L121L
sa(dp10
g6
L10L
sg7
L223L
sa(dp11
g6
L10L
sg7
L537L
sa(dp12
g6
L10L
sg7
L636L
sa(dp13
g6
L10L
sg7
L735L
sasVhhints
p14
(lp15
(dp16
g6
L10L
sg7
L-22L
sa(dp17
g6
L10L
sg7
L49L
sa(dp18
g6
L10L
sg7
L395L
sa(dp19
g6
L10L
sg7
L634L
sa(dp20
g6
L10L
sg7
L661L
sa(dp21
g6
L10L
sg7
L742L
sa(dp22
g6
L10L
sg7
L809L
sass."
Colour: ff00
EndChar

StartChar: C
Encoding: 38 67 39
GlifName: C_
Width: 755
VWidth: 0
Flags: MW
AnchorPoint: "LatinCedilla.mark" 412 0 basechar 0
AnchorPoint: "LatinBelow.mark" 410 0 basechar 0
AnchorPoint: "LatinAbove.mark" 410 150 basechar 0
LayerCount: 2
Fore
SplineSet
45 375 m 2
 45 405 l 2
 45 580 123 801 412 801 c 0
 624 801 715 664 730 582 c 1
 556 566 l 1
 547 616 498 673 412 673 c 0
 295 673 223 582 223 405 c 2
 223 375 l 2
 223 198 295 107 412 107 c 0
 498 107 547 164 556 214 c 1
 730 198 l 1
 715 116 624 -21 412 -21 c 0
 123 -21 45 200 45 375 c 2
EndSplineSet
PickledDataWithLists: "(dp0
Vcom.fontlab.hintData
p1
(dp2
Vvhints
p3
(lp4
(dp5
Vwidth
p6
L10L
sVposition
p7
L68L
sa(dp8
g6
L10L
sg7
L172L
sa(dp9
g6
L10L
sg7
L569L
sa(dp10
g6
L10L
sg7
L673L
sa(dp11
g6
L10L
sg7
L707L
sasVhhints
p12
(lp13
(dp14
g6
L10L
sg7
L-20L
sa(dp15
g6
L10L
sg7
L52L
sa(dp16
g6
L10L
sg7
L169L
sa(dp17
g6
L10L
sg7
L586L
sa(dp18
g6
L10L
sg7
L739L
sa(dp19
g6
L10L
sg7
L811L
sass."
Colour: ff00
EndChar

StartChar: D
Encoding: 39 68 40
GlifName: D_
Width: 770
VWidth: 0
Flags: MW
AnchorPoint: "LatinBelow.mark" 320 0 basechar 0
AnchorPoint: "LatinAbove.mark" 320 150 basechar 0
LayerCount: 2
Fore
SplineSet
245 114 m 1
 264 114 284 113 300 113 c 0
 485 113 555 215 555 380 c 2
 555 400 l 2
 555 565 485 667 300 667 c 0
 284 667 264 666 245 666 c 1
 245 114 l 1
75 780 m 1
 75 780 187 789 300 789 c 0
 621 789 725 583 725 400 c 2
 725 380 l 2
 725 197 621 -9 300 -9 c 0
 187 -9 75 0 75 0 c 1
 75 780 l 1
EndSplineSet
PickledDataWithLists: "(dp0
Vcom.fontlab.hintData
p1
(dp2
Vvhints
p3
(lp4
(dp5
Vwidth
p6
L10L
sVposition
p7
L26L
sa(dp8
g6
L10L
sg7
L116L
sa(dp9
g6
L10L
sg7
L121L
sa(dp10
g6
L10L
sg7
L223L
sa(dp11
g6
L10L
sg7
L630L
sa(dp12
g6
L10L
sg7
L729L
sasVhhints
p13
(lp14
(dp15
g6
L10L
sg7
L-21L
sa(dp16
g6
L10L
sg7
L49L
sa(dp17
g6
L10L
sg7
L634L
sa(dp18
g6
L10L
sg7
L661L
sa(dp19
g6
L10L
sg7
L742L
sa(dp20
g6
L10L
sg7
L810L
sass."
EndChar

StartChar: E
Encoding: 40 69 41
GlifName: E_
Width: 675
VWidth: 0
Flags: MW
AnchorPoint: "LatinOgonek.mark" 545 0 basechar 0
AnchorPoint: "LatinBelow.mark" 350 0 basechar 0
AnchorPoint: "LatinAbove.mark" 350 150 basechar 0
LayerCount: 2
Fore
SplineSet
75 0 m 1
 75 780 l 1
 620 780 l 1
 620 650 l 1
 245 650 l 1
 245 445 l 1
 580 445 l 1
 580 325 l 1
 245 325 l 1
 245 130 l 1
 635 130 l 1
 635 0 l 1
 75 0 l 1
EndSplineSet
PickledDataWithLists: "(dp0
Vcom.fontlab.hintData
p1
(dp2
Vvhints
p3
(lp4
(dp5
Vwidth
p6
L10L
sVposition
p7
L66L
sa(dp8
g6
L10L
sg7
L106L
sa(dp9
g6
L10L
sg7
L121L
sa(dp10
g6
L10L
sg7
L204L
sa(dp11
g6
L10L
sg7
L220L
sa(dp12
g6
L10L
sg7
L564L
sa(dp13
g6
L10L
sg7
L644L
sa(dp14
g6
L10L
sg7
L674L
sasVhhints
p15
(lp16
(dp17
g6
L10L
sg7
L-24L
sa(dp18
g6
L10L
sg7
L-9L
sa(dp19
g6
L10L
sg7
L46L
sa(dp20
g6
L10L
sg7
L59L
sa(dp21
g6
L10L
sg7
L361L
sa(dp22
g6
L10L
sg7
L423L
sa(dp23
g6
L10L
sg7
L726L
sa(dp24
g6
L10L
sg7
L794L
sa(dp25
g6
L10L
sg7
L799L
sa(dp26
g6
L10L
sg7
L804L
sass."
Colour: ff00
EndChar

StartChar: F
Encoding: 41 70 42
GlifName: F_
Width: 640
VWidth: 0
Flags: MW
AnchorPoint: "LatinBelow.mark" 160 0 basechar 0
AnchorPoint: "LatinAbove.mark" 340 150 basechar 0
LayerCount: 2
Fore
SplineSet
75 0 m 1
 75 780 l 1
 610 780 l 1
 610 650 l 1
 247 650 l 1
 247 450 l 1
 570 450 l 1
 570 320 l 1
 247 320 l 1
 247 0 l 1
 75 0 l 1
EndSplineSet
PickledDataWithLists: "(dp0
Vcom.fontlab.hintData
p1
(dp2
Vvhints
p3
(lp4
(dp5
Vwidth
p6
L10L
sVposition
p7
L59L
sa(dp8
g6
L10L
sg7
L66L
sa(dp9
g6
L10L
sg7
L116L
sa(dp10
g6
L10L
sg7
L124L
sa(dp11
g6
L10L
sg7
L214L
sa(dp12
g6
L10L
sg7
L222L
sa(dp13
g6
L10L
sg7
L564L
sa(dp14
g6
L10L
sg7
L644L
sasVhhints
p15
(lp16
(dp17
g6
L10L
sg7
L-14L
sa(dp18
g6
L10L
sg7
L355L
sa(dp19
g6
L10L
sg7
L360L
sa(dp20
g6
L10L
sg7
L423L
sa(dp21
g6
L10L
sg7
L726L
sa(dp22
g6
L10L
sg7
L794L
sa(dp23
g6
L10L
sg7
L799L
sa(dp24
g6
L10L
sg7
L804L
sass."
Colour: ff00
EndChar

StartChar: G
Encoding: 42 71 43
GlifName: G_
Width: 770
VWidth: 0
Flags: MW
AnchorPoint: "LatinBelow.mark" 410 0 basechar 0
AnchorPoint: "LatinAbove.mark" 410 150 basechar 0
LayerCount: 2
Fore
SplineSet
415 285 m 1
 415 405 l 1
 725 405 l 1
 725 135 l 1
 684 66 586 -21 412 -21 c 0
 123 -21 45 200 45 375 c 2
 45 405 l 2
 45 580 123 801 412 801 c 0
 624 801 715 664 730 582 c 1
 558 566 l 1
 549 616 500 675 412 675 c 0
 291 675 219 586 219 405 c 2
 219 375 l 2
 219 194 291 105 412 105 c 0
 498 105 544 131 570 160 c 1
 570 285 l 1
 415 285 l 1
EndSplineSet
PickledDataWithLists: "(dp0
Vcom.fontlab.hintData
p1
(dp2
Vvhints
p3
(lp4
(dp5
Vwidth
p6
L10L
sVposition
p7
L71L
sa(dp8
g6
L10L
sg7
L169L
sa(dp9
g6
L10L
sg7
L386L
sa(dp10
g6
L10L
sg7
L572L
sa(dp11
g6
L10L
sg7
L615L
sa(dp12
g6
L10L
sg7
L670L
sa(dp13
g6
L10L
sg7
L715L
sasVhhints
p14
(lp15
(dp16
g6
L10L
sg7
L-24L
sa(dp17
g6
L10L
sg7
L44L
sa(dp18
g6
L10L
sg7
L290L
sa(dp19
g6
L10L
sg7
L390L
sa(dp20
g6
L10L
sg7
L587L
sa(dp21
g6
L10L
sg7
L741L
sa(dp22
g6
L10L
sg7
L810L
sass."
Colour: ff00
EndChar

StartChar: H
Encoding: 43 72 44
GlifName: H_
Width: 790
VWidth: 0
Flags: MW
AnchorPoint: "LatinBelow.mark" 395 0 basechar 0
AnchorPoint: "LatinAbove.mark" 395 150 basechar 0
LayerCount: 2
Fore
SplineSet
75 0 m 1
 75 780 l 1
 245 780 l 1
 245 455 l 1
 545 455 l 1
 545 780 l 1
 715 780 l 1
 715 0 l 1
 545 0 l 1
 545 325 l 1
 245 325 l 1
 245 0 l 1
 75 0 l 1
EndSplineSet
PickledDataWithLists: "(dp0
Vcom.fontlab.hintData
p1
(dp2
Vvhints
p3
(lp4
(dp5
Vwidth
p6
L10L
sVposition
p7
L66L
sa(dp8
g6
L10L
sg7
L101L
sa(dp9
g6
L10L
sg7
L111L
sa(dp10
g6
L10L
sg7
L211L
sa(dp11
g6
L10L
sg7
L605L
sa(dp12
g6
L10L
sg7
L704L
sa(dp13
g6
L10L
sg7
L744L
sasVhhints
p14
(lp15
(dp16
g6
L10L
sg7
L-14L
sa(dp17
g6
L10L
sg7
L355L
sa(dp18
g6
L10L
sg7
L423L
sa(dp19
g6
L10L
sg7
L794L
sa(dp20
g6
L10L
sg7
L799L
sass."
Colour: ff00
EndChar

StartChar: I
Encoding: 44 73 45
GlifName: I_
Width: 320
VWidth: 0
Flags: MW
AnchorPoint: "LatinOgonek.mark" 165 0 basechar 0
AnchorPoint: "LatinBelow.mark" 160 0 basechar 0
AnchorPoint: "LatinAbove.mark" 160 150 basechar 0
LayerCount: 2
Fore
SplineSet
75 0 m 1
 75 780 l 1
 245 780 l 1
 245 0 l 1
 75 0 l 1
EndSplineSet
PickledDataWithLists: "(dp0
Vcom.fontlab.hintData
p1
(dp2
Vvhints
p3
(lp4
(dp5
Vwidth
p6
L10L
sVposition
p7
L53L
sa(dp8
g6
L10L
sg7
L77L
sa(dp9
g6
L10L
sg7
L188L
sa(dp10
g6
L10L
sg7
L194L
sa(dp11
g6
L10L
sg7
L282L
sa(dp12
g6
L10L
sg7
L288L
sa(dp13
g6
L10L
sg7
L414L
sasVhhints
p14
(lp15
(dp16
g6
L10L
sg7
L-3L
sa(dp17
g6
L10L
sg7
L3L
sa(dp18
g6
L10L
sg7
L59L
sa(dp19
g6
L10L
sg7
L67L
sa(dp20
g6
L10L
sg7
L729L
sa(dp21
g6
L10L
sg7
L788L
sass."
Colour: ff00
EndChar

StartChar: J
Encoding: 45 74 46
GlifName: J_
Width: 520
VWidth: 0
Flags: MW
AnchorPoint: "LatinBelow.mark" 230 0 basechar 0
AnchorPoint: "LatinAbove.mark" 360 150 basechar 0
LayerCount: 2
Fore
SplineSet
5 143 m 1
 175 155 l 1
 182 109 204 99 225 99 c 0
 245 99 275 106 275 169 c 2
 275 780 l 1
 445 780 l 1
 445 169 l 2
 445 72 369 -21 225 -21 c 0
 82 -21 16 69 5 143 c 1
EndSplineSet
PickledDataWithLists: "(dp0
Vcom.fontlab.hintData
p1
(dp2
Vvhints
p3
(lp4
(dp5
Vwidth
p6
L10L
sVposition
p7
L16L
sa(dp8
g6
L10L
sg7
L152L
sa(dp9
g6
L10L
sg7
L318L
sa(dp10
g6
L10L
sg7
L412L
sa(dp11
g6
L10L
sg7
L492L
sasVhhints
p12
(lp13
(dp14
g6
L10L
sg7
L-14L
sa(dp15
g6
L9L
sg7
L55L
sa(dp16
g6
L10L
sg7
L129L
sa(dp17
g6
L10L
sg7
L730L
sa(dp18
g6
L10L
sg7
L788L
sass."
Colour: ff00
EndChar

StartChar: K
Encoding: 46 75 47
GlifName: K_
Width: 715
VWidth: 0
Flags: MW
AnchorPoint: "LatinBelow.mark" 360 0 basechar 0
AnchorPoint: "LatinAbove.mark" 360 150 basechar 0
LayerCount: 2
Fore
SplineSet
75 0 m 1
 75 780 l 1
 239 780 l 1
 239 467 l 1
 505 780 l 1
 695 767 l 1
 695 759 l 1
 392 445 l 1
 725 8 l 1
 725 0 l 1
 526 0 l 1
 283 332 l 1
 239 287 l 1
 239 0 l 1
 75 0 l 1
EndSplineSet
PickledDataWithLists: "(dp0
Vcom.fontlab.hintData
p1
(dp2
Vvhints
p3
(lp4
(dp5
Vwidth
p6
L10L
sVposition
p7
L64L
sa(dp8
g6
L10L
sg7
L86L
sa(dp9
g6
L10L
sg7
L116L
sa(dp10
g6
L10L
sg7
L211L
sa(dp11
g6
L10L
sg7
L219L
sa(dp12
g6
L10L
sg7
L679L
sa(dp13
g6
L10L
sg7
L734L
sasVhhints
p14
(lp15
(dp16
g6
L10L
sg7
L-14L
sa(dp17
g6
L10L
sg7
L-9L
sa(dp18
g6
L10L
sg7
L799L
sass."
Colour: ff00
EndChar

StartChar: L
Encoding: 47 76 48
GlifName: L_
Width: 570
VWidth: 0
Flags: MW
AnchorPoint: "LatinBelow.mark" 320 0 basechar 0
AnchorPoint: "LatinAbove.mark" 160 150 basechar 0
LayerCount: 2
Fore
SplineSet
75 0 m 1
 75 780 l 1
 247 780 l 1
 247 130 l 1
 560 130 l 1
 560 0 l 1
 75 0 l 1
EndSplineSet
PickledDataWithLists: "(dp0
Vcom.fontlab.hintData
p1
(dp2
Vvhints
p3
(lp4
(dp5
Vwidth
p6
L10L
sVposition
p7
L126L
sa(dp8
g6
L10L
sg7
L131L
sa(dp9
g6
L10L
sg7
L144L
sa(dp10
g6
L10L
sg7
L224L
sa(dp11
g6
L10L
sg7
L242L
sa(dp12
g6
L10L
sg7
L624L
sasVhhints
p13
(lp14
(dp15
g6
L10L
sg7
L-23L
sa(dp16
g6
L10L
sg7
L-9L
sa(dp17
g6
L10L
sg7
L45L
sa(dp18
g6
L10L
sg7
L59L
sa(dp19
g6
L10L
sg7
L794L
sass."
Colour: ff00
EndChar

StartChar: M
Encoding: 48 77 49
GlifName: M_
Width: 880
VWidth: 0
Flags: MW
AnchorPoint: "LatinBelow.mark" 440 0 basechar 0
AnchorPoint: "LatinAbove.mark" 440 150 basechar 0
LayerCount: 2
Fore
SplineSet
805 0 m 1
 637 0 l 1
 637 466 l 1
 480 195 l 1
 400 195 l 1
 243 466 l 1
 243 0 l 1
 75 0 l 1
 75 765 l 1
 215 780 l 1
 440 368 l 1
 665 780 l 1
 805 765 l 1
 805 0 l 1
EndSplineSet
PickledDataWithLists: "(dp0
Vcom.fontlab.hintData
p1
(dp2
Vvhints
p3
(lp4
(dp5
Vwidth
p6
L10L
sVposition
p7
L66L
sa(dp8
g6
L10L
sg7
L102L
sa(dp9
g6
L10L
sg7
L197L
sa(dp10
g6
L10L
sg7
L691L
sa(dp11
g6
L10L
sg7
L785L
sa(dp12
g6
L10L
sg7
L824L
sasVhhints
p13
(lp14
(dp15
g6
L10L
sg7
L-19L
sa(dp16
g6
L10L
sg7
L-9L
sa(dp17
g6
L10L
sg7
L137L
sa(dp18
g6
L20L
sg7
L604L
sa(dp19
g6
L10L
sg7
L783L
sa(dp20
g6
L10L
sg7
L795L
sass."
Colour: ff00
EndChar

StartChar: N
Encoding: 49 78 50
GlifName: N_
Width: 790
VWidth: 0
Flags: MW
AnchorPoint: "LatinBelow.mark" 395 0 basechar 0
AnchorPoint: "LatinAbove.mark" 395 150 basechar 0
LayerCount: 2
Fore
SplineSet
75 0 m 1
 75 765 l 1
 220 780 l 1
 549 273 l 1
 549 780 l 1
 715 780 l 1
 715 0 l 1
 570 0 l 1
 241 507 l 1
 241 0 l 1
 75 0 l 1
EndSplineSet
PickledDataWithLists: "(dp0
Vcom.fontlab.hintData
p1
(dp2
Vvhints
p3
(lp4
(dp5
Vwidth
p6
L10L
sVposition
p7
L97L
sa(dp8
g6
L10L
sg7
L111L
sa(dp9
g6
L10L
sg7
L209L
sa(dp10
g6
L10L
sg7
L601L
sa(dp11
g6
L10L
sg7
L613L
sa(dp12
g6
L10L
sg7
L699L
sa(dp13
g6
L10L
sg7
L711L
sasVhhints
p14
(lp15
(dp16
g6
L10L
sg7
L-14L
sa(dp17
g6
L10L
sg7
L-8L
sa(dp18
g6
L10L
sg7
L794L
sass."
Colour: ff00
EndChar

StartChar: O
Encoding: 50 79 51
GlifName: O_
Width: 820
VWidth: 0
Flags: MW
AnchorPoint: "LatinOgonek.mark" 480 0 basechar 0
AnchorPoint: "LatinBelow.mark" 410 0 basechar 0
AnchorPoint: "LatinAbove.mark" 410 150 basechar 0
LayerCount: 2
Fore
SplineSet
45 373 m 2
 45 407 l 2
 45 581 121 801 410 801 c 0
 699 801 775 581 775 407 c 2
 775 373 l 2
 775 199 699 -21 410 -21 c 0
 121 -21 45 199 45 373 c 2
410 104 m 0
 531 104 601 197 601 373 c 2
 601 407 l 2
 601 583 531 676 410 676 c 0
 289 676 219 583 219 407 c 2
 219 373 l 2
 219 197 289 104 410 104 c 0
EndSplineSet
PickledDataWithLists: "(dp0
Vcom.fontlab.hintData
p1
(dp2
Vvhints
p3
(lp4
(dp5
Vwidth
p6
L10L
sVposition
p7
L66L
sa(dp8
g6
L10L
sg7
L164L
sa(dp9
g6
L10L
sg7
L572L
sa(dp10
g6
L10L
sg7
L659L
sa(dp11
g6
L10L
sg7
L690L
sa(dp12
g6
L10L
sg7
L757L
sasVhhints
p13
(lp14
(dp15
g6
L10L
sg7
L-22L
sa(dp16
g6
L10L
sg7
L47L
sa(dp17
g6
L10L
sg7
L742L
sa(dp18
g6
L10L
sg7
L811L
sass."
Colour: ff00
EndChar

StartChar: P
Encoding: 51 80 52
GlifName: P_
Width: 710
VWidth: 0
Flags: MW
AnchorPoint: "LatinBelow.mark" 160 0 basechar 0
AnchorPoint: "LatinAbove.mark" 360 150 basechar 0
LayerCount: 2
Fore
SplineSet
243 424 m 1
 267 423 298 421 330 421 c 0
 432 421 517 446 517 545 c 0
 517 644 432 669 330 669 c 0
 298 669 267 667 243 666 c 1
 243 424 l 1
243 303 m 1
 243 0 l 1
 75 0 l 1
 75 310 l 1
 75 780 l 1
 75 780 212 789 350 789 c 0
 550 789 685 695 685 545 c 0
 685 395 550 301 350 301 c 0
 313 301 277 302 243 303 c 1
EndSplineSet
PickledDataWithLists: "(dp0
Vcom.fontlab.hintData
p1
(dp2
Vvhints
p3
(lp4
(dp5
Vwidth
p6
L10L
sVposition
p7
L26L
sa(dp8
g6
L10L
sg7
L36L
sa(dp9
g6
L10L
sg7
L116L
sa(dp10
g6
L10L
sg7
L130L
sa(dp11
g6
L10L
sg7
L228L
sa(dp12
g6
L10L
sg7
L592L
sa(dp13
g6
L10L
sg7
L693L
sasVhhints
p14
(lp15
(dp16
g6
L10L
sg7
L-24L
sa(dp17
g6
L10L
sg7
L302L
sa(dp18
g6
L10L
sg7
L369L
sa(dp19
g6
L10L
sg7
L429L
sa(dp20
g6
L10L
sg7
L634L
sa(dp21
g6
L10L
sg7
L661L
sa(dp22
g6
L10L
sg7
L744L
sa(dp23
g6
L10L
sg7
L813L
sass."
Colour: ff00
EndChar

StartChar: Q
Encoding: 52 81 53
GlifName: Q_
Width: 820
VWidth: 0
Flags: MW
AnchorPoint: "LatinBelow.mark" 410 0 basechar 0
AnchorPoint: "LatinAbove.mark" 410 150 basechar 0
LayerCount: 2
Fore
SplineSet
375 250 m 1
 440 335 l 1
 579 227 l 1
 593 266 601 315 601 373 c 2
 601 407 l 2
 601 583 531 676 410 676 c 0
 289 676 219 583 219 407 c 2
 219 373 l 2
 219 197 289 104 410 104 c 0
 451 104 487 115 516 136 c 1
 375 250 l 1
45 373 m 2
 45 407 l 2
 45 581 121 801 410 801 c 0
 699 801 775 581 775 407 c 2
 775 373 l 2
 775 292 758 200 711 126 c 1
 810 49 l 1
 740 -45 l 1
 632 42 l 1
 578 3 506 -21 410 -21 c 0
 121 -21 45 199 45 373 c 2
EndSplineSet
PickledDataWithLists: "(dp0
Vcom.fontlab.hintData
p1
(dp2
Vvhints
p3
(lp4
(dp5
Vwidth
p6
L10L
sVposition
p7
L66L
sa(dp8
g6
L10L
sg7
L164L
sa(dp9
g6
L10L
sg7
L407L
sa(dp10
g6
L10L
sg7
L491L
sa(dp11
g6
L10L
sg7
L675L
sa(dp12
g6
L10L
sg7
L690L
sa(dp13
g6
L10L
sg7
L760L
sa(dp14
g6
L10L
sg7
L769L
sasVhhints
p15
(lp16
(dp17
g6
L10L
sg7
L-206L
sa(dp18
g6
L10L
sg7
L-17L
sa(dp19
g6
L10L
sg7
L46L
sa(dp20
g6
L10L
sg7
L514L
sa(dp21
g6
L10L
sg7
L576L
sa(dp22
g6
L10L
sg7
L598L
sa(dp23
g6
L10L
sg7
L742L
sa(dp24
g6
L10L
sg7
L811L
sass."
Colour: ff00
EndChar

StartChar: R
Encoding: 53 82 54
GlifName: R_
Width: 730
VWidth: 0
Flags: MW
AnchorPoint: "LatinBelow.mark" 360 0 basechar 0
AnchorPoint: "LatinAbove.mark" 360 150 basechar 0
LayerCount: 2
Fore
SplineSet
280 302 m 1
 268 302 255 303 243 303 c 1
 243 0 l 1
 75 0 l 1
 75 310 l 1
 75 780 l 1
 75 780 212 789 350 789 c 0
 550 789 685 695 685 545 c 0
 685 425 599 341 462 312 c 1
 715 8 l 1
 715 0 l 1
 523 0 l 1
 280 302 l 1
243 424 m 1
 267 423 298 421 330 421 c 0
 432 421 517 446 517 545 c 0
 517 644 432 669 330 669 c 0
 298 669 267 667 243 666 c 1
 243 424 l 1
EndSplineSet
PickledDataWithLists: "(dp0
Vcom.fontlab.hintData
p1
(dp2
Vvhints
p3
(lp4
(dp5
Vwidth
p6
L10L
sVposition
p7
L26L
sa(dp8
g6
L10L
sg7
L116L
sa(dp9
g6
L10L
sg7
L126L
sa(dp10
g6
L10L
sg7
L228L
sa(dp11
g6
L10L
sg7
L605L
sa(dp12
g6
L10L
sg7
L705L
sa(dp13
g6
L10L
sg7
L734L
sasVhhints
p14
(lp15
(dp16
g6
L10L
sg7
L-29L
sa(dp17
g6
L10L
sg7
L-24L
sa(dp18
g6
L10L
sg7
L332L
sa(dp19
g6
L10L
sg7
L401L
sa(dp20
g6
L10L
sg7
L430L
sa(dp21
g6
L10L
sg7
L634L
sa(dp22
g6
L10L
sg7
L661L
sa(dp23
g6
L10L
sg7
L745L
sa(dp24
g6
L10L
sg7
L812L
sass."
Colour: ff00
EndChar

StartChar: S
Encoding: 54 83 55
GlifName: S_
Width: 710
VWidth: 0
Flags: MW
AnchorPoint: "LatinCedilla.mark" 380 0 basechar 0
AnchorPoint: "LatinBelow.mark" 355 0 basechar 0
AnchorPoint: "LatinAbove.mark" 355 150 basechar 0
LayerCount: 2
Fore
SplineSet
40 184 m 1
 208 208 l 1
 217 156 266 101 355 101 c 0
 454 101 505 139 505 207 c 0
 505 270 459 288 428 297 c 0
 372 312 287 340 230 360 c 0
 157 387 57 448 57 569 c 0
 57 701 178 801 355 801 c 0
 544 801 635 678 650 600 c 1
 482 576 l 1
 473 628 426 679 355 679 c 0
 274 679 222 639 222 577 c 0
 222 527 262 512 304 496 c 0
 356 478 439 452 488 437 c 0
 575 410 670 347 670 215 c 0
 670 82 550 -21 355 -21 c 0
 150 -21 55 104 40 184 c 1
EndSplineSet
PickledDataWithLists: "(dp0
Vcom.fontlab.hintData
p1
(dp2
Vvhints
p3
(lp4
(dp5
Vwidth
p6
L10L
sVposition
p7
L60L
sa(dp8
g6
L10L
sg7
L68L
sa(dp9
g6
L10L
sg7
L159L
sa(dp10
g6
L10L
sg7
L494L
sa(dp11
g6
L10L
sg7
L555L
sa(dp12
g6
L10L
sg7
L594L
sa(dp13
g6
L10L
sg7
L654L
sasVhhints
p14
(lp15
(dp16
g6
L10L
sg7
L-22L
sa(dp17
g6
L10L
sg7
L46L
sa(dp18
g6
L10L
sg7
L192L
sa(dp19
g6
L10L
sg7
L584L
sa(dp20
g6
L10L
sg7
L744L
sa(dp21
g6
L10L
sg7
L812L
sass."
Colour: ff00
EndChar

StartChar: T
Encoding: 55 84 56
GlifName: T_
Width: 620
VWidth: 0
Flags: MW
AnchorPoint: "LatinCedilla.mark" 320 0 basechar 0
AnchorPoint: "LatinBelow.mark" 310 0 basechar 0
AnchorPoint: "LatinAbove.mark" 310 150 basechar 0
LayerCount: 2
Fore
SplineSet
15 655 m 1
 15 780 l 1
 605 780 l 1
 605 655 l 1
 395 655 l 1
 395 0 l 1
 225 0 l 1
 225 655 l 1
 15 655 l 1
EndSplineSet
PickledDataWithLists: "(dp0
Vcom.fontlab.hintData
p1
(dp2
Vvhints
p3
(lp4
(dp5
Vwidth
p6
L10L
sVposition
p7
L25L
sa(dp8
g6
L10L
sg7
L301L
sa(dp9
g6
L10L
sg7
L306L
sa(dp10
g6
L10L
sg7
L407L
sa(dp11
g6
L10L
sg7
L674L
sasVhhints
p12
(lp13
(dp14
g6
L10L
sg7
L-19L
sa(dp15
g6
L10L
sg7
L722L
sa(dp16
g6
L10L
sg7
L731L
sa(dp17
g6
L10L
sg7
L790L
sa(dp18
g6
L10L
sg7
L800L
sass."
Colour: ff00
EndChar

StartChar: U
Encoding: 56 85 57
GlifName: U_
Width: 770
VWidth: 0
Flags: MW
AnchorPoint: "LatinOgonek.mark" 480 0 basechar 0
AnchorPoint: "LatinBelow.mark" 385 0 basechar 0
AnchorPoint: "LatinAbove.mark" 385 150 basechar 0
LayerCount: 2
Fore
SplineSet
65 246 m 2
 65 780 l 1
 237 780 l 1
 237 246 l 2
 237 143 302 103 385 103 c 0
 468 103 533 143 533 246 c 2
 533 780 l 1
 705 780 l 1
 705 246 l 2
 705 99 582 -21 385 -21 c 0
 188 -21 65 99 65 246 c 2
EndSplineSet
PickledDataWithLists: "(dp0
Vcom.fontlab.hintData
p1
(dp2
Vvhints
p3
(lp4
(dp5
Vwidth
p6
L10L
sVposition
p7
L96L
sa(dp8
g6
L10L
sg7
L107L
sa(dp9
g6
L10L
sg7
L194L
sa(dp10
g6
L10L
sg7
L205L
sa(dp11
g6
L10L
sg7
L603L
sa(dp12
g6
L10L
sg7
L616L
sa(dp13
g6
L10L
sg7
L704L
sa(dp14
g6
L10L
sg7
L714L
sasVhhints
p15
(lp16
(dp17
g6
L10L
sg7
L-24L
sa(dp18
g6
L10L
sg7
L44L
sa(dp19
g6
L10L
sg7
L789L
sass."
EndChar

StartChar: V
Encoding: 57 86 58
GlifName: V_
Width: 750
VWidth: 0
Flags: MW
AnchorPoint: "LatinBelow.mark" 375 0 basechar 0
AnchorPoint: "LatinAbove.mark" 375 150 basechar 0
LayerCount: 2
Fore
SplineSet
5 754 m 1
 5 765 l 1
 205 780 l 1
 375 228 l 1
 545 780 l 1
 745 765 l 1
 745 754 l 1
 445 0 l 1
 305 0 l 1
 5 754 l 1
EndSplineSet
PickledDataWithLists: "(dp0
Vcom.fontlab.hintData
p1
(dp2
Vvhints
p3
(lp4
(dp5
Vwidth
p6
L10L
sVposition
p7
L41L
sa(dp8
g6
L10L
sg7
L759L
sasVhhints
p9
(lp10
(dp11
g6
L10L
sg7
L-21L
sa(dp12
g6
L10L
sg7
L781L
sa(dp13
g6
L10L
sg7
L794L
sass."
EndChar

StartChar: W
Encoding: 58 87 59
GlifName: W_
Width: 1060
VWidth: 0
Flags: MW
AnchorPoint: "LatinBelow.mark" 530 0 basechar 0
AnchorPoint: "LatinAbove.mark" 530 150 basechar 0
LayerCount: 2
Fore
SplineSet
10 754 m 1
 10 764 l 1
 195 780 l 1
 321 247 l 1
 460 760 l 1
 600 760 l 1
 739 247 l 1
 865 780 l 1
 1050 764 l 1
 1050 754 l 1
 825 0 l 1
 680 0 l 1
 530 518 l 1
 380 0 l 1
 235 0 l 1
 10 754 l 1
EndSplineSet
PickledDataWithLists: "(dp0
Vcom.fontlab.hintData
p1
(dp2
Vvhints
p3
(lp4
(dp5
Vwidth
p6
L10L
sVposition
p7
L46L
sa(dp8
g6
L10L
sg7
L1045L
sasVhhints
p9
(lp10
(dp11
g6
L10L
sg7
L-10L
sa(dp12
g6
L10L
sg7
L762L
sa(dp13
g6
L10L
sg7
L790L
sass."
Colour: ff00
EndChar

StartChar: X
Encoding: 59 88 60
GlifName: X_
Width: 740
VWidth: 0
Flags: MW
AnchorPoint: "LatinBelow.mark" 370 0 basechar 0
AnchorPoint: "LatinAbove.mark" 370 150 basechar 0
LayerCount: 2
Fore
SplineSet
40 754 m 1
 40 764 l 1
 228 780 l 1
 370 526 l 1
 512 780 l 1
 700 764 l 1
 700 754 l 1
 465 414 l 1
 750 8 l 1
 750 0 l 1
 553 0 l 1
 370 274 l 1
 187 0 l 1
 -10 0 l 1
 -10 8 l 1
 275 414 l 1
 40 754 l 1
EndSplineSet
PickledDataWithLists: "(dp0
Vcom.fontlab.hintData
p1
(dp2
Vvhints
p3
(lp4
(dp5
Vwidth
p6
L10L
sVposition
p7
L31L
sa(dp8
g6
L10L
sg7
L91L
sa(dp9
g6
L10L
sg7
L687L
sa(dp10
g6
L10L
sg7
L734L
sasVhhints
p11
(lp12
(dp13
g6
L10L
sg7
L-9L
sa(dp14
g6
L10L
sg7
L4L
sa(dp15
g6
L10L
sg7
L789L
sass."
Colour: ff00
EndChar

StartChar: Y
Encoding: 60 89 61
GlifName: Y_
Width: 670
VWidth: 0
Flags: MW
AnchorPoint: "LatinBelow.mark" 335 0 basechar 0
AnchorPoint: "LatinAbove.mark" 335 150 basechar 0
LayerCount: 2
Fore
SplineSet
-5 754 m 1
 -5 765 l 1
 185 780 l 1
 335 450 l 1
 485 780 l 1
 675 765 l 1
 675 754 l 1
 420 290 l 1
 420 0 l 1
 250 0 l 1
 250 290 l 1
 -5 754 l 1
EndSplineSet
PickledDataWithLists: "(dp0
Vcom.fontlab.hintData
p1
(dp2
Vvhints
p3
(lp4
(dp5
Vwidth
p6
L10L
sVposition
p7
L35L
sa(dp8
g6
L10L
sg7
L310L
sa(dp9
g6
L10L
sg7
L408L
sa(dp10
g6
L10L
sg7
L414L
sa(dp11
g6
L10L
sg7
L675L
sasVhhints
p12
(lp13
(dp14
g6
L10L
sg7
L-20L
sa(dp15
g6
L10L
sg7
L789L
sa(dp16
g6
L10L
sg7
L800L
sass."
EndChar

StartChar: Z
Encoding: 61 90 62
GlifName: Z_
Width: 670
VWidth: 0
Flags: MW
AnchorPoint: "LatinBelow.mark" 335 0 basechar 0
AnchorPoint: "LatinAbove.mark" 335 150 basechar 0
LayerCount: 2
Fore
SplineSet
20 96 m 1
 413 650 l 1
 50 650 l 1
 50 780 l 1
 627 780 l 1
 639 684 l 1
 248 130 l 1
 650 130 l 1
 650 0 l 1
 32 0 l 1
 20 96 l 1
EndSplineSet
PickledDataWithLists: "(dp0
Vcom.fontlab.hintData
p1
(dp2
Vvhints
p3
(lp4
(dp5
Vwidth
p6
L10L
sVposition
p7
L46L
sa(dp8
g6
L10L
sg7
L66L
sa(dp9
g6
L10L
sg7
L679L
sa(dp10
g6
L10L
sg7
L699L
sasVhhints
p11
(lp12
(dp13
g6
L10L
sg7
L-13L
sa(dp14
g6
L10L
sg7
L64L
sa(dp15
g6
L10L
sg7
L75L
sa(dp16
g6
L10L
sg7
L709L
sa(dp17
g6
L10L
sg7
L779L
sa(dp18
g6
L10L
sg7
L785L
sa(dp19
g6
L10L
sg7
L790L
sass."
Colour: ff00
EndChar

StartChar: bracketleft
Encoding: 62 91 63
GlifName: bracketleft
Width: 435
VWidth: 0
Flags: MW
LayerCount: 2
Fore
SplineSet
105 -120 m 1
 105 900 l 1
 360 900 l 1
 360 805 l 1
 240 805 l 1
 240 -25 l 1
 358 -25 l 1
 358 -120 l 1
 105 -120 l 1
EndSplineSet
PickledDataWithLists: "(dp0
Vcom.fontlab.hintData
p1
(dp2
Vvhints
p3
(lp4
(dp5
Vwidth
p6
L10L
sVposition
p7
L71L
sa(dp8
g6
L10L
sg7
L92L
sa(dp9
g6
L10L
sg7
L161L
sa(dp10
g6
L10L
sg7
L289L
sasVhhints
p11
(lp12
(dp13
g6
L10L
sg7
L-91L
sa(dp14
g6
L10L
sg7
L-44L
sa(dp15
g6
L10L
sg7
L830L
sa(dp16
g6
L10L
sg7
L877L
sass."
EndChar

StartChar: backslash
Encoding: 63 92 64
GlifName: backslash
Width: 510
VWidth: 0
Flags: MW
LayerCount: 2
Fore
SplineSet
355 0 m 1
 30 772 l 1
 30 780 l 1
 155 780 l 1
 480 8 l 1
 480 0 l 1
 355 0 l 1
EndSplineSet
PickledDataWithLists: "(dp0
Vcom.fontlab.hintData
p1
(dp2
Vvhints
p3
(lp4
(dp5
Vwidth
p6
L10L
sVposition
p7
L40L
sa(dp8
g6
L10L
sg7
L430L
sasVhhints
p9
(lp10
(dp11
g6
L10L
sg7
L-29L
sa(dp12
g6
L10L
sg7
L819L
sass."
EndChar

StartChar: asciicircum
Encoding: 65 94 66
GlifName: asciicircum
Width: 630
VWidth: 0
Flags: MW
LayerCount: 2
Fore
SplineSet
15 595 m 1
 285 900 l 1
 345 900 l 1
 615 595 l 1
 535 540 l 1
 315 732 l 1
 95 540 l 1
 15 595 l 1
EndSplineSet
PickledDataWithLists: "(dp0
Vcom.fontlab.hintData
p1
(dp2
Vvhints
p3
(lp4
(dp5
Vwidth
p6
L10L
sVposition
p7
L23L
sasVhhints
p8
(lp9
(dp10
g6
L10L
sg7
L532L
sa(dp11
g6
L10L
sg7
L839L
sass."
EndChar

StartChar: underscore
Encoding: 66 95 67
GlifName: underscore
Width: 600
VWidth: 0
Flags: MW
LayerCount: 2
Fore
SplineSet
0 0 m 25
 600 0 l 25
 600 -120 l 25
 0 -120 l 25
 0 0 l 25
EndSplineSet
PickledDataWithLists: "(dp0
Vcom.fontlab.hintData
p1
(dp2
Vvhints
p3
(lp4
(dp5
Vwidth
p6
L10L
sVposition
p7
L30L
sa(dp8
g6
L10L
sg7
L559L
sasVhhints
p9
(lp10
(dp11
g6
L10L
sg7
L-69L
sa(dp12
g6
L10L
sg7
L-6L
sa(dp13
g6
L10L
sg7
L1L
sass."
EndChar

StartChar: grave
Encoding: 67 96 68
GlifName: grave
Width: 390
VWidth: 0
Flags: MW
LayerCount: 2
Fore
SplineSet
375 595 m 1
 295 540 l 1
 -15 811 l 1
 105 900 l 1
 375 595 l 1
EndSplineSet
PickledDataWithLists: "(dp0
Vcom.fontlab.hintData
p1
(dp2
Vvhints
p3
(lp4
(dp5
Vwidth
p6
L10L
sVposition
p7
L20L
sasVhhints
p8
(lp9
(dp10
g6
L10L
sg7
L541L
sa(dp11
g6
L10L
sg7
L838L
sass."
EndChar

StartChar: a
Encoding: 68 97 69
GlifName: a
Width: 625
VWidth: 0
Flags: MW
AnchorPoint: "LatinOgonek.mark" 515 0 basechar 0
AnchorPoint: "LatinBelow.mark" 330 0 basechar 0
AnchorPoint: "LatinAbove.mark" 310 0 basechar 0
LayerCount: 2
Fore
SplineSet
40 174 m 0
 40 249 103 330 253 330 c 0
 305 330 356 327 400 323 c 1
 400 412 l 2
 400 486 353 507 300 507 c 0
 253 507 214 481 205 415 c 1
 45 427 l 1
 58 519 137 621 300 621 c 0
 457 621 555 528 555 412 c 2
 555 155 l 2
 555 109 563 93 610 87 c 1
 570 -16 l 1
 534 -11 471 2 441 56 c 1
 405 15 351 -16 270 -16 c 0
 124 -16 40 60 40 174 c 0
408 230 m 1
 367 235 313 239 262 239 c 0
 234 239 195 222 195 172 c 0
 195 101 245 79 290 79 c 0
 367 79 398 135 408 203 c 1
 408 230 l 1
EndSplineSet
PickledDataWithLists: "(dp0
Vcom.fontlab.hintData
p1
(dp2
Vvhints
p3
(lp4
(dp5
Vwidth
p6
L10L
sVposition
p7
L60L
sa(dp8
g6
L10L
sg7
L149L
sa(dp9
g6
L10L
sg7
L441L
sa(dp10
g6
L10L
sg7
L529L
sa(dp11
g6
L10L
sg7
L649L
sasVhhints
p12
(lp13
(dp14
g6
L10L
sg7
L-21L
sa(dp15
g6
L10L
sg7
L-11L
sa(dp16
g6
L10L
sg7
L41L
sa(dp17
g6
L10L
sg7
L362L
sa(dp18
g6
L10L
sg7
L432L
sa(dp19
g6
L10L
sg7
L549L
sa(dp20
g6
L10L
sg7
L611L
sass."
Substitution2: "Latin.ss20 subtable" uni0251
Substitution2: "Latin.ss19 subtable" uni0251
Colour: ff00
EndChar

StartChar: b
Encoding: 69 98 70
GlifName: b
Width: 675
VWidth: 0
Flags: MW
AnchorPoint: "LatinBelow.mark" 360 0 basechar 0
AnchorPoint: "LatinAbove.mark" 135 180 basechar 0
LayerCount: 2
Fore
SplineSet
206 0 m 1
 70 0 l 1
 70 810 l 1
 225 810 l 1
 225 539 l 1
 262 584 313 616 380 616 c 0
 569 616 635 440 635 310 c 2
 635 290 l 2
 635 160 569 -16 380 -16 c 0
 307 -16 254 22 216 73 c 1
 206 0 l 1
225 364 m 1
 225 236 l 1
 243 157 289 100 360 100 c 0
 425 100 475 153 475 290 c 2
 475 310 l 2
 475 447 425 500 360 500 c 0
 289 500 243 443 225 364 c 1
EndSplineSet
PickledDataWithLists: "(dp0
Vcom.fontlab.hintData
p1
(dp2
Vvhints
p3
(lp4
(dp5
Vwidth
p6
L10L
sVposition
p7
L81L
sa(dp8
g6
L10L
sg7
L91L
sa(dp9
g6
L10L
sg7
L179L
sa(dp10
g6
L10L
sg7
L211L
sa(dp11
g6
L10L
sg7
L504L
sa(dp12
g6
L10L
sg7
L593L
sasVhhints
p13
(lp14
(dp15
g6
L10L
sg7
L-21L
sa(dp16
g6
L10L
sg7
L41L
sa(dp17
g6
L10L
sg7
L524L
sa(dp18
g6
L10L
sg7
L546L
sa(dp19
g6
L10L
sg7
L607L
sa(dp20
g6
L10L
sg7
L836L
sass."
Colour: ff00
EndChar

StartChar: c
Encoding: 70 99 71
GlifName: c
Width: 605
VWidth: 0
Flags: MW
AnchorPoint: "LatinCedilla.mark" 330 0 basechar 0
AnchorPoint: "LatinBelow.mark" 330 0 basechar 0
AnchorPoint: "LatinAbove.mark" 330 0 basechar 0
LayerCount: 2
Fore
SplineSet
424 168 m 1
 585 154 l 1
 574 90 503 -21 330 -21 c 0
 94 -21 40 158 40 288 c 0
 40 312 l 0
 40 442 94 621 330 621 c 0
 503 621 574 510 585 446 c 1
 424 432 l 1
 417 468 381 505 330 505 c 0
 260 505 204 446 204 312 c 0
 204 288 l 0
 204 154 260 95 330 95 c 0
 381 95 417 132 424 168 c 1
EndSplineSet
PickledDataWithLists: "(dp0
Vcom.fontlab.hintData
p1
(dp2
Vvhints
p3
(lp4
(dp5
Vwidth
p6
L10L
sVposition
p7
L58L
sa(dp8
g6
L10L
sg7
L152L
sa(dp9
g6
L10L
sg7
L433L
sa(dp10
g6
L10L
sg7
L527L
sa(dp11
g6
L10L
sg7
L552L
sasVhhints
p12
(lp13
(dp14
g6
L10L
sg7
L-22L
sa(dp15
g6
L10L
sg7
L44L
sa(dp16
g6
L10L
sg7
L133L
sa(dp17
g6
L10L
sg7
L433L
sa(dp18
g6
L10L
sg7
L548L
sa(dp19
g6
L10L
sg7
L614L
sass."
Colour: ff00
EndChar

StartChar: d
Encoding: 71 100 72
GlifName: d
Width: 680
VWidth: 0
Flags: MW
AnchorPoint: "LatinBelow.mark" 360 0 basechar 0
AnchorPoint: "LatinAbove.mark" 525 180 basechar 0
LayerCount: 2
Fore
SplineSet
40 290 m 2
 40 310 l 2
 40 440 106 616 295 616 c 0
 362 616 413 584 450 539 c 1
 450 810 l 1
 605 810 l 1
 605 155 l 2
 605 109 613 93 660 87 c 1
 620 -16 l 1
 576 -10 490 9 477 100 c 1
 439 36 380 -16 295 -16 c 0
 106 -16 40 160 40 290 c 2
450 364 m 1
 432 443 386 500 315 500 c 0
 250 500 200 447 200 310 c 2
 200 290 l 2
 200 153 250 100 315 100 c 0
 386 100 432 157 450 236 c 1
 450 364 l 1
EndSplineSet
PickledDataWithLists: "(dp0
Vcom.fontlab.hintData
p1
(dp2
Vvhints
p3
(lp4
(dp5
Vwidth
p6
L10L
sVposition
p7
L61L
sa(dp8
g6
L10L
sg7
L149L
sa(dp9
g6
L10L
sg7
L476L
sa(dp10
g6
L10L
sg7
L564L
sa(dp11
g6
L10L
sg7
L679L
sasVhhints
p12
(lp13
(dp14
g6
L10L
sg7
L-21L
sa(dp15
g6
L10L
sg7
L41L
sa(dp16
g6
L10L
sg7
L544L
sa(dp17
g6
L10L
sg7
L606L
sa(dp18
g6
L10L
sg7
L836L
sass."
Colour: ff00
EndChar

StartChar: e
Encoding: 72 101 73
GlifName: e
Width: 640
VWidth: 0
Flags: MW
AnchorPoint: "LatinOgonek.mark" 410 0 basechar 0
AnchorPoint: "LatinBelow.mark" 330 0 basechar 0
AnchorPoint: "LatinAbove.mark" 330 0 basechar 0
LayerCount: 2
Fore
SplineSet
40 287 m 2
 40 313 l 2
 40 444 100 621 328 621 c 0
 514 621 600 485 600 357 c 0
 600 326 596 295 590 265 c 1
 197 265 l 1
 203 147 255 91 328 91 c 0
 387 91 425 131 431 167 c 1
 585 153 l 1
 573 87 499 -21 328 -21 c 0
 95 -21 40 156 40 287 c 2
199 365 m 1
 450 365 l 1
 448 472 393 509 328 509 c 0
 262 509 212 462 199 365 c 1
EndSplineSet
PickledDataWithLists: "(dp0
Vcom.fontlab.hintData
p1
(dp2
Vvhints
p3
(lp4
(dp5
Vwidth
p6
L10L
sVposition
p7
L45L
sa(dp8
g6
L10L
sg7
L71L
sa(dp9
g6
L10L
sg7
L159L
sa(dp10
g6
L10L
sg7
L471L
sa(dp11
g6
L10L
sg7
L559L
sa(dp12
g6
L10L
sg7
L570L
sasVhhints
p13
(lp14
(dp15
g6
L10L
sg7
L-20L
sa(dp16
g6
L10L
sg7
L42L
sa(dp17
g6
L10L
sg7
L131L
sa(dp18
g6
L10L
sg7
L552L
sa(dp19
g6
L10L
sg7
L613L
sass."
Colour: ff00
EndChar

StartChar: f
Encoding: 73 102 74
GlifName: f
Width: 400
VWidth: 0
Flags: MW
AnchorPoint: "LatinBelow.mark" 180 0 basechar 0
AnchorPoint: "LatinAbove.mark" 270 180 basechar 0
LayerCount: 2
Fore
SplineSet
20 500 m 1
 20 600 l 1
 100 600 l 1
 100 667 l 2
 100 725 137 831 283 831 c 0
 367 831 421 791 435 780 c 1
 369 695 l 1
 357 703 328 721 295 721 c 0
 271 721 255 701 255 667 c 2
 255 600 l 1
 390 600 l 1
 390 500 l 1
 260 500 l 1
 260 0 l 1
 100 0 l 1
 100 500 l 1
 20 500 l 1
EndSplineSet
PickledDataWithLists: "(dp0
Vcom.fontlab.hintData
p1
(dp2
Vvhints
p3
(lp4
(dp5
Vwidth
p6
L10L
sVposition
p7
L20L
sa(dp8
g6
L10L
sg7
L132L
sa(dp9
g6
L10L
sg7
L166L
sa(dp10
g6
L9L
sg7
L219L
sa(dp11
g6
L10L
sg7
L255L
sa(dp12
g6
L10L
sg7
L399L
sa(dp13
g6
L10L
sg7
L469L
sasVhhints
p14
(lp15
(dp16
g6
L10L
sg7
L-20L
sa(dp17
g6
L10L
sg7
L521L
sa(dp18
g6
L10L
sg7
L586L
sa(dp19
g6
L10L
sg7
L591L
sa(dp20
g6
L10L
sg7
L759L
sa(dp21
g6
L10L
sg7
L803L
sa(dp22
g6
L10L
sg7
L864L
sass."
Colour: ff00
EndChar

StartChar: h
Encoding: 75 104 76
GlifName: h
Width: 665
VWidth: 0
Flags: MW
AnchorPoint: "LatinBelow.mark" 360 0 basechar 0
AnchorPoint: "LatinAbove.mark" 135 180 basechar 0
LayerCount: 2
Fore
SplineSet
70 0 m 1
 70 810 l 1
 225 810 l 1
 225 482 l 1
 267 555 334 616 435 616 c 0
 557 616 610 510 610 406 c 2
 610 0 l 1
 450 0 l 1
 450 400 l 2
 450 479 413 490 390 490 c 0
 323 490 250 403 230 303 c 1
 230 0 l 1
 70 0 l 1
EndSplineSet
PickledDataWithLists: "(dp0
Vcom.fontlab.hintData
p1
(dp2
Vvhints
p3
(lp4
(dp5
Vwidth
p6
L10L
sVposition
p7
L65L
sa(dp8
g6
L10L
sg7
L106L
sa(dp9
g6
L10L
sg7
L187L
sa(dp10
g6
L10L
sg7
L491L
sa(dp11
g6
L10L
sg7
L496L
sa(dp12
g6
L10L
sg7
L579L
sa(dp13
g6
L10L
sg7
L584L
sasVhhints
p14
(lp15
(dp16
g6
L10L
sg7
L-14L
sa(dp17
g6
L10L
sg7
L549L
sa(dp18
g6
L10L
sg7
L611L
sa(dp19
g6
L10L
sg7
L836L
sass."
Colour: ff00
EndChar

StartChar: i
Encoding: 76 105 77
GlifName: i
Width: 300
VWidth: 0
GlyphClass: 3
Flags: MW
AnchorPoint: "LatinOgonek.mark" 155 0 basechar 0
AnchorPoint: "LatinBelow.mark" 150 0 basechar 0
AnchorPoint: "LatinAbove.mark" 150 180 basechar 0
LayerCount: 2
Fore
SplineSet
55 780 m 0
 55 834 96 868 150 868 c 0
 204 868 245 834 245 780 c 0
 245 726 204 692 150 692 c 0
 96 692 55 726 55 780 c 0
70 0 m 1
 70 600 l 1
 230 600 l 1
 230 0 l 1
 70 0 l 1
EndSplineSet
PickledDataWithLists: "(dp0
Vcom.fontlab.hintData
p1
(dp2
Vvhints
p3
(lp4
(dp5
Vwidth
p6
L10L
sVposition
p7
L86L
sa(dp8
g6
L10L
sg7
L116L
sa(dp9
g6
L10L
sg7
L204L
sa(dp10
g6
L10L
sg7
L234L
sa(dp11
g6
L10L
sg7
L244L
sasVhhints
p12
(lp13
(dp14
g6
L10L
sg7
L-21L
sa(dp15
g6
L10L
sg7
L595L
sa(dp16
g6
L10L
sg7
L725L
sa(dp17
g6
L20L
sg7
L826L
sa(dp18
g6
L10L
sg7
L852L
sass."
Substitution2: "Latin.ij.dotless subtable" dotlessi
Ligature2: "Latin.ij subtable" dotlessi uni0307
EndChar

StartChar: j
Encoding: 77 106 78
GlifName: j
Width: 310
VWidth: 0
GlyphClass: 3
Flags: MW
AnchorPoint: "LatinBelow.mark" 150 -180 basechar 0
AnchorPoint: "LatinAbove.mark" 150 180 basechar 0
LayerCount: 2
Fore
SplineSet
65 780 m 0
 65 834 106 868 160 868 c 0
 214 868 255 834 255 780 c 0
 255 726 212 692 158 692 c 0
 104 692 65 726 65 780 c 0
35 -226 m 1
 -15 -125 l 1
 50 -109 80 -82 80 -5 c 0
 80 600 l 1
 240 600 l 1
 240 -15 l 0
 240 -136 139 -204 35 -226 c 1
EndSplineSet
PickledDataWithLists: "(dp0
Vcom.fontlab.hintData
p1
(dp2
Vvhints
p3
(lp4
(dp5
Vwidth
p6
L10L
sVposition
p7
L31L
sa(dp8
g6
L10L
sg7
L86L
sa(dp9
g6
L10L
sg7
L126L
sa(dp10
g6
L10L
sg7
L146L
sa(dp11
g6
L10L
sg7
L234L
sa(dp12
g6
L10L
sg7
L244L
sasVhhints
p13
(lp14
(dp15
g6
L10L
sg7
L-246L
sa(dp16
g6
L10L
sg7
L596L
sa(dp17
g6
L10L
sg7
L725L
sa(dp18
g6
L20L
sg7
L826L
sa(dp19
g6
L10L
sg7
L852L
sass."
Substitution2: "Latin.ij.dotless subtable" uni0237
Ligature2: "Latin.ij subtable" uni0237 uni200D uni0307
Ligature2: "Latin.ij subtable" uni0237 uni0307
Ligature2: "Latin.ij subtable" dotlessi uni200D uni0307
EndChar

StartChar: k
Encoding: 78 107 79
GlifName: k
Width: 605
VWidth: 0
Flags: MW
AnchorPoint: "LatinBelow.mark" 360 0 basechar 0
AnchorPoint: "LatinAbove.mark" 135 180 basechar 0
LayerCount: 2
Fore
SplineSet
80 0 m 1
 80 810 l 1
 232 810 l 1
 232 382 l 1
 420 600 l 1
 595 590 l 1
 595 584 l 1
 357 341 l 1
 615 6 l 1
 615 0 l 1
 433 0 l 1
 256 238 l 1
 232 213 l 1
 232 0 l 1
 80 0 l 1
EndSplineSet
PickledDataWithLists: "(dp0
Vcom.fontlab.hintData
p1
(dp2
Vvhints
p3
(lp4
(dp5
Vwidth
p6
L10L
sVposition
p7
L75L
sa(dp8
g6
L10L
sg7
L105L
sa(dp9
g6
L10L
sg7
L194L
sa(dp10
g6
L10L
sg7
L539L
sa(dp11
g6
L10L
sg7
L580L
sasVhhints
p12
(lp13
(dp14
g6
L10L
sg7
L-11L
sa(dp15
g6
L10L
sg7
L596L
sa(dp16
g6
L10L
sg7
L836L
sass."
Colour: ff00
EndChar

StartChar: l
Encoding: 79 108 80
GlifName: l
Width: 315
VWidth: 0
Flags: MW
AnchorPoint: "LatinBelow.mark" 190 0 basechar 0
AnchorPoint: "LatinAbove.mark" 140 180 basechar 0
LayerCount: 2
Fore
SplineSet
70 140 m 0
 70 810 l 1
 230 810 l 1
 230 155 l 0
 230 109 253 93 315 87 c 1
 285 -16 l 1
 198 -10 70 14 70 140 c 0
EndSplineSet
PickledDataWithLists: "(dp0
Vcom.fontlab.hintData
p1
(dp2
Vvhints
p3
(lp4
(dp5
Vwidth
p6
L10L
sVposition
p7
L106L
sa(dp8
g6
L10L
sg7
L111L
sa(dp9
g6
L10L
sg7
L194L
sa(dp10
g6
L10L
sg7
L199L
sa(dp11
g6
L10L
sg7
L315L
sasVhhints
p12
(lp13
(dp14
g6
L10L
sg7
L-23L
sa(dp15
g6
L10L
sg7
L830L
sass."
EndChar

StartChar: m
Encoding: 80 109 81
GlifName: m
Width: 945
VWidth: 0
Flags: MW
AnchorPoint: "LatinBelow.mark" 480 0 basechar 0
AnchorPoint: "LatinAbove.mark" 480 0 basechar 0
LayerCount: 2
Fore
SplineSet
60 591 m 1
 205 603 l 1
 218 506 l 1
 252 568 306 616 390 616 c 0
 474 616 523 566 545 501 c 1
 579 565 633 616 720 616 c 0
 842 616 890 510 890 406 c 2
 890 0 l 1
 730 0 l 1
 730 400 l 2
 730 479 698 490 675 490 c 0
 621 490 577 415 560 323 c 1
 560 0 l 1
 400 0 l 1
 400 400 l 2
 400 479 368 490 345 490 c 0
 291 490 247 415 230 323 c 1
 230 0 l 1
 70 0 l 1
 70 420 l 1
 60 591 l 1
EndSplineSet
PickledDataWithLists: "(dp0
Vcom.fontlab.hintData
p1
(dp2
Vvhints
p3
(lp4
(dp5
Vwidth
p6
L10L
sVposition
p7
L76L
sa(dp8
g6
L10L
sg7
L96L
sa(dp9
g6
L10L
sg7
L167L
sa(dp10
g6
L10L
sg7
L436L
sa(dp11
g6
L10L
sg7
L441L
sa(dp12
g6
L10L
sg7
L776L
sa(dp13
g6
L10L
sg7
L781L
sa(dp14
g6
L10L
sg7
L864L
sa(dp15
g6
L10L
sg7
L869L
sasVhhints
p16
(lp17
(dp18
g6
L10L
sg7
L-19L
sa(dp19
g6
L10L
sg7
L-10L
sa(dp20
g6
L10L
sg7
L549L
sa(dp21
g6
L10L
sg7
L606L
sa(dp22
g6
L10L
sg7
L611L
sass."
Colour: ff00
EndChar

StartChar: n
Encoding: 81 110 82
GlifName: n
Width: 655
VWidth: 0
Flags: MW
AnchorPoint: "LatinBelow.mark" 360 0 basechar 0
AnchorPoint: "LatinAbove.mark" 330 0 basechar 0
LayerCount: 2
Fore
SplineSet
70 0 m 1
 70 420 l 1
 60 591 l 1
 205 603 l 1
 221 484 l 1
 261 556 325 616 425 616 c 0
 547 616 600 510 600 406 c 2
 600 0 l 1
 440 0 l 1
 440 400 l 2
 440 479 403 490 380 490 c 0
 313 490 249 405 230 305 c 1
 230 0 l 1
 70 0 l 1
EndSplineSet
PickledDataWithLists: "(dp0
Vcom.fontlab.hintData
p1
(dp2
Vvhints
p3
(lp4
(dp5
Vwidth
p6
L10L
sVposition
p7
L55L
sa(dp8
g6
L10L
sg7
L96L
sa(dp9
g6
L10L
sg7
L481L
sa(dp10
g6
L10L
sg7
L486L
sa(dp11
g6
L10L
sg7
L569L
sa(dp12
g6
L10L
sg7
L574L
sasVhhints
p13
(lp14
(dp15
g6
L10L
sg7
L-15L
sa(dp16
g6
L10L
sg7
L-10L
sa(dp17
g6
L10L
sg7
L549L
sa(dp18
g6
L10L
sg7
L606L
sa(dp19
g6
L10L
sg7
L611L
sass."
Substitution2: "Latin.sups subtable" n.sups
Substitution2: "Latin.sups subtable" n.sups
Colour: ff00
EndChar

StartChar: o
Encoding: 82 111 83
GlifName: o
Width: 660
VWidth: 0
Flags: MW
AnchorPoint: "LatinOgonek.mark" 400 0 basechar 0
AnchorPoint: "LatinBelow.mark" 330 0 basechar 0
AnchorPoint: "LatinAbove.mark" 330 0 basechar 0
LayerCount: 2
Fore
SplineSet
40 287 m 2
 40 313 l 2
 40 443 95 621 330 621 c 0
 565 621 620 443 620 313 c 2
 620 287 l 2
 620 157 565 -21 330 -21 c 0
 95 -21 40 157 40 287 c 2
330 93 m 0
 405 93 460 153 460 287 c 2
 460 313 l 2
 460 447 405 507 330 507 c 0
 255 507 200 447 200 313 c 2
 200 287 l 2
 200 153 255 93 330 93 c 0
EndSplineSet
PickledDataWithLists: "(dp0
Vcom.fontlab.hintData
p1
(dp2
Vvhints
p3
(lp4
(dp5
Vwidth
p6
L10L
sVposition
p7
L61L
sa(dp8
g6
L10L
sg7
L149L
sa(dp9
g6
L10L
sg7
L441L
sa(dp10
g6
L10L
sg7
L506L
sa(dp11
g6
L10L
sg7
L594L
sasVhhints
p12
(lp13
(dp14
g6
L10L
sg7
L-21L
sa(dp15
g6
L9L
sg7
L42L
sa(dp16
g6
L10L
sg7
L552L
sa(dp17
g6
L10L
sg7
L614L
sass."
Colour: ff00
EndChar

StartChar: p
Encoding: 83 112 84
GlifName: p
Width: 675
VWidth: 0
Flags: MW
AnchorPoint: "LatinBelow.mark" 150 -180 basechar 0
AnchorPoint: "LatinAbove.mark" 330 0 basechar 0
LayerCount: 2
Fore
SplineSet
635 290 m 2
 635 160 569 -16 380 -16 c 0
 316 -16 266 13 230 55 c 1
 230 -210 l 1
 70 -210 l 1
 70 420 l 1
 60 591 l 1
 205 603 l 1
 215 526 l 1
 253 577 307 616 380 616 c 0
 569 616 635 440 635 310 c 2
 635 290 l 2
230 217 m 1
 251 148 294 100 360 100 c 0
 425 100 475 153 475 290 c 2
 475 310 l 2
 475 447 425 500 360 500 c 0
 294 500 251 452 230 383 c 1
 230 217 l 1
EndSplineSet
PickledDataWithLists: "(dp0
Vcom.fontlab.hintData
p1
(dp2
Vvhints
p3
(lp4
(dp5
Vwidth
p6
L10L
sVposition
p7
L41L
sa(dp8
g6
L10L
sg7
L101L
sa(dp9
g6
L10L
sg7
L108L
sa(dp10
g6
L10L
sg7
L193L
sa(dp11
g6
L10L
sg7
L523L
sa(dp12
g6
L10L
sg7
L612L
sasVhhints
p13
(lp14
(dp15
g6
L10L
sg7
L-246L
sa(dp16
g6
L10L
sg7
L-16L
sa(dp17
g6
L10L
sg7
L46L
sa(dp18
g6
L10L
sg7
L549L
sa(dp19
g6
L10L
sg7
L610L
sass."
Colour: ff00
EndChar

StartChar: q
Encoding: 84 113 85
GlifName: q
Width: 675
VWidth: 0
Flags: MW
AnchorPoint: "LatinBelow.mark" 535 -240 basechar 0
AnchorPoint: "LatinAbove.mark" 360 0 basechar 0
LayerCount: 2
Fore
SplineSet
469 600 m 1
 605 600 l 1
 605 -210 l 1
 450 -210 l 1
 450 61 l 1
 413 16 362 -16 295 -16 c 0
 106 -16 40 160 40 290 c 2
 40 310 l 2
 40 440 106 616 295 616 c 0
 368 616 421 578 459 527 c 1
 469 600 l 1
450 236 m 1
 450 364 l 1
 432 443 386 500 315 500 c 0
 250 500 200 447 200 310 c 2
 200 290 l 2
 200 153 250 100 315 100 c 0
 386 100 432 157 450 236 c 1
EndSplineSet
PickledDataWithLists: "(dp0
Vcom.fontlab.hintData
p1
(dp2
Vvhints
p3
(lp4
(dp5
Vwidth
p6
L10L
sVposition
p7
L59L
sa(dp8
g6
L10L
sg7
L149L
sa(dp9
g6
L10L
sg7
L444L
sa(dp10
g6
L10L
sg7
L459L
sa(dp11
g6
L10L
sg7
L471L
sa(dp12
g6
L10L
sg7
L547L
sa(dp13
g6
L10L
sg7
L559L
sa(dp14
g6
L10L
sg7
L649L
sasVhhints
p15
(lp16
(dp17
g6
L10L
sg7
L-261L
sa(dp18
g6
L10L
sg7
L-184L
sa(dp19
g6
L10L
sg7
L-17L
sa(dp20
g6
L10L
sg7
L44L
sa(dp21
g6
L10L
sg7
L66L
sa(dp22
g6
L10L
sg7
L549L
sa(dp23
g6
L10L
sg7
L611L
sass."
Colour: ff00
EndChar

StartChar: r
Encoding: 85 114 86
GlifName: r
Width: 435
VWidth: 0
Flags: MW
AnchorPoint: "LatinBelow.mark" 170 0 basechar 0
AnchorPoint: "LatinAbove.mark" 240 0 basechar 0
LayerCount: 2
Fore
SplineSet
55 588 m 1
 189 603 l 1
 222 483 l 1
 248 555 294 616 379 616 c 0
 407 616 430 609 450 599 c 1
 390 469 l 1
 379 476 367 480 351 480 c 0
 302 480 264 407 250 314 c 1
 250 0 l 1
 90 0 l 1
 90 450 l 1
 55 588 l 1
EndSplineSet
PickledDataWithLists: "(dp0
Vcom.fontlab.hintData
p1
(dp2
Vvhints
p3
(lp4
(dp5
Vwidth
p6
L10L
sVposition
p7
L20L
sa(dp8
g6
L10L
sg7
L171L
sa(dp9
g6
L10L
sg7
L261L
sa(dp10
g6
L10L
sg7
L479L
sasVhhints
p11
(lp12
(dp13
g6
L10L
sg7
L-13L
sa(dp14
g6
L10L
sg7
L524L
sa(dp15
g6
L10L
sg7
L549L
sa(dp16
g6
L10L
sg7
L596L
sa(dp17
g6
L10L
sg7
L611L
sass."
Colour: ff00
EndChar

StartChar: s
Encoding: 86 115 87
GlifName: s
Width: 570
VWidth: 0
Flags: MW
AnchorPoint: "LatinCedilla.mark" 310 0 basechar 0
AnchorPoint: "LatinBelow.mark" 285 0 basechar 0
AnchorPoint: "LatinAbove.mark" 285 0 basechar 0
LayerCount: 2
Fore
SplineSet
30 143 m 1
 185 163 l 1
 191 124 228 91 291 91 c 0
 352 91 388 118 388 162 c 0
 388 204 353 219 333 225 c 0
 289 238 228 254 185 270 c 0
 125 292 45 332 45 435 c 0
 45 539 140 621 285 621 c 0
 443 621 513 524 525 460 c 1
 370 440 l 1
 364 479 338 509 285 509 c 0
 233 509 197 483 197 441 c 0
 197 408 230 393 255 385 c 0
 296 372 360 354 393 344 c 0
 465 322 540 281 540 168 c 0
 540 62 442 -21 285 -21 c 0
 116 -21 42 77 30 143 c 1
EndSplineSet
PickledDataWithLists: "(dp0
Vcom.fontlab.hintData
p1
(dp2
Vvhints
p3
(lp4
(dp5
Vwidth
p6
L10L
sVposition
p7
L60L
sa(dp8
g6
L10L
sg7
L139L
sa(dp9
g6
L10L
sg7
L381L
sa(dp10
g6
L10L
sg7
L431L
sa(dp11
g6
L10L
sg7
L470L
sa(dp12
g6
L10L
sg7
L516L
sasVhhints
p13
(lp14
(dp15
g6
L10L
sg7
L-20L
sa(dp16
g6
L10L
sg7
L42L
sa(dp17
g6
L10L
sg7
L151L
sa(dp18
g6
L10L
sg7
L434L
sa(dp19
g6
L10L
sg7
L554L
sa(dp20
g6
L10L
sg7
L616L
sass."
Colour: ff00
EndChar

StartChar: t
Encoding: 87 116 88
GlifName: t
Width: 415
VWidth: 0
Flags: MW
AnchorPoint: "LatinCedilla.mark" 270 0 basechar 0
AnchorPoint: "LatinBelow.mark" 280 0 basechar 0
AnchorPoint: "LatinAbove.mark" 180 120 basechar 0
LayerCount: 2
Fore
SplineSet
20 500 m 1
 20 600 l 1
 106 600 l 1
 106 723 l 1
 257 735 l 1
 257 600 l 1
 390 600 l 1
 390 500 l 1
 260 500 l 1
 260 164 l 2
 260 111 270 98 299 98 c 0
 334 98 370 111 383 119 c 1
 420 15 l 1
 388 -1 342 -16 278 -16 c 0
 173 -16 100 27 100 140 c 2
 100 500 l 1
 20 500 l 1
EndSplineSet
PickledDataWithLists: "(dp0
Vcom.fontlab.hintData
p1
(dp2
Vvhints
p3
(lp4
(dp5
Vwidth
p6
L10L
sVposition
p7
L20L
sa(dp8
g6
L10L
sg7
L131L
sa(dp9
g6
L10L
sg7
L136L
sa(dp10
g6
L10L
sg7
L141L
sa(dp11
g6
L10L
sg7
L219L
sa(dp12
g6
L10L
sg7
L225L
sa(dp13
g6
L10L
sg7
L399L
sa(dp14
g6
L10L
sg7
L439L
sasVhhints
p15
(lp16
(dp17
g6
L10L
sg7
L-18L
sa(dp18
g6
L10L
sg7
L41L
sa(dp19
g6
L10L
sg7
L86L
sa(dp20
g6
L10L
sg7
L524L
sa(dp21
g6
L10L
sg7
L586L
sa(dp22
g6
L10L
sg7
L741L
sass."
Colour: ff00
EndChar

StartChar: u
Encoding: 88 117 89
GlifName: u
Width: 620
VWidth: 0
Flags: MW
AnchorPoint: "LatinOgonek.mark" 380 0 basechar 0
AnchorPoint: "LatinBelow.mark" 310 0 basechar 0
AnchorPoint: "LatinAbove.mark" 310 0 basechar 0
LayerCount: 2
Fore
SplineSet
50 194 m 2
 50 600 l 1
 210 600 l 1
 210 194 l 2
 210 118 256 93 310 93 c 0
 364 93 410 118 410 194 c 2
 410 600 l 1
 570 600 l 1
 570 194 l 2
 570 78 472 -21 310 -21 c 0
 148 -21 50 78 50 194 c 2
EndSplineSet
PickledDataWithLists: "(dp0
Vcom.fontlab.hintData
p1
(dp2
Vvhints
p3
(lp4
(dp5
Vwidth
p6
L10L
sVposition
p7
L81L
sa(dp8
g6
L10L
sg7
L86L
sa(dp9
g6
L10L
sg7
L174L
sa(dp10
g6
L10L
sg7
L471L
sa(dp11
g6
L10L
sg7
L649L
sasVhhints
p12
(lp13
(dp14
g6
L10L
sg7
L-21L
sa(dp15
g6
L10L
sg7
L-16L
sa(dp16
g6
L10L
sg7
L41L
sa(dp17
g6
L10L
sg7
L601L
sass."
EndChar

StartChar: v
Encoding: 89 118 90
GlifName: v
Width: 600
VWidth: 0
Flags: MW
AnchorPoint: "LatinBelow.mark" 300 0 basechar 0
AnchorPoint: "LatinAbove.mark" 300 0 basechar 0
LayerCount: 2
Fore
SplineSet
0 580 m 1
 0 588 l 1
 175 600 l 1
 300 205 l 1
 425 600 l 1
 600 588 l 1
 600 580 l 1
 365 0 l 1
 235 0 l 1
 0 580 l 1
EndSplineSet
PickledDataWithLists: "(dp0
Vcom.fontlab.hintData
p1
(dp2
Vvhints
p3
(lp4
(dp5
Vwidth
p6
L10L
sVposition
p7
L35L
sa(dp8
g6
L10L
sg7
L584L
sasVhhints
p9
(lp10
(dp11
g6
L10L
sg7
L-18L
sa(dp12
g6
L10L
sg7
L581L
sa(dp13
g6
L10L
sg7
L591L
sass."
Colour: ff00
EndChar

StartChar: w
Encoding: 90 119 91
GlifName: w
Width: 830
VWidth: 0
Flags: MW
AnchorPoint: "LatinBelow.mark" 415 0 basechar 0
AnchorPoint: "LatinAbove.mark" 415 0 basechar 0
LayerCount: 2
Fore
SplineSet
825 580 m 1
 652 0 l 1
 517 0 l 1
 415 362 l 1
 313 0 l 1
 178 0 l 1
 5 580 l 1
 5 588 l 1
 175 600 l 1
 259 236 l 1
 352 585 l 1
 478 585 l 1
 571 236 l 1
 655 600 l 1
 825 588 l 1
 825 580 l 1
EndSplineSet
PickledDataWithLists: "(dp0
Vcom.fontlab.hintData
p1
(dp2
Vvhints
p3
(lp4
(dp5
Vwidth
p6
L10L
sVposition
p7
L41L
sa(dp8
g6
L10L
sg7
L790L
sasVhhints
p9
(lp10
(dp11
g6
L10L
sg7
L-11L
sa(dp12
g6
L10L
sg7
L568L
sa(dp13
g6
L10L
sg7
L590L
sass."
Colour: ff00
EndChar

StartChar: x
Encoding: 91 120 92
GlifName: x
Width: 600
VWidth: 0
Flags: MW
AnchorPoint: "LatinBelow.mark" 300 0 basechar 0
AnchorPoint: "LatinAbove.mark" 300 0 basechar 0
LayerCount: 2
Fore
SplineSet
35 580 m 1
 35 588 l 1
 204 600 l 1
 300 428 l 1
 396 600 l 1
 565 588 l 1
 565 580 l 1
 387 323 l 1
 605 6 l 1
 605 0 l 1
 426 0 l 1
 300 193 l 1
 174 0 l 1
 -5 0 l 1
 -5 6 l 1
 213 323 l 1
 35 580 l 1
EndSplineSet
PickledDataWithLists: "(dp0
Vcom.fontlab.hintData
p1
(dp2
Vvhints
p3
(lp4
(dp5
Vwidth
p6
L10L
sVposition
p7
L26L
sa(dp8
g6
L10L
sg7
L71L
sa(dp9
g6
L10L
sg7
L524L
sa(dp10
g6
L10L
sg7
L559L
sasVhhints
p11
(lp12
(dp13
g6
L10L
sg7
L-6L
sa(dp14
g6
L10L
sg7
L5L
sa(dp15
g6
L10L
sg7
L591L
sass."
Colour: ff00
EndChar

StartChar: y
Encoding: 92 121 93
GlifName: y
Width: 600
VWidth: 0
Flags: MW
AnchorPoint: "LatinBelow.mark" 300 -180 basechar 0
AnchorPoint: "LatinAbove.mark" 300 0 basechar 0
LayerCount: 2
Fore
SplineSet
0 580 m 1
 0 588 l 1
 175 600 l 1
 302 200 l 1
 425 600 l 1
 600 588 l 1
 600 580 l 1
 365 -15 l 1
 315 -124 278 -231 138 -231 c 0
 80 -231 37 -209 10 -189 c 1
 85 -95 l 1
 100 -108 116 -121 133 -121 c 0
 172 -121 193 -81 232 8 c 1
 0 580 l 1
EndSplineSet
PickledDataWithLists: "(dp0
Vcom.fontlab.hintData
p1
(dp2
Vvhints
p3
(lp4
(dp5
Vwidth
p6
L10L
sVposition
p7
L56L
sa(dp8
g6
L10L
sg7
L130L
sasVhhints
p9
(lp10
(dp11
g6
L10L
sg7
L-257L
sa(dp12
g6
L10L
sg7
L-195L
sa(dp13
g6
L10L
sg7
L-164L
sa(dp14
g6
L10L
sg7
L4L
sa(dp15
g6
L10L
sg7
L584L
sa(dp16
g6
L10L
sg7
L595L
sass."
Colour: ff00
EndChar

StartChar: z
Encoding: 93 122 94
GlifName: z
Width: 530
VWidth: 0
Flags: MW
AnchorPoint: "LatinBelow.mark" 265 0 basechar 0
AnchorPoint: "LatinAbove.mark" 265 0 basechar 0
LayerCount: 2
Fore
SplineSet
15 79 m 1
 300 490 l 1
 40 490 l 1
 40 600 l 1
 500 600 l 1
 509 521 l 1
 224 110 l 1
 515 110 l 1
 515 0 l 1
 24 0 l 1
 15 79 l 1
EndSplineSet
PickledDataWithLists: "(dp0
Vcom.fontlab.hintData
p1
(dp2
Vvhints
p3
(lp4
(dp5
Vwidth
p6
L10L
sVposition
p7
L46L
sa(dp8
g6
L10L
sg7
L61L
sa(dp9
g6
L10L
sg7
L531L
sa(dp10
g6
L10L
sg7
L544L
sasVhhints
p11
(lp12
(dp13
g6
L10L
sg7
L-17L
sa(dp14
g6
L10L
sg7
L51L
sa(dp15
g6
L10L
sg7
L59L
sa(dp16
g6
L15L
sg7
L525L
sa(dp17
g6
L10L
sg7
L587L
sa(dp18
g6
L10L
sg7
L592L
sass."
Colour: ff00
EndChar

StartChar: braceleft
Encoding: 94 123 95
GlifName: braceleft
Width: 390
VWidth: 0
Flags: MW
LayerCount: 2
Fore
SplineSet
30 365 m 1
 30 390 l 1
 30 415 l 1
 76 429 125 457 125 540 c 0
 125 576 90 670 90 730 c 0
 90 817 149 900 270 900 c 2
 330 900 l 1
 330 820 l 1
 290 820 l 2
 271 820 230 813 230 720 c 0
 230 672 260 577 260 525 c 0
 260 453 226 411 173 390 c 1
 226 369 260 327 260 255 c 0
 260 203 230 108 230 60 c 0
 230 -33 271 -40 290 -40 c 2
 330 -40 l 1
 330 -120 l 1
 270 -120 l 2
 149 -120 90 -37 90 50 c 0
 90 110 125 204 125 240 c 0
 125 323 76 351 30 365 c 1
EndSplineSet
PickledDataWithLists: "(dp0
Vcom.fontlab.hintData
p1
(dp2
Vvhints
p3
(lp4
(dp5
Vwidth
p6
L10L
sVposition
p7
L22L
sa(dp8
g6
L10L
sg7
L112L
sa(dp9
g6
L10L
sg7
L128L
sa(dp10
g6
L10L
sg7
L182L
sa(dp11
g6
L10L
sg7
L197L
sa(dp12
g6
L10L
sg7
L205L
sa(dp13
g6
L10L
sg7
L289L
sasVhhints
p14
(lp15
(dp16
g6
L10L
sg7
L-89L
sa(dp17
g6
L10L
sg7
L-41L
sa(dp18
g6
L10L
sg7
L830L
sa(dp19
g6
L10L
sg7
L879L
sass."
EndChar

StartChar: bar
Encoding: 95 124 96
GlifName: bar
Width: 360
VWidth: 0
Flags: MW
LayerCount: 2
Fore
SplineSet
110 -120 m 1
 110 900 l 1
 250 900 l 1
 250 -120 l 1
 110 -120 l 1
EndSplineSet
PickledDataWithLists: "(dp0
Vcom.fontlab.hintData
p1
(dp2
Vvhints
p3
(lp4
(dp5
Vwidth
p6
L10L
sVposition
p7
L131L
sa(dp8
g6
L10L
sg7
L209L
sa(dp9
g6
L10L
sg7
L216L
sasVhhints
p10
(lp11
(dp12
g6
L10L
sg7
L-92L
sa(dp13
g6
L10L
sg7
L882L
sass."
EndChar

StartChar: asciitilde
Encoding: 97 126 98
GlifName: asciitilde
Width: 600
VWidth: 0
Flags: MW
LayerCount: 2
Fore
SplineSet
30 315 m 1
 62 409 100 505 204 505 c 0
 273 505 316 458 342 432 c 0
 372 402 389 390 401 390 c 0
 431 390 455 436 470 495 c 1
 570 465 l 1
 538 371 500 275 396 275 c 0
 327 275 284 322 258 348 c 0
 228 378 211 390 199 390 c 0
 169 390 145 344 130 285 c 1
 30 315 l 1
EndSplineSet
PickledDataWithLists: "(dp0
Vcom.fontlab.hintData
p1
(dp2
Vvhints
p3
(lp4
(dp5
Vwidth
p6
L10L
sVposition
p7
L51L
sa(dp8
g6
L10L
sg7
L539L
sasVhhints
p9
(lp10
(dp11
g6
L10L
sg7
L249L
sa(dp12
g6
L10L
sg7
L260L
sa(dp13
g6
L10L
sg7
L311L
sa(dp14
g6
L10L
sg7
L359L
sa(dp15
g6
L10L
sg7
L411L
sa(dp16
g6
L10L
sg7
L421L
sass."
EndChar

StartChar: copyright
Encoding: 107 169 100
GlifName: copyright
Width: 1020
VWidth: 0
Flags: MW
LayerCount: 2
Fore
SplineSet
685 498 m 1
 583 489 l 1
 579 514 554 538 521 538 c 0
 475 538 437 499 437 411 c 2
 437 395 l 2
 437 307 475 268 521 268 c 0
 554 268 579 292 583 317 c 1
 685 308 l 1
 677 268 633 197 521 197 c 0
 370 197 335 311 335 395 c 2
 335 411 l 2
 335 495 370 609 521 609 c 0
 633 609 677 538 685 498 c 1
510 -20 m 0
 245 -20 75 164 75 405 c 0
 75 646 245 830 510 830 c 0
 775 830 945 646 945 405 c 0
 945 164 775 -20 510 -20 c 0
510 60 m 0
 719 60 855 198 855 405 c 0
 855 612 719 750 510 750 c 0
 301 750 165 612 165 405 c 0
 165 198 301 60 510 60 c 0
EndSplineSet
PickledDataWithLists: "(dp0
Vcom.fontlab.hintData
p1
(dp2
Vvhints
p3
(lp4
(dp5
Vwidth
p6
L10L
sVposition
p7
L83L
sa(dp8
g6
L10L
sg7
L147L
sa(dp9
g6
L10L
sg7
L315L
sa(dp10
g6
L10L
sg7
L395L
sa(dp11
g6
L10L
sg7
L565L
sa(dp12
g6
L10L
sg7
L645L
sa(dp13
g6
L10L
sg7
L661L
sa(dp14
g6
L10L
sg7
L798L
sa(dp15
g6
L10L
sg7
L863L
sa(dp16
g6
L10L
sg7
L927L
sasVhhints
p17
(lp18
(dp19
g6
L10L
sg7
L-27L
sa(dp20
g6
L10L
sg7
L17L
sa(dp21
g6
L10L
sg7
L170L
sa(dp22
g6
L10L
sg7
L224L
sa(dp23
g6
L10L
sg7
L283L
sa(dp24
g6
L10L
sg7
L472L
sa(dp25
g6
L10L
sg7
L549L
sa(dp26
g6
L10L
sg7
L603L
sa(dp27
g6
L10L
sg7
L773L
sa(dp28
g6
L10L
sg7
L817L
sass."
EndChar

StartChar: registered
Encoding: 112 174 101
GlifName: registered
Width: 870
VWidth: 0
Flags: MW
LayerCount: 2
Fore
SplineSet
435 259 m 0
 220 259 84 408 84 600 c 0
 84 792 220 941 435 941 c 0
 650 941 786 792 786 600 c 0
 786 408 650 259 435 259 c 0
435 319 m 0
 602 319 714 430 714 600 c 0
 714 770 602 881 435 881 c 0
 268 881 156 770 156 600 c 0
 156 430 268 319 435 319 c 0
602 673 m 0
 602 613 558 570 490 556 c 1
 616 404 l 1
 616 400 l 1
 509 400 l 1
 388 551 l 2
 387 551 387 551 386 551 c 2
 386 400 l 1
 289 400 l 1
 289 555 l 1
 289 790 l 1
 289 790 365 795 434 795 c 0
 534 795 602 748 602 673 c 0
505 673 m 0
 505 720 463 727 412 727 c 0
 403 727 394 726 386 726 c 1
 386 619 l 1
 394 619 403 619 412 619 c 0
 463 619 505 626 505 673 c 0
EndSplineSet
PickledDataWithLists: "(dp0
Vcom.fontlab.hintData
p1
(dp2
Vvhints
p3
(lp4
(dp5
Vwidth
p6
L10L
sVposition
p7
L90L
sa(dp8
g6
L10L
sg7
L140L
sa(dp9
g6
L10L
sg7
L263L
sa(dp10
g6
L10L
sg7
L301L
sa(dp11
g6
L10L
sg7
L303L
sa(dp12
g6
L10L
sg7
L363L
sa(dp13
g6
L10L
sg7
L480L
sa(dp14
g6
L10L
sg7
L544L
sa(dp15
g6
L10L
sg7
L557L
sa(dp16
g6
L10L
sg7
L628L
sa(dp17
g6
L10L
sg7
L677L
sa(dp18
g6
L10L
sg7
L727L
sasVhhints
p19
(lp20
(dp21
g6
L10L
sg7
L319L
sa(dp22
g6
L10L
sg7
L351L
sa(dp23
g6
L10L
sg7
L469L
sa(dp24
g6
L20L
sg7
L596L
sa(dp25
g6
L10L
sg7
L644L
sa(dp26
g6
L10L
sg7
L654L
sa(dp27
g6
L11L
sg7
L725L
sa(dp28
g6
L10L
sg7
L757L
sa(dp29
g6
L10L
sg7
L799L
sa(dp30
g6
L10L
sg7
L919L
sa(dp31
g6
L10L
sg7
L951L
sass."
EndChar

StartChar: guillemotleft
Encoding: 109 171 102
GlifName: guillemotleft
Width: 780
VWidth: 0
Flags: HMW
LayerCount: 2
Fore
SplineSet
60 330 m 1
 60 390 l 1
 365 660 l 1
 420 580 l 1
 228 360 l 1
 420 140 l 1
 365 60 l 1
 60 330 l 1
360 330 m 1
 360 390 l 1
 665 660 l 1
 720 580 l 1
 528 360 l 1
 720 140 l 1
 665 60 l 1
 360 330 l 1
EndSplineSet
PickledDataWithLists: "(dp0
Vcom.fontlab.hintData
p1
(dp2
Vvhints
p3
(lp4
(dp5
Vwidth
p6
L10L
sVposition
p7
L66L
sa(dp8
g6
L10L
sg7
L336L
sa(dp9
g6
L10L
sg7
L356L
sa(dp10
g6
L10L
sg7
L368L
sa(dp11
g6
L10L
sg7
L626L
sa(dp12
g6
L10L
sg7
L638L
sasVhhints
p13
(lp14
(dp15
g6
L10L
sg7
L65L
sa(dp16
g6
L10L
sg7
L605L
sass."
EndChar

StartChar: figuredash
Encoding: 706 8210 113
GlifName: figuredash
Width: 660
VWidth: 0
Flags: MW
LayerCount: 2
Fore
SplineSet
75 420 m 25
 585 420 l 25
 585 300 l 25
 75 300 l 25
 75 420 l 25
EndSplineSet
PickledDataWithLists: "(dp0
Vcom.fontlab.hintData
p1
(dp2
Vvhints
p3
(lp4
(dp5
Vwidth
p6
L10L
sVposition
p7
L105L
sa(dp8
g6
L10L
sg7
L604L
sasVhhints
p9
(lp10
(dp11
g6
L10L
sg7
L301L
sa(dp12
g6
L10L
sg7
L364L
sa(dp13
g6
L10L
sg7
L371L
sass."
EndChar

StartChar: emdash
Encoding: 708 8212 116
GlifName: emdash
Width: 1200
VWidth: 0
Flags: MW
LayerCount: 2
Fore
SplineSet
75 420 m 25
 1125 420 l 25
 1125 300 l 25
 75 300 l 25
 75 420 l 25
EndSplineSet
PickledDataWithLists: "(dp0
Vcom.fontlab.hintData
p1
(dp2
Vvhints
p3
(lp4
(dp5
Vwidth
p6
L10L
sVposition
p7
L90L
sa(dp8
g6
L10L
sg7
L1099L
sasVhhints
p9
(lp10
(dp11
g6
L10L
sg7
L299L
sa(dp12
g6
L10L
sg7
L304L
sa(dp13
g6
L10L
sg7
L309L
sa(dp14
g6
L10L
sg7
L361L
sa(dp15
g6
L10L
sg7
L366L
sa(dp16
g6
L10L
sg7
L371L
sass."
EndChar

StartChar: bullet
Encoding: 718 8226 121
GlifName: bullet
Width: 660
VWidth: 0
Flags: MW
LayerCount: 2
Fore
SplineSet
187 360 m 0
 187 441 249 492 330 492 c 0
 411 492 473 441 473 360 c 0
 473 279 411 228 330 228 c 0
 249 228 187 279 187 360 c 0
EndSplineSet
PickledDataWithLists: "(dp0
Vcom.fontlab.hintData
p1
(dp2
Vvhints
p3
(lp4
(dp5
Vwidth
p6
L10L
sVposition
p7
L231L
sa(dp8
g6
L10L
sg7
L479L
sasVhhints
p9
(lp10
(dp11
g6
L10L
sg7
L234L
sa(dp12
g6
L10L
sg7
L456L
sass."
EndChar

StartChar: Euro
Encoding: 756 8364 124
GlifName: E_uro
Width: 660
VWidth: 0
Flags: MW
LayerCount: 2
Fore
SplineSet
0 270 m 1
 0 360 l 1
 80 360 l 1
 80 365 80 369 80 374 c 2
 80 406 l 2
 80 411 80 415 80 420 c 1
 0 420 l 1
 0 510 l 1
 87 510 l 1
 107 655 179 801 378 801 c 0
 565 801 629 655 640 583 c 1
 481 569 l 1
 472 629 430 679 378 679 c 0
 319 679 267 625 248 510 c 1
 480 510 l 1
 480 420 l 1
 240 420 l 1
 240 415 240 411 240 406 c 2
 240 374 l 2
 240 369 240 365 240 360 c 1
 480 360 l 1
 480 270 l 1
 248 270 l 1
 267 155 319 101 378 101 c 0
 430 101 472 151 481 211 c 1
 640 197 l 1
 629 125 565 -21 378 -21 c 0
 179 -21 107 125 87 270 c 1
 0 270 l 1
EndSplineSet
PickledDataWithLists: "(dp0
Vcom.fontlab.hintData
p1
(dp2
Vvhints
p3
(lp4
(dp5
Vwidth
p6
L10L
sVposition
p7
L21L
sa(dp8
g6
L10L
sg7
L115L
sa(dp9
g6
L10L
sg7
L203L
sa(dp10
g6
L10L
sg7
L484L
sa(dp11
g6
L10L
sg7
L659L
sasVhhints
p12
(lp13
(dp14
g6
L10L
sg7
L-15L
sa(dp15
g6
L9L
sg7
L48L
sa(dp16
g6
L10L
sg7
L165L
sa(dp17
g6
L10L
sg7
L268L
sa(dp18
g6
L10L
sg7
L323L
sa(dp19
g6
L10L
sg7
L448L
sa(dp20
g6
L10L
sg7
L453L
sa(dp21
g6
L10L
sg7
L503L
sa(dp22
g6
L10L
sg7
L590L
sa(dp23
g6
L10L
sg7
L745L
sa(dp24
g6
L10L
sg7
L806L
sass."
EndChar

StartChar: trademark
Encoding: 767 8482 125
GlifName: trademark
Width: 765
VWidth: 0
Flags: MW
LayerCount: 2
Fore
SplineSet
6 825 m 1
 6 900 l 1
 309 900 l 1
 309 825 l 1
 210 825 l 1
 210 510 l 1
 105 510 l 1
 105 825 l 1
 6 825 l 1
726 510 m 1
 622 510 l 1
 622 709 l 1
 568 608 l 1
 512 608 l 1
 458 709 l 1
 458 510 l 1
 354 510 l 1
 354 892 l 1
 438 900 l 1
 540 698 l 1
 642 900 l 1
 726 892 l 1
 726 510 l 1
EndSplineSet
PickledDataWithLists: "(dp0
Vcom.fontlab.hintData
p1
(dp2
Vvhints
p3
(lp4
(dp5
Vwidth
p6
L10L
sVposition
p7
L39L
sa(dp8
g6
L10L
sg7
L180L
sa(dp9
g6
L10L
sg7
L251L
sa(dp10
g6
L10L
sg7
L383L
sa(dp11
g6
L10L
sg7
L421L
sa(dp12
g6
L10L
sg7
L440L
sa(dp13
g6
L10L
sg7
L504L
sa(dp14
g6
L10L
sg7
L735L
sa(dp15
g6
L10L
sg7
L800L
sa(dp16
g6
L10L
sg7
L819L
sasVhhints
p17
(lp18
(dp19
g6
L10L
sg7
L381L
sa(dp20
g6
L10L
sg7
L390L
sa(dp21
g6
L10L
sg7
L395L
sa(dp22
g6
L10L
sg7
L473L
sa(dp23
g6
L10L
sg7
L745L
sa(dp24
g6
L10L
sg7
L751L
sa(dp25
g6
L10L
sg7
L803L
sass."
EndChar

StartChar: uni25CC
Encoding: 806 9676 126
GlifName: uni25C_C_
Width: 720
VWidth: 0
GlyphClass: 2
Flags: MW
AnchorPoint: "LatinCedilla.mark" 380 0 basechar 0
AnchorPoint: "LatinBelow.mark" 360 0 basechar 0
AnchorPoint: "LatinAbove.mark" 360 0 basechar 0
LayerCount: 2
Fore
SplineSet
390 15 m 0
 390 -2 377 -15 360 -15 c 0
 343 -15 330 -2 330 15 c 0
 330 32 343 45 360 45 c 0
 377 45 390 32 390 15 c 0
390 585 m 0
 390 568 377 555 360 555 c 0
 343 555 330 568 330 585 c 0
 330 602 343 615 360 615 c 0
 377 615 390 602 390 585 c 0
645 330 m 0
 662 330 675 317 675 300 c 0
 675 283 662 270 645 270 c 0
 628 270 615 283 615 300 c 0
 615 317 628 330 645 330 c 0
75 330 m 0
 92 330 105 317 105 300 c 0
 105 283 92 270 75 270 c 0
 58 270 45 283 45 300 c 0
 45 317 58 330 75 330 c 0
97 439 m 0
 114 439 127 426 127 409 c 0
 127 392 114 379 97 379 c 0
 80 379 67 392 67 409 c 0
 67 426 80 439 97 439 c 0
97 221 m 0
 114 221 127 208 127 191 c 0
 127 174 114 161 97 161 c 0
 80 161 67 174 67 191 c 0
 67 208 80 221 97 221 c 0
623 439 m 0
 640 439 653 426 653 409 c 0
 653 392 640 379 623 379 c 0
 606 379 593 392 593 409 c 0
 593 426 606 439 623 439 c 0
623 221 m 0
 640 221 653 208 653 191 c 0
 653 174 640 161 623 161 c 0
 606 161 593 174 593 191 c 0
 593 208 606 221 623 221 c 0
158 531 m 0
 175 531 188 518 188 501 c 0
 188 484 175 471 158 471 c 0
 141 471 128 484 128 501 c 0
 128 518 141 531 158 531 c 0
561 531 m 0
 578 531 591 518 591 501 c 0
 591 484 578 471 561 471 c 0
 544 471 531 484 531 501 c 0
 531 518 544 531 561 531 c 0
158 128 m 0
 175 128 188 115 188 98 c 0
 188 81 175 68 158 68 c 0
 141 68 128 81 128 98 c 0
 128 115 141 128 158 128 c 0
561 128 m 0
 578 128 591 115 591 98 c 0
 591 81 578 68 561 68 c 0
 544 68 531 81 531 98 c 0
 531 115 544 128 561 128 c 0
469 67 m 0
 486 67 499 54 499 37 c 0
 499 20 486 7 469 7 c 0
 452 7 439 20 439 37 c 0
 439 54 452 67 469 67 c 0
251 67 m 0
 268 67 281 54 281 37 c 0
 281 20 268 7 251 7 c 0
 234 7 221 20 221 37 c 0
 221 54 234 67 251 67 c 0
469 593 m 0
 486 593 499 580 499 563 c 0
 499 546 486 533 469 533 c 0
 452 533 439 546 439 563 c 0
 439 580 452 593 469 593 c 0
251 593 m 0
 268 593 281 580 281 563 c 0
 281 546 268 533 251 533 c 0
 234 533 221 546 221 563 c 0
 221 580 234 593 251 593 c 0
EndSplineSet
PickledDataWithLists: "(dp0
Vcom.fontlab.hintData
p1
(dp2
Vvhints
p3
(lp4
(dp5
Vwidth
p6
L10L
sVposition
p7
L40L
sa(dp8
g6
L10L
sg7
L76L
sa(dp9
g6
L10L
sg7
L90L
sa(dp10
g6
L10L
sg7
L132L
sa(dp11
g6
L10L
sg7
L180L
sa(dp12
g6
L10L
sg7
L238L
sa(dp13
g6
L10L
sg7
L325L
sa(dp14
g6
L10L
sg7
L385L
sa(dp15
g6
L10L
sg7
L472L
sa(dp16
g6
L10L
sg7
L528L
sa(dp17
g6
L10L
sg7
L581L
sa(dp18
g6
L10L
sg7
L620L
sa(dp19
g6
L10L
sg7
L631L
sa(dp20
g6
L10L
sg7
L670L
sasVhhints
p21
(lp22
(dp23
g6
L10L
sg7
L-20L
sa(dp24
g6
L10L
sg7
L16L
sa(dp25
g6
L10L
sg7
L30L
sa(dp26
g6
L10L
sg7
L69L
sa(dp27
g6
L10L
sg7
L122L
sa(dp28
g6
L10L
sg7
L178L
sa(dp29
g6
L10L
sg7
L265L
sa(dp30
g6
L10L
sg7
L325L
sa(dp31
g6
L10L
sg7
L410L
sa(dp32
g6
L10L
sg7
L468L
sa(dp33
g6
L10L
sg7
L518L
sa(dp34
g6
L10L
sg7
L560L
sa(dp35
g6
L10L
sg7
L574L
sa(dp36
g6
L10L
sg7
L610L
sass."
Colour: ff00
EndChar

StartChar: uni0E01
Encoding: 401 3585 127
GlifName: uni0E_01
Width: 655
VWidth: 0
GlyphClass: 2
Flags: MW
LayerCount: 2
Fore
SplineSet
85 0 m 1
 85 290 l 2
 85 336 107 369 149 385 c 1
 35 409 l 1
 50 514 141 621 315 621 c 0
 485 621 595 521 595 391 c 2
 595 0 l 1
 445 0 l 1
 445 391 l 2
 445 477 391 511 315 511 c 0
 258 511 216 487 196 439 c 1
 325 410 l 1
 310 350 l 1
 310 350 291 355 275 355 c 0
 240 355 235 330 235 305 c 2
 235 0 l 1
 85 0 l 1
EndSplineSet
PickledDataWithLists: "(dp0
Vcom.fontlab.hintData
p1
(dp2
Vvhints
p3
(lp4
(dp5
Vwidth
p6
L10L
sVposition
p7
L91L
sa(dp8
g6
L10L
sg7
L105L
sa(dp9
g6
L10L
sg7
L179L
sa(dp10
g6
L10L
sg7
L193L
sa(dp11
g6
L10L
sg7
L467L
sa(dp12
g6
L10L
sg7
L476L
sa(dp13
g6
L10L
sg7
L559L
sa(dp14
g6
L10L
sg7
L564L
sasVhhints
p15
(lp16
(dp17
g6
L10L
sg7
L-16L
sa(dp18
g6
L10L
sg7
L4L
sa(dp19
g6
L10L
sg7
L544L
sa(dp20
g6
L10L
sg7
L606L
sass."
EndChar

StartChar: uni0E02
Encoding: 402 3586 128
GlifName: uni0E_02
Width: 635
VWidth: 0
GlyphClass: 2
Flags: MW
LayerCount: 2
Fore
SplineSet
84 470 m 0
 84 451 95 437 115 437 c 0
 135 437 146 451 146 470 c 0
 146 489 135 503 115 503 c 0
 95 503 84 489 84 470 c 0
0 470 m 0
 0 546 68 615 194 615 c 0
 320 615 390 547 390 455 c 0
 390 320 250 272 250 167 c 0
 250 113 291 89 335 89 c 0
 378 89 420 110 420 184 c 2
 420 600 l 1
 570 600 l 1
 570 184 l 2
 570 74 484 -21 335 -21 c 0
 187 -21 100 57 100 155 c 0
 100 321 280 351 280 465 c 0
 280 508 253 532 205 538 c 1
 221 521 230 498 230 470 c 0
 230 405 180 365 115 365 c 0
 50 365 0 405 0 470 c 0
EndSplineSet
PickledDataWithLists: "(dp0
Vcom.fontlab.hintData
p1
(dp2
Vvhints
p3
(lp4
(dp5
Vwidth
p6
L10L
sVposition
p7
L14L
sa(dp8
g6
L10L
sg7
L547L
sasVhhints
p9
(lp10
(dp11
g6
L10L
sg7
L-19L
sa(dp12
g6
L10L
sg7
L432L
sa(dp13
g6
L10L
sg7
L584L
sa(dp14
g6
L10L
sg7
L594L
sass."
EndChar

StartChar: uni0E03
Encoding: 403 3587 129
GlifName: uni0E_03
Width: 635
VWidth: 0
GlyphClass: 2
Flags: MW
LayerCount: 2
Fore
SplineSet
84 506 m 0
 84 487 95 473 115 473 c 0
 135 473 146 487 146 506 c 0
 146 525 135 539 115 539 c 0
 95 539 84 525 84 506 c 0
282 461 m 1
 250 419 205 390 130 390 c 0
 52 390 0 436 0 506 c 0
 0 571 50 611 115 611 c 0
 180 611 224 571 224 506 c 0
 224 501 224 496 223 491 c 1
 250 520 271 560 285 600 c 1
 335 606 l 1
 358 589 390 538 390 470 c 0
 390 335 250 272 250 167 c 0
 250 113 291 89 335 89 c 0
 378 89 420 110 420 184 c 2
 420 600 l 1
 570 600 l 1
 570 184 l 2
 570 74 484 -21 335 -21 c 0
 187 -21 100 57 100 155 c 0
 100 308 258 349 282 461 c 1
EndSplineSet
PickledDataWithLists: "(dp0
Vcom.fontlab.hintData
p1
(dp2
Vvhints
p3
(lp4
(dp5
Vwidth
p6
L10L
sVposition
p7
L11L
sa(dp8
g6
L10L
sg7
L224L
sa(dp9
g6
L10L
sg7
L230L
sa(dp10
g6
L10L
sg7
L297L
sasVhhints
p11
(lp12
(dp13
g6
L10L
sg7
L-24L
sa(dp14
g6
L10L
sg7
L400L
sa(dp15
g6
L10L
sg7
L584L
sa(dp16
g6
L10L
sg7
L603L
sass."
EndChar

StartChar: uni0E04
Encoding: 404 3588 130
GlifName: uni0E_04
Width: 665
VWidth: 0
GlyphClass: 2
Flags: MW
LayerCount: 2
Fore
SplineSet
330 348 m 0
 310 348 299 334 299 315 c 0
 299 296 310 282 330 282 c 0
 350 282 361 296 361 315 c 0
 361 334 350 348 330 348 c 0
330 420 m 0
 395 420 445 380 445 315 c 0
 445 250 395 210 330 210 c 0
 298 210 270 220 250 237 c 1
 236 206 230 163 230 90 c 2
 230 0 l 1
 69 0 l 1
 69 0 79 69 79 115 c 0
 79 210 55 240 55 391 c 0
 55 520 162 621 330 621 c 0
 498 621 605 520 605 391 c 2
 605 0 l 1
 455 0 l 1
 455 90 l 2
 455 170 461 199 461 391 c 0
 461 478 407 511 330 511 c 0
 253 511 199 478 199 391 c 0
 199 362 199 337 199 315 c 1
 210 344 226 370 250 390 c 0
 271 408 298 420 330 420 c 0
EndSplineSet
PickledDataWithLists: "(dp0
Vcom.fontlab.hintData
p1
(dp2
Vvhints
p3
(lp4
(dp5
Vwidth
p6
L10L
sVposition
p7
L59L
sa(dp8
g6
L10L
sg7
L142L
sa(dp9
g6
L10L
sg7
L381L
sa(dp10
g6
L10L
sg7
L439L
sa(dp11
g6
L10L
sg7
L508L
sa(dp12
g6
L10L
sg7
L590L
sasVhhints
p13
(lp14
(dp15
g6
L10L
sg7
L-19L
sa(dp16
g6
L10L
sg7
L-4L
sa(dp17
g6
L10L
sg7
L363L
sa(dp18
g6
L10L
sg7
L551L
sa(dp19
g6
L10L
sg7
L608L
sass."
EndChar

StartChar: uni0E05
Encoding: 405 3589 131
GlifName: uni0E_05
Width: 665
VWidth: 0
GlyphClass: 2
Flags: MW
LayerCount: 2
Fore
SplineSet
330 348 m 0
 310 348 299 334 299 315 c 0
 299 296 310 282 330 282 c 0
 350 282 361 296 361 315 c 0
 361 334 350 348 330 348 c 0
330 420 m 0
 395 420 445 380 445 315 c 0
 445 250 395 210 330 210 c 0
 298 210 270 220 250 237 c 1
 236 206 230 163 230 90 c 2
 230 0 l 1
 69 0 l 1
 69 0 79 69 79 115 c 0
 79 210 55 240 55 391 c 0
 55 466 75 615 240 615 c 1
 330 540 l 1
 420 615 l 1
 585 615 605 466 605 391 c 2
 605 0 l 1
 455 0 l 1
 455 90 l 2
 455 170 461 199 461 391 c 0
 461 476 446 503 424 510 c 1
 346 450 l 1
 330 450 l 1
 314 450 l 1
 236 510 l 1
 214 503 199 476 199 391 c 0
 199 362 199 337 199 315 c 1
 210 344 226 370 250 390 c 0
 271 408 298 420 330 420 c 0
EndSplineSet
PickledDataWithLists: "(dp0
Vcom.fontlab.hintData
p1
(dp2
Vvhints
p3
(lp4
(dp5
Vwidth
p6
L10L
sVposition
p7
L60L
sa(dp8
g6
L10L
sg7
L142L
sa(dp9
g6
L10L
sg7
L444L
sa(dp10
g6
L10L
sg7
L508L
sa(dp11
g6
L10L
sg7
L590L
sasVhhints
p12
(lp13
(dp14
g6
L10L
sg7
L-18L
sa(dp15
g6
L10L
sg7
L-4L
sa(dp16
g6
L10L
sg7
L363L
sa(dp17
g6
L10L
sg7
L469L
sa(dp18
g6
L10L
sg7
L549L
sa(dp19
g6
L10L
sg7
L606L
sass."
EndChar

StartChar: uni0E06
Encoding: 406 3590 132
GlifName: uni0E_06
Width: 650
VWidth: 0
GlyphClass: 2
Flags: MW
LayerCount: 2
Fore
SplineSet
94 506 m 0
 94 487 105 473 125 473 c 0
 145 473 156 487 156 506 c 0
 156 525 145 539 125 539 c 0
 105 539 94 525 94 506 c 0
580 600 m 1
 580 0 l 1
 442 0 l 1
 406 48 358 94 279 112 c 1
 280 106 280 100 280 94 c 0
 280 29 230 -11 165 -11 c 0
 100 -11 50 29 50 94 c 0
 50 140 75 173 113 189 c 1
 134 315 270 357 292 460 c 1
 260 419 215 390 140 390 c 0
 62 390 10 436 10 506 c 0
 10 571 60 611 125 611 c 0
 190 611 234 571 234 506 c 0
 234 501 234 496 233 491 c 1
 260 520 281 560 295 600 c 1
 345 606 l 1
 368 589 400 538 400 470 c 0
 400 350 289 287 265 200 c 1
 339 189 393 159 433 127 c 1
 431 161 430 197 430 230 c 2
 430 600 l 1
 580 600 l 1
196 94 m 0
 196 113 185 127 165 127 c 0
 145 127 134 113 134 94 c 0
 134 75 145 61 165 61 c 0
 185 61 196 75 196 94 c 0
EndSplineSet
PickledDataWithLists: "(dp0
Vcom.fontlab.hintData
p1
(dp2
Vvhints
p3
(lp4
(dp5
Vwidth
p6
L10L
sVposition
p7
L11L
sa(dp8
g6
L10L
sg7
L35L
sa(dp9
g6
L10L
sg7
L110L
sa(dp10
g6
L10L
sg7
L239L
sa(dp11
g6
L10L
sg7
L251L
sa(dp12
g6
L10L
sg7
L317L
sa(dp13
g6
L10L
sg7
L325L
sa(dp14
g6
L10L
sg7
L486L
sa(dp15
g6
L10L
sg7
L494L
sa(dp16
g6
L10L
sg7
L566L
sa(dp17
g6
L10L
sg7
L576L
sasVhhints
p18
(lp19
(dp20
g6
L10L
sg7
L-27L
sa(dp21
g6
L10L
sg7
L223L
sa(dp22
g6
L10L
sg7
L277L
sa(dp23
g6
L10L
sg7
L403L
sa(dp24
g6
L10L
sg7
L598L
sa(dp25
g6
L10L
sg7
L608L
sass."
EndChar

StartChar: uni0E07
Encoding: 407 3591 133
GlifName: uni0E_07
Width: 525
VWidth: 0
GlyphClass: 2
Flags: MW
AnchorPoint: "ThaiAbove.mark" 545 0 basechar 0
LayerCount: 2
Fore
SplineSet
-5 318 m 1
 85 402 l 1
 326 127 l 1
 318 148 310 177 310 210 c 2
 310 285 l 2
 310 344 325 367 334 404 c 1
 325 402 315 401 305 401 c 0
 240 401 190 441 190 506 c 0
 190 571 240 611 305 611 c 0
 412 611 465 549 465 461 c 0
 465 407 455 344 455 270 c 2
 455 0 l 1
 295 0 l 1
 -5 318 l 1
274 506 m 0
 274 487 285 473 305 473 c 0
 325 473 336 487 336 506 c 0
 336 525 325 539 305 539 c 0
 285 539 274 525 274 506 c 0
EndSplineSet
PickledDataWithLists: "(dp0
Vcom.fontlab.hintData
p1
(dp2
Vvhints
p3
(lp4
(dp5
Vwidth
p6
L10L
sVposition
p7
L41L
sa(dp8
g6
L10L
sg7
L151L
sa(dp9
g6
L10L
sg7
L381L
sa(dp10
g6
L10L
sg7
L469L
sasVhhints
p11
(lp12
(dp13
g6
L10L
sg7
L-26L
sa(dp14
g6
L10L
sg7
L355L
sa(dp15
g6
L10L
sg7
L504L
sa(dp16
g6
L10L
sg7
L549L
sa(dp17
g6
L10L
sg7
L611L
sass."
EndChar

StartChar: uni0E08
Encoding: 408 3592 134
GlifName: uni0E_08
Width: 590
VWidth: 0
GlyphClass: 2
Flags: MW
AnchorPoint: "ThaiBelow.mark" 560 0 basechar 0
LayerCount: 2
Fore
SplineSet
221 255 m 0
 221 274 210 288 190 288 c 0
 170 288 159 274 159 255 c 0
 159 236 170 222 190 222 c 0
 210 222 221 236 221 255 c 0
475 90 m 2
 475 0 l 1
 315 0 l 1
 315 63 297 135 275 181 c 1
 254 161 224 150 190 150 c 0
 125 150 75 190 75 255 c 0
 75 320 125 360 190 360 c 0
 289 360 338 272 361 184 c 1
 366 265 385 306 385 409 c 0
 385 485 340 511 275 511 c 0
 215 511 174 481 165 414 c 1
 15 424 l 1
 28 521 113 621 275 621 c 0
 432 621 535 529 535 409 c 0
 535 265 475 194 475 90 c 2
EndSplineSet
PickledDataWithLists: "(dp0
Vcom.fontlab.hintData
p1
(dp2
Vvhints
p3
(lp4
(dp5
Vwidth
p6
L10L
sVposition
p7
L31L
sa(dp8
g6
L10L
sg7
L101L
sa(dp9
g6
L10L
sg7
L444L
sa(dp10
g6
L10L
sg7
L529L
sasVhhints
p11
(lp12
(dp13
g6
L10L
sg7
L-11L
sa(dp14
g6
L10L
sg7
L229L
sa(dp15
g6
L10L
sg7
L307L
sa(dp16
g6
L10L
sg7
L429L
sa(dp17
g6
L9L
sg7
L552L
sa(dp18
g6
L10L
sg7
L614L
sass."
EndChar

StartChar: uni0E09
Encoding: 409 3593 135
GlifName: uni0E_09
Width: 645
VWidth: 0
GlyphClass: 2
Flags: MW
LayerCount: 2
Fore
SplineSet
115 0 m 1
 115 109 l 2
 115 127 121 141 129 153 c 1
 80 164 45 201 45 255 c 0
 45 320 95 360 160 360 c 0
 225 360 275 320 275 255 c 0
 275 207 259 187 259 140 c 2
 259 123 l 1
 296 159 348 190 425 201 c 0
 425 204 425 207 425 210 c 2
 425 401 l 2
 425 482 376 511 305 511 c 0
 239 511 195 476 185 405 c 1
 35 417 l 1
 49 518 137 621 305 621 c 0
 468 621 575 526 575 401 c 2
 575 240 l 2
 575 218 565 202 552 189 c 1
 590 173 615 140 615 94 c 0
 615 29 565 -11 500 -11 c 0
 435 -11 385 29 385 94 c 0
 385 99 386 104 386 108 c 1
 324 88 286 45 253 0 c 1
 115 0 l 1
469 94 m 0
 469 75 480 61 500 61 c 0
 520 61 531 75 531 94 c 0
 531 113 520 127 500 127 c 0
 480 127 469 113 469 94 c 0
191 255 m 0
 191 274 180 288 160 288 c 0
 140 288 129 274 129 255 c 0
 129 236 140 222 160 222 c 0
 180 222 191 236 191 255 c 0
EndSplineSet
PickledDataWithLists: "(dp0
Vcom.fontlab.hintData
p1
(dp2
Vvhints
p3
(lp4
(dp5
Vwidth
p6
L10L
sVposition
p7
L33L
sa(dp8
g6
L10L
sg7
L87L
sa(dp9
g6
L10L
sg7
L156L
sa(dp10
g6
L10L
sg7
L410L
sa(dp11
g6
L10L
sg7
L426L
sa(dp12
g6
L10L
sg7
L480L
sa(dp13
g6
L10L
sg7
L498L
sa(dp14
g6
L10L
sg7
L570L
sa(dp15
g6
L10L
sg7
L640L
sasVhhints
p16
(lp17
(dp18
g6
L10L
sg7
L-19L
sa(dp19
g6
L10L
sg7
L29L
sa(dp20
g6
L10L
sg7
L231L
sa(dp21
g6
L10L
sg7
L279L
sa(dp22
g6
L10L
sg7
L318L
sa(dp23
g6
L10L
sg7
L431L
sa(dp24
g6
L10L
sg7
L557L
sa(dp25
g6
L10L
sg7
L616L
sass."
EndChar

StartChar: uni0E0A
Encoding: 410 3594 136
GlifName: uni0E_0A_
Width: 640
VWidth: 0
GlyphClass: 2
Flags: MW
LayerCount: 2
Fore
SplineSet
84 470 m 0
 84 451 95 437 115 437 c 0
 135 437 146 451 146 470 c 0
 146 489 135 503 115 503 c 0
 95 503 84 489 84 470 c 0
386 415 m 1
 362 309 250 261 250 167 c 0
 250 113 291 89 335 89 c 0
 378 89 420 110 420 184 c 2
 420 360 l 2
 420 390 412 407 386 415 c 1
570 360 m 2
 570 184 l 2
 570 74 484 -21 335 -21 c 0
 187 -21 100 57 100 155 c 0
 100 321 280 351 280 465 c 0
 280 508 253 532 205 538 c 1
 221 521 230 498 230 470 c 0
 230 405 180 365 115 365 c 0
 50 365 0 405 0 470 c 0
 0 546 68 615 194 615 c 0
 301 615 367 566 385 495 c 1
 450 509 470 552 470 627 c 1
 620 615 l 1
 620 541 573 482 493 455 c 1
 541 437 570 405 570 360 c 2
EndSplineSet
PickledDataWithLists: "(dp0
Vcom.fontlab.hintData
p1
(dp2
Vvhints
p3
(lp4
(dp5
Vwidth
p6
L10L
sVposition
p7
L44L
sa(dp8
g6
L10L
sg7
L186L
sa(dp9
g6
L10L
sg7
L197L
sa(dp10
g6
L10L
sg7
L268L
sa(dp11
g6
L10L
sg7
L279L
sa(dp12
g6
L10L
sg7
L473L
sa(dp13
g6
L10L
sg7
L555L
sa(dp14
g6
L10L
sg7
L586L
sasVhhints
p15
(lp16
(dp17
g6
L10L
sg7
L-29L
sa(dp18
g6
L10L
sg7
L29L
sa(dp19
g6
L10L
sg7
L437L
sa(dp20
g6
L10L
sg7
L599L
sa(dp21
g6
L10L
sg7
L644L
sass."
EndChar

StartChar: uni0E0B
Encoding: 411 3595 137
GlifName: uni0E_0B_
Width: 640
VWidth: 0
GlyphClass: 2
Flags: MW
LayerCount: 2
Fore
SplineSet
84 506 m 0
 84 487 95 473 115 473 c 0
 135 473 146 487 146 506 c 0
 146 525 135 539 115 539 c 0
 95 539 84 525 84 506 c 0
493 455 m 1
 541 437 570 405 570 360 c 2
 570 184 l 2
 570 74 484 -21 335 -21 c 0
 187 -21 100 57 100 155 c 0
 100 308 258 349 282 461 c 1
 250 419 205 390 130 390 c 0
 52 390 0 436 0 506 c 0
 0 571 50 611 115 611 c 0
 180 611 224 571 224 506 c 0
 224 501 224 496 223 491 c 1
 250 520 271 560 285 600 c 1
 335 606 l 1
 355 591 382 550 389 495 c 1
 452 509 470 554 470 627 c 1
 620 615 l 1
 620 541 573 482 493 455 c 1
420 360 m 2
 420 392 411 409 382 416 c 1
 352 316 250 257 250 167 c 0
 250 113 291 89 335 89 c 0
 378 89 420 110 420 184 c 2
 420 360 l 2
EndSplineSet
PickledDataWithLists: "(dp0
Vcom.fontlab.hintData
p1
(dp2
Vvhints
p3
(lp4
(dp5
Vwidth
p6
L10L
sVposition
p7
L11L
sa(dp8
g6
L10L
sg7
L199L
sa(dp9
g6
L10L
sg7
L226L
sa(dp10
g6
L10L
sg7
L278L
sa(dp11
g6
L10L
sg7
L296L
sa(dp12
g6
L10L
sg7
L474L
sa(dp13
g6
L10L
sg7
L556L
sa(dp14
g6
L10L
sg7
L586L
sasVhhints
p15
(lp16
(dp17
g6
L10L
sg7
L-24L
sa(dp18
g6
L10L
sg7
L34L
sa(dp19
g6
L10L
sg7
L398L
sa(dp20
g6
L10L
sg7
L603L
sa(dp21
g6
L10L
sg7
L608L
sa(dp22
g6
L10L
sg7
L644L
sass."
EndChar

StartChar: uni0E0C
Encoding: 412 3596 138
GlifName: uni0E_0C_
Width: 950
VWidth: 0
GlyphClass: 2
Flags: MW
LayerCount: 2
Fore
SplineSet
159 94 m 0
 159 75 170 61 190 61 c 0
 210 61 221 75 221 94 c 0
 221 113 210 127 190 127 c 0
 170 127 159 113 159 94 c 0
880 600 m 1
 880 0 l 1
 742 0 l 1
 709 47 673 92 605 111 c 1
 605 106 605 100 605 94 c 0
 605 29 555 -11 490 -11 c 0
 425 -11 375 29 375 94 c 0
 375 148 409 185 458 196 c 1
 450 208 445 222 445 240 c 2
 445 391 l 2
 445 477 391 511 315 511 c 0
 258 511 216 487 196 439 c 1
 325 410 l 1
 310 350 l 1
 310 350 291 355 275 355 c 0
 240 355 235 330 235 305 c 2
 235 240 l 2
 235 222 229 208 221 196 c 1
 270 185 305 148 305 94 c 0
 305 29 255 -11 190 -11 c 0
 125 -11 75 29 75 94 c 0
 75 142 85 163 85 210 c 2
 85 290 l 2
 85 336 107 369 149 385 c 1
 35 409 l 1
 50 514 141 621 315 621 c 0
 485 621 595 521 595 391 c 2
 595 210 l 2
 595 206 595 202 595 198 c 0
 657 186 701 158 733 128 c 1
 731 162 730 197 730 230 c 2
 730 600 l 1
 880 600 l 1
521 94 m 0
 521 113 510 127 490 127 c 0
 470 127 459 113 459 94 c 0
 459 75 470 61 490 61 c 0
 510 61 521 75 521 94 c 0
EndSplineSet
PickledDataWithLists: "(dp0
Vcom.fontlab.hintData
p1
(dp2
Vvhints
p3
(lp4
(dp5
Vwidth
p6
L10L
sVposition
p7
L84L
sa(dp8
g6
L10L
sg7
L93L
sa(dp9
g6
L10L
sg7
L114L
sa(dp10
g6
L10L
sg7
L166L
sa(dp11
g6
L10L
sg7
L196L
sa(dp12
g6
L10L
sg7
L343L
sa(dp13
g6
L10L
sg7
L414L
sa(dp14
g6
L10L
sg7
L502L
sa(dp15
g6
L10L
sg7
L507L
sa(dp16
g6
L10L
sg7
L576L
sa(dp17
g6
L10L
sg7
L780L
sa(dp18
g6
L10L
sg7
L789L
sa(dp19
g6
L10L
sg7
L861L
sa(dp20
g6
L10L
sg7
L871L
sasVhhints
p21
(lp22
(dp23
g6
L10L
sg7
L-26L
sa(dp24
g6
L10L
sg7
L-17L
sa(dp25
g6
L10L
sg7
L41L
sa(dp26
g6
L10L
sg7
L234L
sa(dp27
g6
L10L
sg7
L286L
sa(dp28
g6
L10L
sg7
L546L
sa(dp29
g6
L10L
sg7
L593L
sa(dp30
g6
L10L
sg7
L604L
sass."
EndChar

StartChar: uni0E0D
Encoding: 413 3597 139
GlifName: uni0E_0D_
Width: 950
VWidth: 0
GlyphClass: 2
Flags: HMW
LayerCount: 2
Fore
SplineSet
560 -121 m 0
 542 -121 532 -133 532 -150 c 0
 532 -167 542 -179 560 -179 c 0
 578 -179 588 -167 588 -150 c 0
 588 -133 578 -121 560 -121 c 0
560 -58 m 0
 617 -58 660 -93 660 -150 c 0
 660 -168 655 -183 648 -196 c 1
 650 -196 653 -196 655 -196 c 2
 665 -196 l 2
 719 -196 760 -172 760 -74 c 1
 870 -86 l 1
 870 -196 795 -266 685 -266 c 2
 615 -266 l 2
 523 -266 460 -223 460 -150 c 0
 460 -93 503 -58 560 -58 c 0
EndSplineSet
Refer: 140 63642 N 1 0 0 1 0 0 2
PickledDataWithLists: "(dp0
Vcom.fontlab.hintData
p1
(dp2
Vvhints
p3
(lp4
(dp5
Vwidth
p6
L10L
sVposition
p7
L81L
sa(dp8
g6
L10L
sg7
L101L
sa(dp9
g6
L10L
sg7
L169L
sa(dp10
g6
L10L
sg7
L189L
sa(dp11
g6
L10L
sg7
L315L
sa(dp12
g6
L10L
sg7
L471L
sa(dp13
g6
L10L
sg7
L476L
sa(dp14
g6
L10L
sg7
L513L
sa(dp15
g6
L10L
sg7
L559L
sa(dp16
g6
L10L
sg7
L564L
sa(dp17
g6
L10L
sg7
L591L
sa(dp18
g6
L10L
sg7
L771L
sa(dp19
g6
L10L
sg7
L781L
sa(dp20
g6
L10L
sg7
L859L
sa(dp21
g6
L10L
sg7
L869L
sa(dp22
g6
L10L
sg7
L879L
sasVhhints
p23
(lp24
(dp25
g6
L10L
sg7
L-252L
sa(dp26
g6
L10L
sg7
L-197L
sa(dp27
g6
L10L
sg7
L-98L
sa(dp28
g6
L10L
sg7
L-19L
sa(dp29
g6
L10L
sg7
L43L
sa(dp30
g6
L10L
sg7
L56L
sa(dp31
g6
L10L
sg7
L544L
sa(dp32
g6
L10L
sg7
L595L
sa(dp33
g6
L10L
sg7
L606L
sass."
Substitution2: "ThaiRC.rd subtable" uni0E0D.rd
Colour: ff00ff
EndChar

StartChar: uni0E0D.rd
Encoding: 832 63642 140
GlifName: uni0E_0D_.rd
Width: 950
VWidth: 0
GlyphClass: 2
Flags: MW
LayerCount: 2
Fore
SplineSet
159 94 m 0
 159 75 170 61 190 61 c 0
 210 61 221 75 221 94 c 0
 221 113 210 127 190 127 c 0
 170 127 159 113 159 94 c 0
315 621 m 0
 485 621 595 521 595 391 c 2
 595 170 l 2
 595 105 631 89 665 89 c 0
 699 89 735 105 735 170 c 2
 735 600 l 1
 885 600 l 1
 885 170 l 2
 885 69 805 -21 665 -21 c 0
 525 -21 445 69 445 170 c 2
 445 391 l 2
 445 477 391 511 315 511 c 0
 258 511 216 487 196 439 c 1
 325 410 l 1
 310 350 l 1
 310 350 291 355 275 355 c 0
 240 355 235 330 235 305 c 2
 235 240 l 2
 235 222 229 208 221 196 c 1
 270 185 305 148 305 94 c 0
 305 29 255 -11 190 -11 c 0
 125 -11 75 29 75 94 c 0
 75 142 85 163 85 210 c 2
 85 290 l 2
 85 336 107 369 149 385 c 1
 35 409 l 1
 50 514 141 621 315 621 c 0
EndSplineSet
PickledDataWithLists: "(dp0
Vcom.fontlab.hintData
p1
(dp2
Vvhints
p3
(lp4
(dp5
Vwidth
p6
L10L
sVposition
p7
L81L
sa(dp8
g6
L10L
sg7
L101L
sa(dp9
g6
L10L
sg7
L169L
sa(dp10
g6
L10L
sg7
L189L
sa(dp11
g6
L10L
sg7
L315L
sa(dp12
g6
L10L
sg7
L471L
sa(dp13
g6
L10L
sg7
L476L
sa(dp14
g6
L10L
sg7
L559L
sa(dp15
g6
L10L
sg7
L564L
sa(dp16
g6
L10L
sg7
L771L
sa(dp17
g6
L10L
sg7
L781L
sa(dp18
g6
L10L
sg7
L859L
sa(dp19
g6
L10L
sg7
L869L
sasVhhints
p20
(lp21
(dp22
g6
L10L
sg7
L-19L
sa(dp23
g6
L10L
sg7
L43L
sa(dp24
g6
L10L
sg7
L56L
sa(dp25
g6
L10L
sg7
L544L
sa(dp26
g6
L10L
sg7
L595L
sa(dp27
g6
L10L
sg7
L606L
sass."
EndChar

StartChar: uni0E0E
Encoding: 414 3598 141
GlifName: uni0E_0E_
Width: 665
VWidth: 0
GlyphClass: 2
Flags: MW
LayerCount: 2
Fore
SplineSet
181 94 m 0
 181 113 170 127 150 127 c 0
 130 127 119 113 119 94 c 0
 119 75 130 61 150 61 c 0
 170 61 181 75 181 94 c 0
325 621 m 0
 495 621 605 521 605 391 c 2
 605 -65 l 1
 605 -235 l 1
 470 -235 l 1
 424 -202 363 -169 310 -146 c 1
 310 -147 310 -149 310 -150 c 0
 310 -188 278 -250 200 -250 c 0
 130 -250 90 -205 90 -150 c 0
 90 -92 133 -50 205 -50 c 0
 267 -50 370 -90 458 -140 c 1
 456 -118 455 -93 455 -65 c 2
 455 391 l 2
 455 477 401 511 325 511 c 0
 268 511 227 487 207 440 c 1
 345 410 l 1
 330 350 l 1
 330 350 311 355 295 355 c 0
 260 355 255 330 255 305 c 2
 255 240 l 1
 255 210 l 2
 255 163 265 142 265 94 c 0
 265 29 215 -11 150 -11 c 0
 85 -11 35 29 35 94 c 0
 35 148 70 185 119 196 c 1
 111 208 105 222 105 240 c 2
 105 290 l 2
 105 336 126 368 168 384 c 1
 45 409 l 1
 60 514 151 621 325 621 c 0
234 -119 m 1
 224 -117 216 -115 210 -115 c 0
 195 -115 175 -121 175 -150 c 0
 175 -176 192 -185 205 -185 c 0
 229 -185 242 -169 242 -150 c 0
 242 -137 239 -127 234 -119 c 1
EndSplineSet
PickledDataWithLists: "(dp0
Vcom.fontlab.hintData
p1
(dp2
Vvhints
p3
(lp4
(dp5
Vwidth
p6
L10L
sVposition
p7
L26L
sa(dp8
g6
L10L
sg7
L81L
sa(dp9
g6
L10L
sg7
L126L
sa(dp10
g6
L10L
sg7
L219L
sa(dp11
g6
L10L
sg7
L470L
sa(dp12
g6
L10L
sg7
L476L
sa(dp13
g6
L10L
sg7
L556L
sa(dp14
g6
L10L
sg7
L564L
sasVhhints
p15
(lp16
(dp17
g6
L10L
sg7
L-242L
sa(dp18
g6
L10L
sg7
L-235L
sa(dp19
g6
L10L
sg7
L-137L
sa(dp20
g6
L10L
sg7
L-87L
sa(dp21
g6
L10L
sg7
L-16L
sa(dp22
g6
L10L
sg7
L66L
sa(dp23
g6
L10L
sg7
L544L
sa(dp24
g6
L10L
sg7
L606L
sass."
EndChar

StartChar: uni0E0F
Encoding: 415 3599 142
GlifName: uni0E_0F_
Width: 665
VWidth: 0
GlyphClass: 2
Flags: MW
LayerCount: 2
Fore
SplineSet
181 94 m 0
 181 113 170 127 150 127 c 0
 130 127 119 113 119 94 c 0
 119 75 130 61 150 61 c 0
 170 61 181 75 181 94 c 0
325 621 m 0
 495 621 605 521 605 391 c 2
 605 -65 l 1
 605 -235 l 1
 470 -235 l 1
 360 -148 l 1
 350 -163 337 -180 320 -195 c 0
 289 -222 244 -250 190 -250 c 0
 118 -250 75 -208 75 -150 c 0
 75 -95 115 -50 185 -50 c 0
 249 -50 282 -92 292 -128 c 1
 313 -99 325 -65 325 -65 c 2
 370 -65 l 1
 458 -137 l 1
 456 -116 455 -92 455 -65 c 2
 455 391 l 2
 455 477 401 511 325 511 c 0
 268 511 227 487 207 440 c 1
 345 410 l 1
 330 350 l 1
 330 350 311 355 295 355 c 0
 260 355 255 330 255 305 c 2
 255 240 l 1
 255 210 l 2
 255 163 265 142 265 94 c 0
 265 29 215 -11 150 -11 c 0
 85 -11 35 29 35 94 c 0
 35 148 70 185 119 196 c 1
 111 208 105 222 105 240 c 2
 105 290 l 2
 105 336 126 368 168 384 c 1
 45 409 l 1
 60 514 151 621 325 621 c 0
218 -182 m 1
 223 -174 227 -164 227 -150 c 0
 227 -131 214 -115 190 -115 c 0
 177 -115 160 -124 160 -150 c 0
 160 -179 180 -185 195 -185 c 0
 203 -185 210 -184 218 -182 c 1
EndSplineSet
PickledDataWithLists: "(dp0
Vcom.fontlab.hintData
p1
(dp2
Vvhints
p3
(lp4
(dp5
Vwidth
p6
L10L
sVposition
p7
L26L
sa(dp8
g6
L10L
sg7
L81L
sa(dp9
g6
L10L
sg7
L97L
sa(dp10
g6
L10L
sg7
L131L
sa(dp11
g6
L10L
sg7
L166L
sa(dp12
g6
L10L
sg7
L179L
sa(dp13
g6
L10L
sg7
L221L
sa(dp14
g6
L10L
sg7
L470L
sa(dp15
g6
L10L
sg7
L476L
sa(dp16
g6
L10L
sg7
L553L
sa(dp17
g6
L10L
sg7
L564L
sasVhhints
p18
(lp19
(dp20
g6
L10L
sg7
L-240L
sa(dp21
g6
L10L
sg7
L-234L
sa(dp22
g6
L10L
sg7
L-191L
sa(dp23
g6
L10L
sg7
L-88L
sa(dp24
g6
L10L
sg7
L-83L
sa(dp25
g6
L10L
sg7
L-16L
sa(dp26
g6
L10L
sg7
L66L
sa(dp27
g6
L10L
sg7
L544L
sa(dp28
g6
L10L
sg7
L606L
sass."
EndChar

StartChar: uni0E10
Encoding: 416 3600 143
GlifName: uni0E_10
Width: 555
VWidth: 0
GlyphClass: 2
Flags: HMW
AnchorPoint: "ThaiTone.mark" 535 0 basechar 0
AnchorPoint: "ThaiAbove.mark" 575 0 basechar 0
LayerCount: 2
Fore
SplineSet
415 -65 m 1
 525 -65 l 1
 525 -235 l 1
 430 -235 l 1
 347 -152 l 1
 337 -166 325 -181 310 -195 c 0
 279 -222 234 -250 180 -250 c 0
 108 -250 65 -208 65 -150 c 0
 65 -95 105 -50 175 -50 c 0
 239 -50 272 -92 282 -128 c 1
 303 -99 315 -65 315 -65 c 2
 360 -65 l 1
 417 -124 l 1
 416 -106 415 -86 415 -65 c 1
208 -182 m 1
 213 -174 217 -164 217 -150 c 0
 217 -131 204 -115 180 -115 c 0
 167 -115 150 -124 150 -150 c 0
 150 -179 170 -185 185 -185 c 0
 193 -185 200 -184 208 -182 c 1
EndSplineSet
Refer: 144 63646 N 1 0 0 1 0 0 2
PickledDataWithLists: "(dp0
Vcom.fontlab.hintData
p1
(dp2
Vvhints
p3
(lp4
(dp5
Vwidth
p6
L10L
sVposition
p7
L30L
sa(dp8
g6
L10L
sg7
L80L
sa(dp9
g6
L10L
sg7
L89L
sa(dp10
g6
L10L
sg7
L110L
sa(dp11
g6
L10L
sg7
L149L
sa(dp12
g6
L10L
sg7
L160L
sa(dp13
g6
L10L
sg7
L434L
sa(dp14
g6
L10L
sg7
L504L
sa(dp15
g6
L10L
sg7
L510L
sa(dp16
g6
L10L
sg7
L516L
sa(dp17
g6
L10L
sg7
L569L
sasVhhints
p18
(lp19
(dp20
g6
L10L
sg7
L-237L
sa(dp21
g6
L10L
sg7
L-229L
sa(dp22
g6
L10L
sg7
L-189L
sa(dp23
g6
L10L
sg7
L-92L
sa(dp24
g6
L10L
sg7
L-87L
sa(dp25
g6
L10L
sg7
L-72L
sa(dp26
g6
L10L
sg7
L-9L
sa(dp27
g6
L10L
sg7
L197L
sa(dp28
g6
L10L
sg7
L215L
sa(dp29
g6
L10L
sg7
L272L
sa(dp30
g6
L10L
sg7
L366L
sa(dp31
g6
L10L
sg7
L420L
sa(dp32
g6
L10L
sg7
L558L
sa(dp33
g6
L10L
sg7
L612L
sa(dp34
g6
L10L
sg7
L652L
sass."
Substitution2: "ThaiRC.rd subtable" uni0E10.rd
Colour: ff00ff
EndChar

StartChar: uni0E10.rd
Encoding: 836 63646 144
GlifName: uni0E_10.rd
Width: 555
VWidth: 0
GlyphClass: 2
Flags: MW
AnchorPoint: "ThaiBelow.mark" 510 0 basechar 0
AnchorPoint: "ThaiTone.mark" 535 0 basechar 0
AnchorPoint: "ThaiAbove.mark" 575 0 basechar 0
LayerCount: 2
Fore
SplineSet
181 225 m 0
 181 244 170 258 150 258 c 0
 130 258 119 244 119 225 c 0
 119 206 130 192 150 192 c 0
 170 192 181 206 181 225 c 0
326 147 m 1
 330 188 340 234 340 276 c 0
 340 355 244 381 35 381 c 1
 35 416 l 2
 35 536 129 621 265 621 c 0
 333 621 381 598 413 572 c 1
 415 577 418 582 420 586 c 2
 435 615 l 1
 545 594 l 1
 545 588 l 1
 450 470 l 1
 405 470 l 1
 388 491 353 521 290 521 c 0
 241 521 192 504 179 448 c 1
 363 438 485 402 485 296 c 0
 485 223 435 137 435 60 c 2
 435 0 l 1
 275 0 l 1
 275 57 262 117 243 159 c 1
 222 134 189 120 150 120 c 0
 85 120 35 160 35 225 c 0
 35 290 85 330 150 330 c 0
 257 330 305 236 326 147 c 1
EndSplineSet
PickledDataWithLists: "(dp0
Vcom.fontlab.hintData
p1
(dp2
Vvhints
p3
(lp4
(dp5
Vwidth
p6
L10L
sVposition
p7
L30L
sa(dp8
g6
L10L
sg7
L89L
sa(dp9
g6
L10L
sg7
L110L
sa(dp10
g6
L10L
sg7
L430L
sa(dp11
g6
L10L
sg7
L510L
sa(dp12
g6
L10L
sg7
L569L
sasVhhints
p13
(lp14
(dp15
g6
L10L
sg7
L-9L
sa(dp16
g6
L10L
sg7
L197L
sa(dp17
g6
L10L
sg7
L215L
sa(dp18
g6
L10L
sg7
L272L
sa(dp19
g6
L10L
sg7
L366L
sa(dp20
g6
L10L
sg7
L420L
sa(dp21
g6
L10L
sg7
L558L
sa(dp22
g6
L10L
sg7
L612L
sa(dp23
g6
L10L
sg7
L652L
sass."
EndChar

StartChar: uni0E11
Encoding: 417 3601 145
GlifName: uni0E_11
Width: 665
VWidth: 0
GlyphClass: 2
Flags: MW
LayerCount: 2
Fore
SplineSet
115 0 m 1
 115 155 l 2
 115 309 260 349 282 461 c 1
 250 419 206 390 130 390 c 0
 52 390 0 436 0 506 c 0
 0 571 50 611 115 611 c 0
 180 611 224 571 224 506 c 0
 224 501 224 496 223 491 c 1
 250 520 271 560 285 600 c 1
 335 606 l 1
 350 595 370 569 381 532 c 1
 415 579 456 611 500 611 c 0
 592 611 600 525 600 480 c 2
 600 0 l 1
 450 0 l 1
 450 452 l 2
 450 464 448 481 440 485 c 1
 424 475 403 450 384 419 c 1
 359 317 265 258 265 167 c 2
 265 0 l 1
 115 0 l 1
84 506 m 0
 84 487 95 473 115 473 c 0
 135 473 146 487 146 506 c 0
 146 525 135 539 115 539 c 0
 95 539 84 525 84 506 c 0
EndSplineSet
PickledDataWithLists: "(dp0
Vcom.fontlab.hintData
p1
(dp2
Vvhints
p3
(lp4
(dp5
Vwidth
p6
L10L
sVposition
p7
L11L
sa(dp8
g6
L10L
sg7
L161L
sa(dp9
g6
L10L
sg7
L235L
sa(dp10
g6
L10L
sg7
L283L
sa(dp11
g6
L10L
sg7
L524L
sa(dp12
g6
L10L
sg7
L529L
sa(dp13
g6
L10L
sg7
L606L
sa(dp14
g6
L10L
sg7
L608L
sasVhhints
p15
(lp16
(dp17
g6
L10L
sg7
L-15L
sa(dp18
g6
L10L
sg7
L-8L
sa(dp19
g6
L10L
sg7
L398L
sa(dp20
g6
L10L
sg7
L602L
sa(dp21
g6
L10L
sg7
L611L
sass."
EndChar

StartChar: uni0E12
Encoding: 418 3602 146
GlifName: uni0E_12
Width: 960
VWidth: 0
GlyphClass: 2
Flags: MW
LayerCount: 2
Fore
SplineSet
890 600 m 1
 890 0 l 1
 752 0 l 1
 719 47 683 92 615 111 c 1
 615 106 615 100 615 94 c 0
 615 29 565 -11 500 -11 c 0
 435 -11 385 29 385 94 c 0
 385 150 422 186 473 196 c 1
 466 208 461 222 461 240 c 2
 461 391 l 2
 461 476 446 504 424 510 c 1
 346 450 l 1
 330 450 l 1
 314 450 l 1
 236 510 l 1
 213 504 193 476 193 391 c 0
 193 254 210 222 210 160 c 0
 210 145 209 131 208 118 c 1
 243 156 287 181 320 210 c 1
 260 214 215 253 215 315 c 0
 215 380 265 420 330 420 c 0
 395 420 445 380 445 315 c 0
 445 160 271 117 240 0 c 1
 69 0 l 1
 69 0 79 69 79 115 c 0
 79 210 55 240 55 391 c 0
 55 466 75 615 240 615 c 1
 330 540 l 1
 420 615 l 1
 585 615 605 466 605 391 c 2
 605 210 l 2
 605 206 605 202 605 198 c 0
 667 186 711 158 743 128 c 1
 741 162 740 197 740 230 c 2
 740 600 l 1
 890 600 l 1
531 94 m 0
 531 113 520 127 500 127 c 0
 480 127 469 113 469 94 c 0
 469 75 480 61 500 61 c 0
 520 61 531 75 531 94 c 0
330 282 m 0
 350 282 361 296 361 315 c 0
 361 334 350 348 330 348 c 0
 310 348 299 334 299 315 c 0
 299 296 310 282 330 282 c 0
EndSplineSet
PickledDataWithLists: "(dp0
Vcom.fontlab.hintData
p1
(dp2
Vvhints
p3
(lp4
(dp5
Vwidth
p6
L10L
sVposition
p7
L64L
sa(dp8
g6
L10L
sg7
L146L
sa(dp9
g6
L10L
sg7
L322L
sa(dp10
g6
L10L
sg7
L328L
sa(dp11
g6
L10L
sg7
L375L
sa(dp12
g6
L10L
sg7
L445L
sa(dp13
g6
L10L
sg7
L535L
sa(dp14
g6
L10L
sg7
L605L
sa(dp15
g6
L10L
sg7
L781L
sa(dp16
g6
L10L
sg7
L789L
sa(dp17
g6
L10L
sg7
L861L
sa(dp18
g6
L10L
sg7
L871L
sasVhhints
p19
(lp20
(dp21
g6
L10L
sg7
L-19L
sa(dp22
g6
L10L
sg7
L-15L
sa(dp23
g6
L10L
sg7
L37L
sa(dp24
g6
L10L
sg7
L241L
sa(dp25
g6
L10L
sg7
L289L
sa(dp26
g6
L10L
sg7
L412L
sa(dp27
g6
L10L
sg7
L546L
sa(dp28
g6
L10L
sg7
L587L
sa(dp29
g6
L10L
sg7
L593L
sa(dp30
g6
L10L
sg7
L603L
sass."
EndChar

StartChar: uni0E13
Encoding: 419 3603 147
GlifName: uni0E_13
Width: 960
VWidth: 0
GlyphClass: 2
Flags: MW
LayerCount: 2
Fore
SplineSet
159 94 m 0
 159 75 170 61 190 61 c 0
 210 61 221 75 221 94 c 0
 221 113 210 127 190 127 c 0
 170 127 159 113 159 94 c 0
779 94 m 0
 779 75 790 61 810 61 c 0
 830 61 841 75 841 94 c 0
 841 113 830 127 810 127 c 0
 790 127 779 113 779 94 c 0
885 600 m 1
 885 240 l 2
 885 218 875 202 862 189 c 1
 900 173 925 140 925 94 c 0
 925 29 875 -11 810 -11 c 0
 745 -11 695 29 695 94 c 0
 695 98 696 102 696 106 c 1
 643 85 612 43 583 0 c 1
 445 0 l 1
 445 391 l 2
 445 477 391 511 315 511 c 0
 258 511 216 487 196 439 c 1
 325 410 l 1
 310 350 l 1
 310 350 291 355 275 355 c 0
 240 355 235 330 235 305 c 2
 235 240 l 2
 235 222 229 208 221 196 c 1
 270 185 305 148 305 94 c 0
 305 29 255 -11 190 -11 c 0
 125 -11 75 29 75 94 c 0
 75 142 85 163 85 210 c 2
 85 290 l 2
 85 336 107 369 149 385 c 1
 35 409 l 1
 50 514 141 621 315 621 c 0
 485 621 595 521 595 391 c 2
 595 230 l 2
 595 199 594 165 592 133 c 1
 625 164 670 191 734 201 c 0
 734 204 735 207 735 210 c 2
 735 600 l 1
 885 600 l 1
EndSplineSet
PickledDataWithLists: "(dp0
Vcom.fontlab.hintData
p1
(dp2
Vvhints
p3
(lp4
(dp5
Vwidth
p6
L10L
sVposition
p7
L84L
sa(dp8
g6
L10L
sg7
L104L
sa(dp9
g6
L10L
sg7
L166L
sa(dp10
g6
L10L
sg7
L186L
sa(dp11
g6
L10L
sg7
L311L
sa(dp12
g6
L10L
sg7
L454L
sa(dp13
g6
L10L
sg7
L469L
sa(dp14
g6
L10L
sg7
L540L
sa(dp15
g6
L10L
sg7
L551L
sa(dp16
g6
L10L
sg7
L709L
sa(dp17
g6
L10L
sg7
L780L
sa(dp18
g6
L10L
sg7
L816L
sa(dp19
g6
L10L
sg7
L865L
sa(dp20
g6
L10L
sg7
L935L
sasVhhints
p21
(lp22
(dp23
g6
L10L
sg7
L-17L
sa(dp24
g6
L10L
sg7
L29L
sa(dp25
g6
L10L
sg7
L41L
sa(dp26
g6
L10L
sg7
L54L
sa(dp27
g6
L10L
sg7
L241L
sa(dp28
g6
L10L
sg7
L289L
sa(dp29
g6
L10L
sg7
L546L
sa(dp30
g6
L10L
sg7
L594L
sa(dp31
g6
L10L
sg7
L604L
sass."
EndChar

StartChar: uni0E14
Encoding: 420 3604 148
GlifName: uni0E_14
Width: 665
VWidth: 0
GlyphClass: 2
Flags: MW
LayerCount: 2
Fore
SplineSet
330 282 m 0
 350 282 361 296 361 315 c 0
 361 334 350 348 330 348 c 0
 310 348 299 334 299 315 c 0
 299 296 310 282 330 282 c 0
455 0 m 1
 455 90 l 2
 455 170 461 199 461 391 c 0
 461 478 407 511 330 511 c 0
 253 511 193 478 193 391 c 0
 193 254 210 222 210 160 c 0
 210 145 209 131 208 118 c 1
 243 156 287 181 320 210 c 1
 260 214 215 253 215 315 c 0
 215 380 265 420 330 420 c 0
 395 420 445 380 445 315 c 0
 445 160 271 117 240 0 c 1
 69 0 l 1
 69 0 79 69 79 115 c 0
 79 210 55 240 55 391 c 0
 55 520 162 621 330 621 c 0
 498 621 605 520 605 391 c 2
 605 0 l 1
 455 0 l 1
EndSplineSet
PickledDataWithLists: "(dp0
Vcom.fontlab.hintData
p1
(dp2
Vvhints
p3
(lp4
(dp5
Vwidth
p6
L10L
sVposition
p7
L60L
sa(dp8
g6
L10L
sg7
L149L
sa(dp9
g6
L10L
sg7
L306L
sa(dp10
g6
L10L
sg7
L394L
sa(dp11
g6
L10L
sg7
L495L
sa(dp12
g6
L10L
sg7
L501L
sa(dp13
g6
L10L
sg7
L584L
sa(dp14
g6
L10L
sg7
L589L
sasVhhints
p15
(lp16
(dp17
g6
L10L
sg7
L-23L
sa(dp18
g6
L10L
sg7
L-15L
sa(dp19
g6
L10L
sg7
L40L
sa(dp20
g6
L10L
sg7
L140L
sa(dp21
g6
L10L
sg7
L547L
sa(dp22
g6
L10L
sg7
L609L
sass."
EndChar

StartChar: uni0E15
Encoding: 421 3605 149
GlifName: uni0E_15
Width: 665
VWidth: 0
GlyphClass: 2
Flags: MW
LayerCount: 2
Fore
SplineSet
330 282 m 0
 350 282 361 296 361 315 c 0
 361 334 350 348 330 348 c 0
 310 348 299 334 299 315 c 0
 299 296 310 282 330 282 c 0
455 0 m 1
 455 90 l 2
 455 170 461 199 461 391 c 0
 461 476 446 503 424 510 c 1
 346 450 l 1
 330 450 l 1
 314 450 l 1
 236 510 l 1
 213 503 193 476 193 391 c 0
 193 254 210 222 210 160 c 0
 210 145 209 131 208 118 c 1
 243 156 287 181 320 210 c 1
 260 214 215 253 215 315 c 0
 215 380 265 420 330 420 c 0
 395 420 445 380 445 315 c 0
 445 160 271 117 240 0 c 1
 69 0 l 1
 69 0 79 69 79 115 c 0
 79 210 55 240 55 391 c 0
 55 466 75 615 240 615 c 1
 330 540 l 1
 420 615 l 1
 585 615 605 466 605 391 c 2
 605 0 l 1
 455 0 l 1
EndSplineSet
PickledDataWithLists: "(dp0
Vcom.fontlab.hintData
p1
(dp2
Vvhints
p3
(lp4
(dp5
Vwidth
p6
L10L
sVposition
p7
L64L
sa(dp8
g6
L10L
sg7
L146L
sa(dp9
g6
L10L
sg7
L309L
sa(dp10
g6
L10L
sg7
L332L
sa(dp11
g6
L10L
sg7
L337L
sa(dp12
g6
L10L
sg7
L391L
sa(dp13
g6
L10L
sg7
L405L
sa(dp14
g6
L10L
sg7
L513L
sa(dp15
g6
L10L
sg7
L597L
sa(dp16
g6
L10L
sg7
L602L
sasVhhints
p17
(lp18
(dp19
g6
L10L
sg7
L-21L
sa(dp20
g6
L10L
sg7
L-13L
sa(dp21
g6
L10L
sg7
L36L
sa(dp22
g6
L10L
sg7
L133L
sa(dp23
g6
L10L
sg7
L412L
sa(dp24
g6
L10L
sg7
L546L
sa(dp25
g6
L10L
sg7
L590L
sa(dp26
g6
L10L
sg7
L603L
sass."
EndChar

StartChar: uni0E16
Encoding: 422 3606 150
GlifName: uni0E_16
Width: 655
VWidth: 0
GlyphClass: 2
Flags: MW
LayerCount: 2
Fore
SplineSet
159 94 m 0
 159 75 170 61 190 61 c 0
 210 61 221 75 221 94 c 0
 221 113 210 127 190 127 c 0
 170 127 159 113 159 94 c 0
221 196 m 1
 270 185 305 148 305 94 c 0
 305 29 255 -11 190 -11 c 0
 125 -11 75 29 75 94 c 0
 75 142 85 163 85 210 c 2
 85 290 l 2
 85 336 107 369 149 385 c 1
 35 409 l 1
 50 514 141 621 315 621 c 0
 485 621 595 521 595 391 c 2
 595 0 l 1
 445 0 l 1
 445 391 l 2
 445 477 391 511 315 511 c 0
 258 511 216 487 196 439 c 1
 325 410 l 1
 310 350 l 1
 310 350 291 355 275 355 c 0
 240 355 235 330 235 305 c 2
 235 240 l 2
 235 222 229 208 221 196 c 1
EndSplineSet
PickledDataWithLists: "(dp0
Vcom.fontlab.hintData
p1
(dp2
Vvhints
p3
(lp4
(dp5
Vwidth
p6
L10L
sVposition
p7
L81L
sa(dp8
g6
L10L
sg7
L86L
sa(dp9
g6
L10L
sg7
L111L
sa(dp10
g6
L10L
sg7
L169L
sa(dp11
g6
L10L
sg7
L199L
sa(dp12
g6
L10L
sg7
L315L
sa(dp13
g6
L10L
sg7
L465L
sa(dp14
g6
L10L
sg7
L476L
sa(dp15
g6
L10L
sg7
L556L
sa(dp16
g6
L10L
sg7
L564L
sasVhhints
p17
(lp18
(dp19
g6
L10L
sg7
L-19L
sa(dp20
g6
L10L
sg7
L43L
sa(dp21
g6
L10L
sg7
L56L
sa(dp22
g6
L10L
sg7
L544L
sa(dp23
g6
L10L
sg7
L606L
sass."
EndChar

StartChar: uni0E17
Encoding: 423 3607 151
GlifName: uni0E_17
Width: 660
VWidth: 0
GlyphClass: 2
Flags: MW
LayerCount: 2
Fore
SplineSet
255 0 m 1
 105 0 l 1
 105 360 l 2
 105 378 111 392 119 404 c 1
 70 415 35 452 35 506 c 0
 35 571 85 611 150 611 c 0
 215 611 265 571 265 506 c 0
 265 458 255 437 255 390 c 2
 255 360 l 1
 296 488 362 611 465 611 c 0
 569 611 595 525 595 480 c 2
 595 0 l 1
 445 0 l 1
 445 452 l 2
 445 464 443 481 435 485 c 1
 353 438 271 177 255 75 c 1
 255 0 l 1
181 506 m 0
 181 525 170 539 150 539 c 0
 130 539 119 525 119 506 c 0
 119 487 130 473 150 473 c 0
 170 473 181 487 181 506 c 0
EndSplineSet
PickledDataWithLists: "(dp0
Vcom.fontlab.hintData
p1
(dp2
Vvhints
p3
(lp4
(dp5
Vwidth
p6
L10L
sVposition
p7
L58L
sa(dp8
g6
L10L
sg7
L104L
sa(dp9
g6
L10L
sg7
L479L
sa(dp10
g6
L10L
sg7
L484L
sa(dp11
g6
L10L
sg7
L561L
sa(dp12
g6
L10L
sg7
L566L
sasVhhints
p13
(lp14
(dp15
g6
L10L
sg7
L-13L
sa(dp16
g6
L10L
sg7
L-8L
sa(dp17
g6
L10L
sg7
L546L
sa(dp18
g6
L10L
sg7
L604L
sass."
EndChar

StartChar: uni0E18
Encoding: 424 3608 152
GlifName: uni0E_18
Width: 585
VWidth: 0
GlyphClass: 2
Flags: MW
AnchorPoint: "ThaiTone.mark" 565 0 basechar 0
LayerCount: 2
Fore
SplineSet
560 588 m 1
 465 470 l 1
 420 470 l 1
 403 491 368 521 305 521 c 0
 255 521 205 504 193 444 c 1
 386 436 530 402 530 296 c 2
 530 184 l 2
 530 74 444 -21 295 -21 c 0
 146 -21 60 74 60 184 c 2
 60 300 l 1
 210 300 l 1
 210 184 l 2
 210 110 252 89 295 89 c 0
 338 89 380 110 380 184 c 2
 380 276 l 2
 380 355 259 371 50 371 c 1
 50 416 l 2
 50 536 144 621 280 621 c 0
 348 621 397 597 429 571 c 1
 431 576 433 582 435 586 c 2
 450 615 l 1
 560 594 l 1
 560 588 l 1
EndSplineSet
PickledDataWithLists: "(dp0
Vcom.fontlab.hintData
p1
(dp2
Vvhints
p3
(lp4
(dp5
Vwidth
p6
L10L
sVposition
p7
L64L
sa(dp8
g6
L10L
sg7
L109L
sa(dp9
g6
L10L
sg7
L146L
sa(dp10
g6
L10L
sg7
L195L
sa(dp11
g6
L10L
sg7
L430L
sa(dp12
g6
L10L
sg7
L513L
sasVhhints
p13
(lp14
(dp15
g6
L10L
sg7
L-14L
sa(dp16
g6
L10L
sg7
L44L
sa(dp17
g6
L10L
sg7
L294L
sa(dp18
g6
L10L
sg7
L496L
sa(dp19
g6
L10L
sg7
L555L
sa(dp20
g6
L10L
sg7
L612L
sass."
EndChar

StartChar: uni0E19
Encoding: 425 3609 153
GlifName: uni0E_19
Width: 650
VWidth: 0
GlyphClass: 2
Flags: MW
LayerCount: 2
Fore
SplineSet
469 94 m 0
 469 75 480 61 500 61 c 0
 520 61 531 75 531 94 c 0
 531 113 520 127 500 127 c 0
 480 127 469 113 469 94 c 0
575 600 m 1
 575 240 l 2
 575 218 565 202 552 189 c 1
 590 173 615 140 615 94 c 0
 615 29 565 -11 500 -11 c 0
 435 -11 385 29 385 94 c 0
 385 99 385 104 386 109 c 1
 317 89 277 46 243 0 c 1
 105 0 l 1
 105 360 l 2
 105 378 111 392 119 404 c 1
 70 415 35 452 35 506 c 0
 35 571 85 611 150 611 c 0
 215 611 265 571 265 506 c 0
 265 458 255 437 255 390 c 2
 255 230 l 2
 255 198 254 163 252 130 c 1
 292 163 347 193 425 202 c 0
 425 205 425 207 425 210 c 2
 425 600 l 1
 575 600 l 1
181 506 m 0
 181 525 170 539 150 539 c 0
 130 539 119 525 119 506 c 0
 119 487 130 473 150 473 c 0
 170 473 181 487 181 506 c 0
EndSplineSet
PickledDataWithLists: "(dp0
Vcom.fontlab.hintData
p1
(dp2
Vvhints
p3
(lp4
(dp5
Vwidth
p6
L10L
sVposition
p7
L64L
sa(dp8
g6
L10L
sg7
L84L
sa(dp9
g6
L10L
sg7
L168L
sa(dp10
g6
L10L
sg7
L387L
sa(dp11
g6
L10L
sg7
L457L
sa(dp12
g6
L10L
sg7
L491L
sa(dp13
g6
L10L
sg7
L550L
sa(dp14
g6
L10L
sg7
L625L
sasVhhints
p15
(lp16
(dp17
g6
L10L
sg7
L-27L
sa(dp18
g6
L10L
sg7
L-20L
sa(dp19
g6
L10L
sg7
L22L
sa(dp20
g6
L10L
sg7
L248L
sa(dp21
g6
L10L
sg7
L307L
sa(dp22
g6
L10L
sg7
L589L
sa(dp23
g6
L10L
sg7
L598L
sass."
EndChar

StartChar: uni0E1A
Encoding: 426 3610 154
GlifName: uni0E_1A_
Width: 700
VWidth: 0
GlyphClass: 2
Flags: MW
LayerCount: 2
Fore
SplineSet
176 506 m 0
 176 525 165 539 145 539 c 0
 125 539 114 525 114 506 c 0
 114 487 125 473 145 473 c 0
 165 473 176 487 176 506 c 0
114 404 m 1
 65 415 30 452 30 506 c 0
 30 571 80 611 145 611 c 0
 210 611 260 571 260 506 c 0
 260 458 250 437 250 390 c 2
 250 196 l 2
 250 118 298 89 365 89 c 0
 432 89 480 118 480 196 c 2
 480 600 l 1
 630 600 l 1
 630 196 l 2
 630 74 526 -21 365 -21 c 0
 204 -21 100 74 100 196 c 2
 100 360 l 2
 100 378 106 392 114 404 c 1
EndSplineSet
PickledDataWithLists: "(dp0
Vcom.fontlab.hintData
p1
(dp2
Vvhints
p3
(lp4
(dp5
Vwidth
p6
L10L
sVposition
p7
L81L
sa(dp8
g6
L10L
sg7
L106L
sa(dp9
g6
L10L
sg7
L194L
sa(dp10
g6
L10L
sg7
L511L
sa(dp11
g6
L10L
sg7
L516L
sa(dp12
g6
L10L
sg7
L599L
sa(dp13
g6
L10L
sg7
L604L
sasVhhints
p14
(lp15
(dp16
g6
L10L
sg7
L-26L
sa(dp17
g6
L10L
sg7
L36L
sa(dp18
g6
L10L
sg7
L596L
sass."
EndChar

StartChar: uni0E1B
Encoding: 427 3611 155
GlifName: uni0E_1B_
Width: 700
VWidth: 0
GlyphClass: 2
Flags: MW
LayerCount: 2
Fore
SplineSet
176 506 m 0
 176 525 165 539 145 539 c 0
 125 539 114 525 114 506 c 0
 114 487 125 473 145 473 c 0
 165 473 176 487 176 506 c 0
114 404 m 1
 65 415 30 452 30 506 c 0
 30 571 80 611 145 611 c 0
 210 611 260 571 260 506 c 0
 260 458 250 437 250 390 c 2
 250 196 l 2
 250 118 298 89 365 89 c 0
 432 89 480 118 480 196 c 2
 480 810 l 1
 630 810 l 1
 630 196 l 2
 630 74 526 -21 365 -21 c 0
 204 -21 100 74 100 196 c 2
 100 360 l 2
 100 378 106 392 114 404 c 1
EndSplineSet
PickledDataWithLists: "(dp0
Vcom.fontlab.hintData
p1
(dp2
Vvhints
p3
(lp4
(dp5
Vwidth
p6
L10L
sVposition
p7
L81L
sa(dp8
g6
L10L
sg7
L106L
sa(dp9
g6
L10L
sg7
L194L
sa(dp10
g6
L10L
sg7
L521L
sa(dp11
g6
L10L
sg7
L526L
sa(dp12
g6
L10L
sg7
L609L
sa(dp13
g6
L10L
sg7
L614L
sasVhhints
p14
(lp15
(dp16
g6
L10L
sg7
L-26L
sa(dp17
g6
L10L
sg7
L36L
sa(dp18
g6
L10L
sg7
L600L
sa(dp19
g6
L10L
sg7
L836L
sass."
EndChar

StartChar: uni0E1C
Encoding: 428 3612 156
GlifName: uni0E_1C_
Width: 715
VWidth: 0
GlyphClass: 2
Flags: MW
LayerCount: 2
Fore
SplineSet
500 235 m 2
 500 600 l 1
 645 600 l 1
 645 0 l 1
 505 0 l 1
 360 255 l 1
 215 0 l 1
 75 0 l 1
 75 270 l 2
 75 344 55 407 55 461 c 0
 55 549 118 611 225 611 c 0
 290 611 340 571 340 506 c 0
 340 441 290 401 225 401 c 0
 212 401 200 403 188 406 c 1
 200 367 220 345 220 285 c 2
 220 235 l 2
 220 218 219 201 216 185 c 1
 315 360 l 1
 360 360 l 1
 405 360 l 1
 504 185 l 1
 501 201 500 218 500 235 c 2
256 506 m 0
 256 525 245 539 225 539 c 0
 205 539 194 525 194 506 c 0
 194 487 205 473 225 473 c 0
 245 473 256 487 256 506 c 0
EndSplineSet
PickledDataWithLists: "(dp0
Vcom.fontlab.hintData
p1
(dp2
Vvhints
p3
(lp4
(dp5
Vwidth
p6
L10L
sVposition
p7
L64L
sa(dp8
g6
L10L
sg7
L148L
sa(dp9
g6
L10L
sg7
L372L
sa(dp10
g6
L10L
sg7
L559L
sa(dp11
g6
L10L
sg7
L643L
sa(dp12
g6
L10L
sg7
L653L
sasVhhints
p13
(lp14
(dp15
g6
L10L
sg7
L-14L
sa(dp16
g6
L10L
sg7
L-8L
sa(dp17
g6
L10L
sg7
L318L
sa(dp18
g6
L10L
sg7
L514L
sa(dp19
g6
L10L
sg7
L544L
sa(dp20
g6
L10L
sg7
L599L
sa(dp21
g6
L10L
sg7
L604L
sass."
EndChar

StartChar: uni0E1D
Encoding: 429 3613 157
GlifName: uni0E_1D_
Width: 715
VWidth: 0
GlyphClass: 2
Flags: MW
LayerCount: 2
Fore
SplineSet
500 235 m 2
 500 810 l 1
 645 810 l 1
 645 0 l 1
 505 0 l 1
 360 255 l 1
 215 0 l 1
 75 0 l 1
 75 270 l 2
 75 344 55 407 55 461 c 0
 55 549 118 611 225 611 c 0
 290 611 340 571 340 506 c 0
 340 441 290 401 225 401 c 0
 212 401 200 403 188 406 c 1
 200 367 220 345 220 285 c 2
 220 235 l 2
 220 218 219 201 216 185 c 1
 315 360 l 1
 360 360 l 1
 405 360 l 1
 504 185 l 1
 501 201 500 218 500 235 c 2
256 506 m 0
 256 525 245 539 225 539 c 0
 205 539 194 525 194 506 c 0
 194 487 205 473 225 473 c 0
 245 473 256 487 256 506 c 0
EndSplineSet
PickledDataWithLists: "(dp0
Vcom.fontlab.hintData
p1
(dp2
Vvhints
p3
(lp4
(dp5
Vwidth
p6
L10L
sVposition
p7
L64L
sa(dp8
g6
L10L
sg7
L148L
sa(dp9
g6
L10L
sg7
L372L
sa(dp10
g6
L10L
sg7
L559L
sa(dp11
g6
L10L
sg7
L643L
sa(dp12
g6
L10L
sg7
L653L
sasVhhints
p13
(lp14
(dp15
g6
L10L
sg7
L-14L
sa(dp16
g6
L10L
sg7
L-8L
sa(dp17
g6
L10L
sg7
L318L
sa(dp18
g6
L10L
sg7
L514L
sa(dp19
g6
L10L
sg7
L544L
sa(dp20
g6
L10L
sg7
L604L
sa(dp21
g6
L10L
sg7
L834L
sass."
EndChar

StartChar: uni0E1E
Encoding: 430 3614 158
GlifName: uni0E_1E_
Width: 735
VWidth: 0
GlyphClass: 2
Flags: MW
LayerCount: 2
Fore
SplineSet
665 600 m 1
 665 0 l 1
 535 0 l 1
 385 345 l 1
 235 0 l 1
 105 0 l 1
 105 360 l 2
 105 378 111 392 119 404 c 1
 70 415 35 452 35 506 c 0
 35 571 85 611 150 611 c 0
 215 611 265 571 265 506 c 0
 265 458 250 437 250 390 c 2
 250 305 l 2
 250 289 248 270 246 251 c 1
 350 495 l 1
 385 495 l 1
 420 495 l 1
 524 251 l 1
 522 270 520 289 520 305 c 2
 520 600 l 1
 665 600 l 1
181 506 m 0
 181 525 170 539 150 539 c 0
 130 539 119 525 119 506 c 0
 119 487 130 473 150 473 c 0
 170 473 181 487 181 506 c 0
EndSplineSet
PickledDataWithLists: "(dp0
Vcom.fontlab.hintData
p1
(dp2
Vvhints
p3
(lp4
(dp5
Vwidth
p6
L10L
sVposition
p7
L58L
sa(dp8
g6
L10L
sg7
L104L
sa(dp9
g6
L10L
sg7
L182L
sa(dp10
g6
L10L
sg7
L556L
sa(dp11
g6
L10L
sg7
L656L
sasVhhints
p12
(lp13
(dp14
g6
L10L
sg7
L-12L
sa(dp15
g6
L10L
sg7
L540L
sa(dp16
g6
L10L
sg7
L604L
sass."
EndChar

StartChar: uni0E1F
Encoding: 431 3615 159
GlifName: uni0E_1F_
Width: 735
VWidth: 0
GlyphClass: 2
Flags: MW
LayerCount: 2
Fore
SplineSet
665 810 m 1
 665 0 l 1
 535 0 l 1
 385 345 l 1
 235 0 l 1
 105 0 l 1
 105 360 l 2
 105 378 111 392 119 404 c 1
 70 415 35 452 35 506 c 0
 35 571 85 611 150 611 c 0
 215 611 265 571 265 506 c 0
 265 458 250 437 250 390 c 2
 250 305 l 2
 250 289 248 270 246 251 c 1
 350 495 l 1
 385 495 l 1
 420 495 l 1
 524 251 l 1
 522 270 520 289 520 305 c 2
 520 810 l 1
 665 810 l 1
181 506 m 0
 181 525 170 539 150 539 c 0
 130 539 119 525 119 506 c 0
 119 487 130 473 150 473 c 0
 170 473 181 487 181 506 c 0
EndSplineSet
PickledDataWithLists: "(dp0
Vcom.fontlab.hintData
p1
(dp2
Vvhints
p3
(lp4
(dp5
Vwidth
p6
L10L
sVposition
p7
L58L
sa(dp8
g6
L10L
sg7
L104L
sa(dp9
g6
L10L
sg7
L182L
sa(dp10
g6
L10L
sg7
L565L
sa(dp11
g6
L9L
sg7
L641L
sa(dp12
g6
L11L
sg7
L686L
sasVhhints
p13
(lp14
(dp15
g6
L10L
sg7
L-12L
sa(dp16
g6
L10L
sg7
L540L
sa(dp17
g6
L10L
sg7
L604L
sa(dp18
g6
L10L
sg7
L834L
sass."
EndChar

StartChar: uni0E20
Encoding: 432 3616 160
GlifName: uni0E_20
Width: 665
VWidth: 0
GlyphClass: 2
Flags: MW
LayerCount: 2
Fore
SplineSet
181 94 m 0
 181 113 170 127 150 127 c 0
 130 127 119 113 119 94 c 0
 119 75 130 61 150 61 c 0
 170 61 181 75 181 94 c 0
325 621 m 0
 495 621 605 521 605 391 c 2
 605 0 l 1
 455 0 l 1
 455 391 l 2
 455 477 401 511 325 511 c 0
 268 511 227 487 207 440 c 1
 345 410 l 1
 330 350 l 1
 330 350 311 355 295 355 c 0
 260 355 255 330 255 305 c 2
 255 240 l 1
 255 210 l 2
 255 163 265 142 265 94 c 0
 265 29 215 -11 150 -11 c 0
 85 -11 35 29 35 94 c 0
 35 148 70 185 119 196 c 1
 111 208 105 222 105 240 c 2
 105 290 l 2
 105 336 126 368 168 384 c 1
 45 409 l 1
 60 514 151 621 325 621 c 0
EndSplineSet
PickledDataWithLists: "(dp0
Vcom.fontlab.hintData
p1
(dp2
Vvhints
p3
(lp4
(dp5
Vwidth
p6
L10L
sVposition
p7
L26L
sa(dp8
g6
L10L
sg7
L81L
sa(dp9
g6
L10L
sg7
L131L
sa(dp10
g6
L10L
sg7
L219L
sa(dp11
g6
L10L
sg7
L465L
sa(dp12
g6
L10L
sg7
L476L
sa(dp13
g6
L10L
sg7
L556L
sa(dp14
g6
L10L
sg7
L564L
sasVhhints
p15
(lp16
(dp17
g6
L10L
sg7
L-16L
sa(dp18
g6
L10L
sg7
L66L
sa(dp19
g6
L10L
sg7
L544L
sa(dp20
g6
L10L
sg7
L606L
sass."
EndChar

StartChar: uni0E21
Encoding: 433 3617 161
GlifName: uni0E_21
Width: 645
VWidth: 0
GlyphClass: 2
Flags: MW
LayerCount: 2
Fore
SplineSet
575 600 m 1
 575 0 l 1
 437 0 l 1
 403 46 357 91 284 110 c 1
 284 105 285 100 285 94 c 0
 285 29 235 -11 170 -11 c 0
 105 -11 55 29 55 94 c 0
 55 145 87 181 132 194 c 1
 122 206 115 221 115 240 c 2
 115 360 l 2
 115 378 121 392 129 404 c 1
 80 415 45 452 45 506 c 0
 45 571 95 611 160 611 c 0
 225 611 275 571 275 506 c 0
 275 458 265 437 265 390 c 2
 265 210 l 2
 265 206 265 203 265 199 c 0
 336 187 389 159 428 127 c 1
 426 161 425 197 425 230 c 2
 425 600 l 1
 575 600 l 1
201 94 m 0
 201 113 190 127 170 127 c 0
 150 127 139 113 139 94 c 0
 139 75 150 61 170 61 c 0
 190 61 201 75 201 94 c 0
191 506 m 0
 191 525 180 539 160 539 c 0
 140 539 129 525 129 506 c 0
 129 487 140 473 160 473 c 0
 180 473 191 487 191 506 c 0
EndSplineSet
PickledDataWithLists: "(dp0
Vcom.fontlab.hintData
p1
(dp2
Vvhints
p3
(lp4
(dp5
Vwidth
p6
L10L
sVposition
p7
L25L
sa(dp8
g6
L10L
sg7
L56L
sa(dp9
g6
L10L
sg7
L100L
sa(dp10
g6
L10L
sg7
L200L
sa(dp11
g6
L10L
sg7
L280L
sa(dp12
g6
L10L
sg7
L476L
sa(dp13
g6
L10L
sg7
L484L
sa(dp14
g6
L10L
sg7
L556L
sa(dp15
g6
L10L
sg7
L566L
sasVhhints
p16
(lp17
(dp18
g6
L10L
sg7
L-27L
sa(dp19
g6
L10L
sg7
L243L
sa(dp20
g6
L10L
sg7
L297L
sa(dp21
g6
L10L
sg7
L528L
sa(dp22
g6
L10L
sg7
L548L
sa(dp23
g6
L10L
sg7
L588L
sa(dp24
g6
L10L
sg7
L602L
sass."
EndChar

StartChar: uni0E22
Encoding: 434 3618 162
GlifName: uni0E_22
Width: 645
VWidth: 0
GlyphClass: 2
Flags: MW
LayerCount: 2
Fore
SplineSet
251 506 m 0
 251 525 240 539 220 539 c 0
 200 539 189 525 189 506 c 0
 189 487 200 473 220 473 c 0
 240 473 251 487 251 506 c 0
335 506 m 0
 335 441 285 401 220 401 c 0
 199 401 179 405 162 413 c 1
 185 373 242 360 335 360 c 1
 335 359 l 1
 335 272 l 1
 335 271 l 1
 242 271 200 242 200 190 c 0
 200 118 248 89 315 89 c 0
 382 89 430 118 430 196 c 2
 430 600 l 1
 580 600 l 1
 580 196 l 2
 580 74 476 -21 315 -21 c 0
 154 -21 50 68 50 184 c 0
 50 251 87 291 137 311 c 1
 87 340 50 393 50 461 c 0
 50 549 113 611 220 611 c 0
 285 611 335 571 335 506 c 0
EndSplineSet
PickledDataWithLists: "(dp0
Vcom.fontlab.hintData
p1
(dp2
Vvhints
p3
(lp4
(dp5
Vwidth
p6
L10L
sVposition
p7
L44L
sa(dp8
g6
L10L
sg7
L114L
sa(dp9
g6
L10L
sg7
L126L
sa(dp10
g6
L10L
sg7
L196L
sa(dp11
g6
L10L
sg7
L335L
sa(dp12
g6
L10L
sg7
L352L
sa(dp13
g6
L10L
sg7
L474L
sa(dp14
g6
L10L
sg7
L562L
sasVhhints
p15
(lp16
(dp17
g6
L10L
sg7
L-26L
sa(dp18
g6
L10L
sg7
L36L
sa(dp19
g6
L10L
sg7
L517L
sa(dp20
g6
L10L
sg7
L546L
sa(dp21
g6
L10L
sg7
L596L
sa(dp22
g6
L10L
sg7
L604L
sass."
EndChar

StartChar: uni0E23
Encoding: 435 3619 163
GlifName: uni0E_23
Width: 530
VWidth: 0
GlyphClass: 2
Flags: MW
AnchorPoint: "ThaiBelow.mark" 500 0 basechar 0
AnchorPoint: "ThaiTone.mark" 510 0 basechar 0
AnchorPoint: "ThaiAbove.mark" 560 0 basechar 0
LayerCount: 2
Fore
SplineSet
259 94 m 0
 259 75 270 61 290 61 c 0
 310 61 321 75 321 94 c 0
 321 113 310 127 290 127 c 0
 270 127 259 113 259 94 c 0
515 588 m 1
 420 470 l 1
 375 470 l 1
 358 491 328 521 265 521 c 0
 215 521 167 503 157 443 c 1
 313 433 435 398 435 296 c 2
 435 195 l 1
 435 120 l 2
 435 41 377 -11 290 -11 c 0
 225 -11 175 29 175 94 c 0
 175 158 224 198 288 199 c 1
 286 206 285 213 285 220 c 2
 285 276 l 2
 285 355 184 371 15 371 c 1
 15 416 l 2
 15 536 104 621 240 621 c 0
 307 621 353 598 384 573 c 1
 386 578 388 582 390 586 c 2
 405 615 l 1
 515 594 l 1
 515 588 l 1
EndSplineSet
PickledDataWithLists: "(dp0
Vcom.fontlab.hintData
p1
(dp2
Vvhints
p3
(lp4
(dp5
Vwidth
p6
L10L
sVposition
p7
L31L
sa(dp8
g6
L10L
sg7
L111L
sa(dp9
g6
L10L
sg7
L116L
sa(dp10
g6
L10L
sg7
L362L
sa(dp11
g6
L10L
sg7
L446L
sa(dp12
g6
L10L
sg7
L479L
sasVhhints
p13
(lp14
(dp15
g6
L10L
sg7
L-16L
sa(dp16
g6
L10L
sg7
L46L
sa(dp17
g6
L10L
sg7
L91L
sa(dp18
g6
L10L
sg7
L494L
sa(dp19
g6
L10L
sg7
L548L
sa(dp20
g6
L10L
sg7
L610L
sass."
EndChar

StartChar: uni0E24
Encoding: 436 3620 164
GlifName: uni0E_24
Width: 655
VWidth: 0
GlyphClass: 2
Flags: MW
LayerCount: 2
Fore
SplineSet
159 94 m 0
 159 75 170 61 190 61 c 0
 210 61 221 75 221 94 c 0
 221 113 210 127 190 127 c 0
 170 127 159 113 159 94 c 0
221 196 m 1
 270 185 305 148 305 94 c 0
 305 29 255 -11 190 -11 c 0
 125 -11 75 29 75 94 c 0
 75 142 85 163 85 210 c 2
 85 290 l 2
 85 336 107 369 149 385 c 1
 35 409 l 1
 50 514 141 621 315 621 c 0
 485 621 595 521 595 391 c 2
 595 -210 l 1
 445 -210 l 1
 445 391 l 2
 445 477 391 511 315 511 c 0
 258 511 216 487 196 439 c 1
 325 410 l 1
 310 350 l 1
 310 350 291 355 275 355 c 0
 240 355 235 330 235 305 c 2
 235 240 l 2
 235 222 229 208 221 196 c 1
EndSplineSet
PickledDataWithLists: "(dp0
Vcom.fontlab.hintData
p1
(dp2
Vvhints
p3
(lp4
(dp5
Vwidth
p6
L10L
sVposition
p7
L81L
sa(dp8
g6
L10L
sg7
L86L
sa(dp9
g6
L10L
sg7
L111L
sa(dp10
g6
L10L
sg7
L169L
sa(dp11
g6
L10L
sg7
L199L
sa(dp12
g6
L10L
sg7
L315L
sa(dp13
g6
L10L
sg7
L465L
sa(dp14
g6
L10L
sg7
L476L
sa(dp15
g6
L10L
sg7
L556L
sa(dp16
g6
L10L
sg7
L564L
sasVhhints
p17
(lp18
(dp19
g6
L10L
sg7
L-246L
sa(dp20
g6
L10L
sg7
L-19L
sa(dp21
g6
L10L
sg7
L43L
sa(dp22
g6
L10L
sg7
L56L
sa(dp23
g6
L10L
sg7
L544L
sa(dp24
g6
L10L
sg7
L606L
sass."
EndChar

StartChar: uni0E240E45.liga
Encoding: 808 63617 165
GlifName: uni0E_240E_45.liga
Width: 950
VWidth: 0
GlyphClass: 3
Flags: MW
LayerCount: 2
Fore
SplineSet
680 615 m 0
 815 615 885 526 885 430 c 2
 885 -210 l 1
 735 -210 l 1
 735 430 l 2
 735 494 702 505 675 505 c 0
 625 505 604 460 594 412 c 0
 595 405 595 398 595 391 c 2
 595 -210 l 1
 445 -210 l 1
 445 391 l 2
 445 477 391 511 315 511 c 0
 258 511 216 487 196 439 c 1
 325 410 l 1
 310 350 l 1
 310 350 291 355 275 355 c 0
 240 355 235 330 235 305 c 2
 235 240 l 2
 235 222 229 208 221 196 c 1
 270 185 305 148 305 94 c 0
 305 29 255 -11 190 -11 c 0
 125 -11 75 29 75 94 c 0
 75 142 85 163 85 210 c 2
 85 290 l 2
 85 336 107 369 149 385 c 1
 35 409 l 1
 50 514 141 621 315 621 c 0
 405 621 477 593 526 548 c 1
 558 586 608 615 680 615 c 0
159 94 m 0
 159 75 170 61 190 61 c 0
 210 61 221 75 221 94 c 0
 221 113 210 127 190 127 c 0
 170 127 159 113 159 94 c 0
EndSplineSet
PickledDataWithLists: "(dp0
Vcom.fontlab.hintData
p1
(dp2
Vvhints
p3
(lp4
(dp5
Vwidth
p6
L10L
sVposition
p7
L81L
sa(dp8
g6
L10L
sg7
L86L
sa(dp9
g6
L10L
sg7
L111L
sa(dp10
g6
L10L
sg7
L169L
sa(dp11
g6
L10L
sg7
L199L
sa(dp12
g6
L10L
sg7
L315L
sa(dp13
g6
L10L
sg7
L465L
sa(dp14
g6
L10L
sg7
L476L
sa(dp15
g6
L10L
sg7
L556L
sa(dp16
g6
L10L
sg7
L563L
sa(dp17
g6
L10L
sg7
L756L
sa(dp18
g6
L10L
sg7
L782L
sa(dp19
g6
L10L
sg7
L844L
sa(dp20
g6
L10L
sg7
L870L
sasVhhints
p21
(lp22
(dp23
g6
L10L
sg7
L-245L
sa(dp24
g6
L10L
sg7
L-19L
sa(dp25
g6
L10L
sg7
L43L
sa(dp26
g6
L10L
sg7
L56L
sa(dp27
g6
L10L
sg7
L544L
sa(dp28
g6
L10L
sg7
L606L
sass."
Ligature2: "Thai.liga subtable" uni0E24 uni200D uni0E45
Ligature2: "Thai.liga subtable" uni0E24 uni0E45
Colour: ff00ff
EndChar

StartChar: uni0E25
Encoding: 437 3621 166
GlifName: uni0E_25
Width: 635
VWidth: 0
GlyphClass: 2
Flags: MW
LayerCount: 2
Fore
SplineSet
185 405 m 1
 35 417 l 1
 49 518 137 621 305 621 c 0
 468 621 575 526 575 401 c 2
 575 0 l 1
 425 0 l 1
 425 90 l 1
 412 158 335 260 235 260 c 0
 209 260 195 245 195 220 c 0
 195 212 194 205 192 199 c 1
 256 198 305 158 305 94 c 0
 305 29 255 -11 190 -11 c 0
 115 -11 55 41 55 110 c 2
 55 195 l 2
 55 265 82 360 225 360 c 0
 313 360 379 315 425 260 c 1
 425 401 l 2
 425 482 376 511 305 511 c 0
 239 511 195 476 185 405 c 1
221 94 m 0
 221 113 210 127 190 127 c 0
 170 127 159 113 159 94 c 0
 159 75 170 61 190 61 c 0
 210 61 221 75 221 94 c 0
EndSplineSet
PickledDataWithLists: "(dp0
Vcom.fontlab.hintData
p1
(dp2
Vvhints
p3
(lp4
(dp5
Vwidth
p6
L10L
sVposition
p7
L41L
sa(dp8
g6
L10L
sg7
L91L
sa(dp9
g6
L10L
sg7
L179L
sa(dp10
g6
L10L
sg7
L504L
sa(dp11
g6
L10L
sg7
L589L
sasVhhints
p12
(lp13
(dp14
g6
L10L
sg7
L-16L
sa(dp15
g6
L10L
sg7
L-6L
sa(dp16
g6
L10L
sg7
L296L
sa(dp17
g6
L10L
sg7
L414L
sa(dp18
g6
L10L
sg7
L549L
sa(dp19
g6
L10L
sg7
L610L
sass."
EndChar

StartChar: uni0E26
Encoding: 438 3622 167
GlifName: uni0E_26
Width: 670
VWidth: 0
GlyphClass: 2
Flags: MW
LayerCount: 2
Fore
SplineSet
181 94 m 0
 181 113 170 127 150 127 c 0
 130 127 119 113 119 94 c 0
 119 75 130 61 150 61 c 0
 170 61 181 75 181 94 c 0
325 621 m 0
 495 621 605 521 605 391 c 2
 605 -210 l 1
 455 -210 l 1
 455 391 l 2
 455 477 401 511 325 511 c 0
 268 511 227 487 207 440 c 1
 345 410 l 1
 330 350 l 1
 330 350 311 355 295 355 c 0
 260 355 255 330 255 305 c 2
 255 240 l 1
 255 210 l 2
 255 163 265 142 265 94 c 0
 265 29 215 -11 150 -11 c 0
 85 -11 35 29 35 94 c 0
 35 148 70 185 119 196 c 1
 111 208 105 222 105 240 c 2
 105 290 l 2
 105 336 126 368 168 384 c 1
 45 409 l 1
 60 514 151 621 325 621 c 0
EndSplineSet
PickledDataWithLists: "(dp0
Vcom.fontlab.hintData
p1
(dp2
Vvhints
p3
(lp4
(dp5
Vwidth
p6
L10L
sVposition
p7
L26L
sa(dp8
g6
L10L
sg7
L81L
sa(dp9
g6
L10L
sg7
L131L
sa(dp10
g6
L10L
sg7
L219L
sa(dp11
g6
L10L
sg7
L465L
sa(dp12
g6
L10L
sg7
L476L
sa(dp13
g6
L10L
sg7
L556L
sa(dp14
g6
L10L
sg7
L564L
sasVhhints
p15
(lp16
(dp17
g6
L10L
sg7
L-246L
sa(dp18
g6
L10L
sg7
L-16L
sa(dp19
g6
L10L
sg7
L66L
sa(dp20
g6
L10L
sg7
L544L
sa(dp21
g6
L10L
sg7
L606L
sass."
EndChar

StartChar: uni0E260E45.liga
Encoding: 809 63618 168
GlifName: uni0E_260E_45.liga
Width: 960
VWidth: 0
GlyphClass: 3
Flags: MW
LayerCount: 2
Fore
SplineSet
181 94 m 0
 181 113 170 127 150 127 c 0
 130 127 119 113 119 94 c 0
 119 75 130 61 150 61 c 0
 170 61 181 75 181 94 c 0
536 548 m 1
 568 586 618 615 690 615 c 0
 825 615 895 526 895 430 c 2
 895 -210 l 1
 745 -210 l 1
 745 430 l 2
 745 494 712 505 685 505 c 0
 635 505 614 460 604 411 c 0
 605 404 605 398 605 391 c 2
 605 -210 l 1
 455 -210 l 1
 455 391 l 2
 455 477 401 511 325 511 c 0
 268 511 227 487 207 440 c 1
 345 410 l 1
 330 350 l 1
 330 350 311 355 295 355 c 0
 260 355 255 330 255 305 c 2
 255 240 l 1
 255 210 l 2
 255 163 265 142 265 94 c 0
 265 29 215 -11 150 -11 c 0
 85 -11 35 29 35 94 c 0
 35 148 70 185 119 196 c 1
 111 208 105 222 105 240 c 2
 105 290 l 2
 105 336 126 368 168 384 c 1
 45 409 l 1
 60 514 151 621 325 621 c 0
 415 621 487 593 536 548 c 1
EndSplineSet
PickledDataWithLists: "(dp0
Vcom.fontlab.hintData
p1
(dp2
Vvhints
p3
(lp4
(dp5
Vwidth
p6
L10L
sVposition
p7
L26L
sa(dp8
g6
L10L
sg7
L81L
sa(dp9
g6
L10L
sg7
L131L
sa(dp10
g6
L10L
sg7
L219L
sa(dp11
g6
L10L
sg7
L465L
sa(dp12
g6
L10L
sg7
L476L
sa(dp13
g6
L10L
sg7
L556L
sa(dp14
g6
L10L
sg7
L563L
sa(dp15
g6
L10L
sg7
L756L
sa(dp16
g6
L10L
sg7
L782L
sa(dp17
g6
L10L
sg7
L844L
sa(dp18
g6
L10L
sg7
L870L
sasVhhints
p19
(lp20
(dp21
g6
L10L
sg7
L-245L
sa(dp22
g6
L10L
sg7
L-16L
sa(dp23
g6
L10L
sg7
L66L
sa(dp24
g6
L10L
sg7
L544L
sa(dp25
g6
L10L
sg7
L606L
sass."
Ligature2: "Thai.liga subtable" uni0E26 uni200D uni0E45
Ligature2: "Thai.liga subtable" uni0E26 uni0E45
Colour: ff00ff
EndChar

StartChar: uni0E27
Encoding: 439 3623 169
GlifName: uni0E_27
Width: 535
VWidth: 0
GlyphClass: 2
Flags: MW
AnchorPoint: "ThaiAbove.mark" 545 0 basechar 0
LayerCount: 2
Fore
SplineSet
470 120 m 2
 470 41 412 -11 325 -11 c 0
 260 -11 210 29 210 94 c 0
 210 158 259 198 323 199 c 1
 321 206 320 213 320 220 c 2
 320 416 l 2
 320 490 278 511 235 511 c 0
 191 511 158 488 149 433 c 1
 0 445 l 1
 13 528 87 621 235 621 c 0
 384 621 470 526 470 416 c 2
 470 120 l 2
294 94 m 0
 294 75 305 61 325 61 c 0
 345 61 356 75 356 94 c 0
 356 113 345 127 325 127 c 0
 305 127 294 113 294 94 c 0
EndSplineSet
PickledDataWithLists: "(dp0
Vcom.fontlab.hintData
p1
(dp2
Vvhints
p3
(lp4
(dp5
Vwidth
p6
L10L
sVposition
p7
L21L
sa(dp8
g6
L10L
sg7
L168L
sa(dp9
g6
L10L
sg7
L255L
sa(dp10
g6
L10L
sg7
L411L
sa(dp11
g6
L10L
sg7
L499L
sasVhhints
p12
(lp13
(dp14
g6
L10L
sg7
L-15L
sa(dp15
g6
L10L
sg7
L46L
sa(dp16
g6
L10L
sg7
L136L
sa(dp17
g6
L10L
sg7
L394L
sa(dp18
g6
L9L
sg7
L552L
sa(dp19
g6
L10L
sg7
L614L
sass."
EndChar

StartChar: uni0E28
Encoding: 440 3624 170
GlifName: uni0E_28
Width: 680
VWidth: 0
GlyphClass: 2
Flags: MW
LayerCount: 2
Fore
SplineSet
330 348 m 0
 310 348 299 334 299 315 c 0
 299 296 310 282 330 282 c 0
 350 282 361 296 361 315 c 0
 361 334 350 348 330 348 c 0
455 0 m 1
 455 90 l 2
 455 170 461 199 461 391 c 0
 461 412 458 431 452 446 c 1
 431 433 409 419 390 406 c 1
 423 389 445 358 445 315 c 0
 445 250 395 210 330 210 c 0
 298 210 270 220 250 237 c 1
 236 206 230 163 230 90 c 2
 230 0 l 1
 69 0 l 1
 69 0 79 69 79 115 c 0
 79 210 55 240 55 391 c 0
 55 520 162 621 330 621 c 0
 400 621 459 604 504 574 c 1
 533 606 576 640 640 645 c 1
 665 515 l 1
 627 515 600 509 577 498 c 1
 595 466 605 430 605 391 c 2
 605 0 l 1
 455 0 l 1
403 497 m 1
 383 507 358 511 330 511 c 0
 253 511 199 478 199 391 c 0
 199 362 199 337 199 315 c 1
 210 344 226 370 250 390 c 0
 263 401 277 410 294 415 c 1
 327 441 366 470 403 497 c 1
EndSplineSet
PickledDataWithLists: "(dp0
Vcom.fontlab.hintData
p1
(dp2
Vvhints
p3
(lp4
(dp5
Vwidth
p6
L10L
sVposition
p7
L59L
sa(dp8
g6
L10L
sg7
L142L
sa(dp9
g6
L10L
sg7
L439L
sa(dp10
g6
L10L
sg7
L508L
sa(dp11
g6
L10L
sg7
L590L
sa(dp12
g6
L10L
sg7
L637L
sasVhhints
p13
(lp14
(dp15
g6
L10L
sg7
L-18L
sa(dp16
g6
L10L
sg7
L-4L
sa(dp17
g6
L10L
sg7
L551L
sa(dp18
g6
L10L
sg7
L608L
sa(dp19
g6
L10L
sg7
L654L
sass."
EndChar

StartChar: uni0E29
Encoding: 441 3625 171
GlifName: uni0E_29
Width: 710
VWidth: 0
GlyphClass: 2
Flags: MW
LayerCount: 2
Fore
SplineSet
340 345 m 0
 340 330 349 319 365 319 c 0
 381 319 390 330 390 345 c 0
 390 360 381 371 365 371 c 0
 349 371 340 360 340 345 c 0
176 506 m 0
 176 525 165 539 145 539 c 0
 125 539 114 525 114 506 c 0
 114 487 125 473 145 473 c 0
 165 473 176 487 176 506 c 0
444 302 m 1
 452 304 459 305 465 305 c 0
 470 305 475 306 480 306 c 1
 480 600 l 1
 630 600 l 1
 630 345 l 1
 652 354 671 363 685 370 c 1
 710 295 l 1
 688 286 661 276 630 268 c 1
 630 196 l 2
 630 74 526 -21 365 -21 c 0
 204 -21 100 74 100 196 c 2
 100 360 l 2
 100 378 106 392 114 404 c 1
 65 415 30 452 30 506 c 0
 30 571 80 611 145 611 c 0
 210 611 260 571 260 506 c 0
 260 458 250 437 250 390 c 2
 250 196 l 2
 250 118 298 89 365 89 c 0
 432 89 480 118 480 196 c 2
 480 242 l 1
 460 241 440 240 420 240 c 0
 328 240 275 278 275 345 c 0
 275 396 314 428 365 428 c 0
 416 428 455 396 455 345 c 0
 455 328 451 314 444 302 c 1
EndSplineSet
PickledDataWithLists: "(dp0
Vcom.fontlab.hintData
p1
(dp2
Vvhints
p3
(lp4
(dp5
Vwidth
p6
L10L
sVposition
p7
L84L
sa(dp8
g6
L10L
sg7
L109L
sa(dp9
g6
L10L
sg7
L191L
sa(dp10
g6
L10L
sg7
L312L
sa(dp11
g6
L10L
sg7
L375L
sa(dp12
g6
L10L
sg7
L524L
sa(dp13
g6
L10L
sg7
L529L
sa(dp14
g6
L10L
sg7
L606L
sa(dp15
g6
L10L
sg7
L708L
sasVhhints
p16
(lp17
(dp18
g6
L10L
sg7
L-24L
sa(dp19
g6
L10L
sg7
L34L
sa(dp20
g6
L10L
sg7
L391L
sa(dp21
g6
L10L
sg7
L439L
sa(dp22
g6
L10L
sg7
L561L
sa(dp23
g6
L10L
sg7
L599L
sa(dp24
g6
L10L
sg7
L609L
sa(dp25
g6
L10L
sg7
L629L
sass."
EndChar

StartChar: uni0E2A
Encoding: 442 3626 172
GlifName: uni0E_2A_
Width: 650
VWidth: 0
GlyphClass: 2
Flags: MW
LayerCount: 2
Fore
SplineSet
185 405 m 1
 35 417 l 1
 49 518 137 621 305 621 c 0
 373 621 431 604 476 576 c 1
 505 608 547 640 610 645 c 1
 635 515 l 1
 599 515 573 510 550 500 c 1
 566 471 575 437 575 401 c 2
 575 0 l 1
 425 0 l 1
 425 90 l 1
 412 158 335 260 235 260 c 0
 209 260 195 245 195 220 c 0
 195 212 194 205 192 199 c 1
 256 198 305 158 305 94 c 0
 305 29 255 -11 190 -11 c 0
 115 -11 55 41 55 110 c 2
 55 195 l 2
 55 263 80 354 210 360 c 1
 253 398 318 447 380 494 c 1
 360 506 334 511 305 511 c 0
 239 511 195 476 185 405 c 1
221 94 m 0
 221 113 210 127 190 127 c 0
 170 127 159 113 159 94 c 0
 159 75 170 61 190 61 c 0
 210 61 221 75 221 94 c 0
421 438 m 1
 375 408 331 376 296 349 c 1
 349 333 393 299 425 260 c 1
 425 401 l 2
 425 415 424 427 421 438 c 1
EndSplineSet
PickledDataWithLists: "(dp0
Vcom.fontlab.hintData
p1
(dp2
Vvhints
p3
(lp4
(dp5
Vwidth
p6
L10L
sVposition
p7
L54L
sa(dp8
g6
L10L
sg7
L94L
sa(dp9
g6
L10L
sg7
L136L
sa(dp10
g6
L10L
sg7
L176L
sa(dp11
g6
L10L
sg7
L504L
sa(dp12
g6
L10L
sg7
L586L
sa(dp13
g6
L10L
sg7
L616L
sasVhhints
p14
(lp15
(dp16
g6
L10L
sg7
L-14L
sa(dp17
g6
L10L
sg7
L-4L
sa(dp18
g6
L10L
sg7
L294L
sa(dp19
g6
L10L
sg7
L370L
sa(dp20
g6
L10L
sg7
L429L
sa(dp21
g6
L10L
sg7
L548L
sa(dp22
g6
L10L
sg7
L606L
sa(dp23
g6
L10L
sg7
L654L
sass."
EndChar

StartChar: uni0E2B
Encoding: 443 3627 173
GlifName: uni0E_2B_
Width: 660
VWidth: 0
GlyphClass: 2
Flags: MW
LayerCount: 2
Fore
SplineSet
469 506 m 0
 469 487 480 473 500 473 c 0
 520 473 531 487 531 506 c 0
 531 525 520 539 500 539 c 0
 480 539 469 525 469 506 c 0
385 506 m 0
 385 571 435 611 500 611 c 0
 565 611 615 571 615 506 c 0
 615 464 595 433 563 416 c 1
 581 403 595 385 595 360 c 2
 595 0 l 1
 445 0 l 1
 445 353 l 1
 348 317 265 202 255 84 c 1
 255 0 l 1
 105 0 l 1
 105 360 l 2
 105 378 111 392 119 404 c 1
 70 415 35 452 35 506 c 0
 35 571 85 611 150 611 c 0
 215 611 265 571 265 506 c 0
 265 458 255 437 255 390 c 2
 255 313 l 1
 295 367 346 413 408 439 c 1
 393 456 385 479 385 506 c 0
181 506 m 0
 181 525 170 539 150 539 c 0
 130 539 119 525 119 506 c 0
 119 487 130 473 150 473 c 0
 170 473 181 487 181 506 c 0
EndSplineSet
PickledDataWithLists: "(dp0
Vcom.fontlab.hintData
p1
(dp2
Vvhints
p3
(lp4
(dp5
Vwidth
p6
L10L
sVposition
p7
L84L
sa(dp8
g6
L10L
sg7
L166L
sa(dp9
g6
L11L
sg7
L191L
sa(dp10
g6
L10L
sg7
L320L
sa(dp11
g6
L10L
sg7
L395L
sa(dp12
g6
L10L
sg7
L493L
sa(dp13
g6
L10L
sg7
L525L
sa(dp14
g6
L10L
sg7
L600L
sa(dp15
g6
L10L
sg7
L638L
sasVhhints
p16
(lp17
(dp18
g6
L10L
sg7
L-24L
sa(dp19
g6
L10L
sg7
L-12L
sa(dp20
g6
L10L
sg7
L553L
sa(dp21
g6
L10L
sg7
L589L
sa(dp22
g6
L10L
sg7
L602L
sass."
EndChar

StartChar: uni0E2C
Encoding: 444 3628 174
GlifName: uni0E_2C_
Width: 760
VWidth: 0
GlyphClass: 2
Flags: MW
AnchorPoint: "ThaiBelow.mark" 720 0 basechar 0
AnchorPoint: "ThaiTone.mark" 720 0 basechar 0
AnchorPoint: "ThaiAbove.mark" 720 0 basechar 0
LayerCount: 2
Fore
SplineSet
520 305 m 2
 520 390 l 2
 520 407 525 422 533 433 c 1
 479 441 440 479 440 536 c 0
 440 601 490 641 555 641 c 0
 614 641 661 608 669 553 c 1
 675 573 678 598 680 630 c 1
 765 620 l 1
 755 530 718 481 666 451 c 1
 666 442 665 432 665 420 c 2
 665 0 l 1
 535 0 l 1
 385 315 l 1
 235 0 l 1
 105 0 l 1
 105 360 l 2
 105 378 111 392 119 404 c 1
 70 415 35 452 35 506 c 0
 35 571 85 611 150 611 c 0
 215 611 265 571 265 506 c 0
 265 458 250 437 250 390 c 2
 250 305 l 2
 250 283 247 256 244 232 c 1
 350 465 l 1
 385 465 l 1
 420 465 l 1
 526 232 l 1
 523 256 520 283 520 305 c 2
586 536 m 0
 586 555 575 569 555 569 c 0
 535 569 524 555 524 536 c 0
 524 517 535 503 555 503 c 0
 575 503 586 517 586 536 c 0
181 506 m 0
 181 525 170 539 150 539 c 0
 130 539 119 525 119 506 c 0
 119 487 130 473 150 473 c 0
 170 473 181 487 181 506 c 0
EndSplineSet
PickledDataWithLists: "(dp0
Vcom.fontlab.hintData
p1
(dp2
Vvhints
p3
(lp4
(dp5
Vwidth
p6
L10L
sVposition
p7
L58L
sa(dp8
g6
L10L
sg7
L104L
sa(dp9
g6
L10L
sg7
L185L
sa(dp10
g6
L10L
sg7
L367L
sa(dp11
g6
L10L
sg7
L430L
sa(dp12
g6
L10L
sg7
L587L
sa(dp13
g6
L10L
sg7
L661L
sa(dp14
g6
L10L
sg7
L760L
sasVhhints
p15
(lp16
(dp17
g6
L10L
sg7
L-18L
sa(dp18
g6
L10L
sg7
L-13L
sa(dp19
g6
L10L
sg7
L329L
sa(dp20
g6
L10L
sg7
L391L
sa(dp21
g6
L10L
sg7
L439L
sa(dp22
g6
L10L
sg7
L561L
sa(dp23
g6
L10L
sg7
L604L
sa(dp24
g6
L10L
sg7
L609L
sa(dp25
g6
L10L
sg7
L629L
sass."
EndChar

StartChar: uni0E2D
Encoding: 445 3629 175
GlifName: uni0E_2D_
Width: 635
VWidth: 0
GlyphClass: 2
Flags: MW
LayerCount: 2
Fore
SplineSet
185 405 m 1
 35 417 l 1
 49 518 137 621 305 621 c 0
 468 621 575 526 575 401 c 2
 575 192 l 2
 575 74 477 -21 320 -21 c 0
 163 -21 65 74 65 192 c 2
 65 255 l 2
 65 320 115 360 180 360 c 0
 245 360 295 320 295 255 c 0
 295 200 259 163 209 153 c 1
 225 107 273 89 320 89 c 0
 379 89 425 116 425 192 c 2
 425 401 l 2
 425 482 376 511 305 511 c 0
 239 511 195 476 185 405 c 1
211 255 m 0
 211 274 200 288 180 288 c 0
 160 288 149 274 149 255 c 0
 149 236 160 222 180 222 c 0
 200 222 211 236 211 255 c 0
EndSplineSet
PickledDataWithLists: "(dp0
Vcom.fontlab.hintData
p1
(dp2
Vvhints
p3
(lp4
(dp5
Vwidth
p6
L10L
sVposition
p7
L50L
sa(dp8
g6
L10L
sg7
L61L
sa(dp9
g6
L10L
sg7
L149L
sa(dp10
g6
L10L
sg7
L289L
sa(dp11
g6
L10L
sg7
L481L
sa(dp12
g6
L10L
sg7
L569L
sasVhhints
p13
(lp14
(dp15
g6
L10L
sg7
L-19L
sa(dp16
g6
L10L
sg7
L43L
sa(dp17
g6
L10L
sg7
L215L
sa(dp18
g6
L10L
sg7
L230L
sa(dp19
g6
L10L
sg7
L292L
sa(dp20
g6
L10L
sg7
L414L
sa(dp21
g6
L9L
sg7
L549L
sa(dp22
g6
L10L
sg7
L611L
sass."
EndChar

StartChar: uni0E2E
Encoding: 446 3630 176
GlifName: uni0E_2E_
Width: 640
VWidth: 0
GlyphClass: 2
Flags: MW
LayerCount: 2
Fore
SplineSet
206 255 m 0
 206 274 195 288 175 288 c 0
 155 288 144 274 144 255 c 0
 144 236 155 222 175 222 c 0
 195 222 206 236 206 255 c 0
180 485 m 0
 180 476 184 460 290 460 c 0
 342 460 382 467 410 481 c 1
 388 512 348 530 290 530 c 0
 212 530 180 509 180 485 c 0
552 483 m 1
 562 464 570 436 570 411 c 2
 570 192 l 2
 570 74 472 -21 315 -21 c 0
 158 -21 60 74 60 192 c 2
 60 255 l 2
 60 320 110 360 175 360 c 0
 240 360 290 320 290 255 c 0
 290 201 255 164 206 153 c 1
 222 106 267 89 315 89 c 0
 374 89 420 116 420 192 c 2
 420 300 l 2
 420 357 428 370 430 400 c 1
 395 385 349 375 290 375 c 0
 146 375 40 418 40 485 c 0
 40 541 111 621 285 621 c 0
 382 621 442 587 477 556 c 1
 486 581 490 611 490 642 c 1
 620 630 l 1
 620 573 598 518 552 483 c 1
EndSplineSet
PickledDataWithLists: "(dp0
Vcom.fontlab.hintData
p1
(dp2
Vvhints
p3
(lp4
(dp5
Vwidth
p6
L10L
sVposition
p7
L54L
sa(dp8
g6
L10L
sg7
L64L
sa(dp9
g6
L10L
sg7
L136L
sa(dp10
g6
L10L
sg7
L146L
sa(dp11
g6
L10L
sg7
L286L
sa(dp12
g6
L10L
sg7
L484L
sa(dp13
g6
L10L
sg7
L566L
sa(dp14
g6
L10L
sg7
L616L
sasVhhints
p15
(lp16
(dp17
g6
L10L
sg7
L-18L
sa(dp18
g6
L10L
sg7
L40L
sa(dp19
g6
L10L
sg7
L216L
sa(dp20
g6
L10L
sg7
L233L
sa(dp21
g6
L10L
sg7
L289L
sa(dp22
g6
L10L
sg7
L363L
sa(dp23
g6
L10L
sg7
L420L
sa(dp24
g6
L10L
sg7
L552L
sa(dp25
g6
L10L
sg7
L610L
sa(dp26
g6
L10L
sg7
L654L
sass."
EndChar

StartChar: uni0E2F
Encoding: 447 3631 177
GlifName: uni0E_2F_
Width: 495
VWidth: 0
GlyphClass: 2
Flags: MW
LayerCount: 2
Fore
SplineSet
130 87 m 1
 258 101 285 122 285 165 c 2
 285 330 l 2
 285 377 305 397 315 433 c 1
 276 407 225 390 160 390 c 0
 82 390 25 436 25 506 c 0
 25 571 75 611 140 611 c 0
 205 611 255 571 255 506 c 0
 255 495 254 484 251 475 c 1
 300 499 327 544 345 594 c 1
 410 600 l 1
 433 583 435 538 435 470 c 2
 435 165 l 2
 435 38 287 -7 151 -21 c 1
 130 87 l 1
109 506 m 0
 109 487 120 473 140 473 c 0
 160 473 171 487 171 506 c 0
 171 525 160 539 140 539 c 0
 120 539 109 525 109 506 c 0
EndSplineSet
PickledDataWithLists: "(dp0
Vcom.fontlab.hintData
p1
(dp2
Vvhints
p3
(lp4
(dp5
Vwidth
p6
L10L
sVposition
p7
L31L
sa(dp8
g6
L10L
sg7
L119L
sa(dp9
g6
L10L
sg7
L153L
sa(dp10
g6
L10L
sg7
L356L
sa(dp11
g6
L10L
sg7
L356L
sa(dp12
g6
L10L
sg7
L434L
sa(dp13
g6
L10L
sg7
L439L
sasVhhints
p14
(lp15
(dp16
g6
L10L
sg7
L-16L
sa(dp17
g6
L10L
sg7
L394L
sa(dp18
g6
L10L
sg7
L456L
sa(dp19
g6
L10L
sg7
L589L
sa(dp20
g6
L10L
sg7
L596L
sass."
EndChar

StartChar: uni0E30
Encoding: 448 3632 178
GlifName: uni0E_30
Width: 540
VWidth: 0
GlyphClass: 2
Flags: MW
LayerCount: 2
Fore
SplineSet
129 460 m 0
 129 441 140 427 160 427 c 0
 180 427 191 441 191 460 c 0
 191 479 180 493 160 493 c 0
 140 493 129 479 129 460 c 0
129 160 m 0
 129 141 140 127 160 127 c 0
 180 127 191 141 191 160 c 0
 191 179 180 193 160 193 c 0
 140 193 129 179 129 160 c 0
50 427 m 0
 47 437 45 448 45 460 c 0
 45 525 95 565 160 565 c 0
 225 565 275 525 275 460 c 0
 275 441 271 424 263 409 c 1
 267 410 271 410 275 410 c 2
 285 410 l 2
 341 410 370 466 370 545 c 1
 495 530 l 1
 495 425 428 335 290 335 c 2
 215 335 l 2
 123 335 66 373 50 427 c 0
50 127 m 0
 47 137 45 148 45 160 c 0
 45 225 95 265 160 265 c 0
 225 265 275 225 275 160 c 0
 275 141 271 124 263 109 c 1
 267 110 271 110 275 110 c 2
 285 110 l 2
 341 110 370 166 370 245 c 1
 495 230 l 1
 495 125 428 35 290 35 c 2
 215 35 l 2
 123 35 66 73 50 127 c 0
EndSplineSet
PickledDataWithLists: "(dp0
Vcom.fontlab.hintData
p1
(dp2
Vvhints
p3
(lp4
(dp5
Vwidth
p6
L10L
sVposition
p7
L51L
sa(dp8
g6
L10L
sg7
L60L
sa(dp9
g6
L10L
sg7
L139L
sa(dp10
g6
L10L
sg7
L144L
sa(dp11
g6
L10L
sg7
L154L
sa(dp12
g6
L10L
sg7
L450L
sasVhhints
p13
(lp14
(dp15
g6
L10L
sg7
L60L
sa(dp16
g6
L10L
sg7
L122L
sa(dp17
g6
L10L
sg7
L228L
sa(dp18
g6
L10L
sg7
L360L
sa(dp19
g6
L10L
sg7
L421L
sa(dp20
g6
L10L
sg7
L536L
sass."
EndChar

StartChar: uni0E31
Encoding: 449 3633 179
GlifName: uni0E_31
Width: 0
VWidth: 0
GlyphClass: 4
Flags: MW
AnchorPoint: "ThaiExtendedAbove.mkmk" 0 0 basemark 0
AnchorPoint: "ThaiAbove.mark" 0 0 mark 0
LayerCount: 2
Fore
SplineSet
-70 886 m 1
 40 874 l 1
 40 764 -35 694 -145 694 c 2
 -215 694 l 2
 -307 694 -370 737 -370 810 c 0
 -370 867 -327 902 -270 902 c 0
 -213 902 -170 867 -170 810 c 0
 -170 792 -175 777 -182 764 c 1
 -180 764 -177 764 -175 764 c 2
 -165 764 l 2
 -111 764 -70 788 -70 886 c 1
-270 839 m 0
 -288 839 -298 827 -298 810 c 0
 -298 793 -288 781 -270 781 c 0
 -252 781 -242 793 -242 810 c 0
 -242 827 -252 839 -270 839 c 0
EndSplineSet
PickledDataWithLists: "(dp0
Vcom.fontlab.hintData
p1
(dp2
Vvhints
p3
(lp4
(dp5
Vwidth
p6
L10L
sVposition
p7
L-391L
sa(dp8
g6
L10L
sg7
L-313L
sa(dp9
g6
L10L
sg7
L-306L
sa(dp10
g6
L10L
sg7
L55L
sasVhhints
p11
(lp12
(dp13
g6
L10L
sg7
L717L
sa(dp14
g6
L10L
sg7
L772L
sa(dp15
g6
L10L
sg7
L882L
sa(dp16
g6
L10L
sg7
L952L
sass."
Substitution2: "Thai.sl subtable" uni0E31.sl
EndChar

StartChar: uni0E32
Encoding: 450 3634 180
GlifName: uni0E_32
Width: 485
VWidth: 0
GlyphClass: 2
Flags: MW
LayerCount: 2
Fore
SplineSet
0 462 m 1
 11 535 76 621 210 621 c 0
 345 621 420 532 420 436 c 2
 420 0 l 1
 270 0 l 1
 270 436 l 2
 270 500 237 511 210 511 c 0
 182 511 157 497 150 450 c 1
 0 462 l 1
EndSplineSet
PickledDataWithLists: "(dp0
Vcom.fontlab.hintData
p1
(dp2
Vvhints
p3
(lp4
(dp5
Vwidth
p6
L10L
sVposition
p7
L15L
sa(dp8
g6
L10L
sg7
L291L
sa(dp9
g6
L10L
sg7
L312L
sa(dp10
g6
L10L
sg7
L379L
sa(dp11
g6
L10L
sg7
L400L
sasVhhints
p12
(lp13
(dp14
g6
L10L
sg7
L-25L
sa(dp15
g6
L10L
sg7
L399L
sa(dp16
g6
L10L
sg7
L545L
sa(dp17
g6
L10L
sg7
L606L
sass."
EndChar

StartChar: uni0E34
Encoding: 452 3636 182
GlifName: uni0E_34
Width: 0
VWidth: 0
GlyphClass: 4
Flags: MW
AnchorPoint: "ThaiExtendedAbove.mkmk" 0 0 basemark 0
AnchorPoint: "ThaiAbove.mark" 0 0 mark 0
LayerCount: 2
Fore
SplineSet
-413 778 m 1
 -205 741 l 1
 -232 779 -277 820 -345 820 c 0
 -373 820 -400 809 -413 778 c 1
-90 685 m 1
 -100 665 l 1
 -540 735 l 1
 -540 810 -487 900 -350 900 c 0
 -160 900 -97 707 -90 685 c 1
EndSplineSet
PickledDataWithLists: "(dp0
Vcom.fontlab.hintData
p1
(dp2
Vvhints
p3
(lp4
(dp5
Vwidth
p6
L10L
sVposition
p7
L-534L
sa(dp8
g6
L10L
sg7
L-456L
sasVhhints
p9
(lp10
(dp11
g6
L10L
sg7
L682L
sa(dp12
g6
L9L
sg7
L871L
sa(dp13
g6
L10L
sg7
L919L
sass."
Substitution2: "Thai.sl subtable" uni0E34.sl
EndChar

StartChar: uni0E35
Encoding: 453 3637 183
GlifName: uni0E_35
Width: 0
VWidth: 0
GlyphClass: 4
Flags: MW
AnchorPoint: "ThaiExtendedAbove.mkmk" 0 0 basemark 0
AnchorPoint: "ThaiAbove.mark" 0 0 mark 0
LayerCount: 2
Fore
SplineSet
-190 845 m 2
 -190 905 l 1
 -80 885 l 1
 -80 675 l 1
 -95 660 l 1
 -540 730 l 1
 -540 805 -487 895 -360 895 c 0
 -275 895 -216 845 -178 793 c 1
 -185 813 -190 831 -190 845 c 2
-413 773 m 1
 -186 732 l 1
 -216 770 -267 815 -345 815 c 0
 -373 815 -400 804 -413 773 c 1
EndSplineSet
PickledDataWithLists: "(dp0
Vcom.fontlab.hintData
p1
(dp2
Vvhints
p3
(lp4
(dp5
Vwidth
p6
L10L
sVposition
p7
L-530L
sa(dp8
g6
L10L
sg7
L-460L
sa(dp9
g6
L10L
sg7
L-189L
sa(dp10
g6
L10L
sg7
L-175L
sa(dp11
g6
L10L
sg7
L-116L
sasVhhints
p12
(lp13
(dp14
g6
L10L
sg7
L691L
sa(dp15
g6
L10L
sg7
L861L
sa(dp16
g6
L10L
sg7
L909L
sa(dp17
g6
L10L
sg7
L929L
sass."
Substitution2: "Thai.sl subtable" uni0E35.sl
EndChar

StartChar: uni0E36
Encoding: 454 3638 184
GlifName: uni0E_36
Width: 0
VWidth: 0
GlyphClass: 4
Flags: MW
AnchorPoint: "ThaiExtendedAbove.mkmk" 0 0 basemark 0
AnchorPoint: "ThaiAbove.mark" 0 0 mark 0
LayerCount: 2
Fore
SplineSet
-206 785 m 0
 -206 766 -195 752 -175 752 c 0
 -155 752 -144 766 -144 785 c 0
 -144 804 -155 818 -175 818 c 0
 -195 818 -206 804 -206 785 c 0
-412 775 m 1
 -287 758 l 1
 -289 766 -290 775 -290 785 c 0
 -290 791 -290 797 -289 802 c 1
 -304 810 -322 815 -345 815 c 0
 -372 815 -399 804 -412 775 c 1
-540 730 m 1
 -540 805 -487 895 -360 895 c 0
 -316 895 -285 880 -259 860 c 1
 -238 879 -208 890 -175 890 c 0
 -110 890 -60 850 -60 785 c 0
 -60 720 -110 680 -175 680 c 0
 -199 680 -222 685 -240 696 c 1
 -540 730 l 1
EndSplineSet
PickledDataWithLists: "(dp0
Vcom.fontlab.hintData
p1
(dp2
Vvhints
p3
(lp4
(dp5
Vwidth
p6
L10L
sVposition
p7
L-544L
sa(dp8
g6
L10L
sg7
L-466L
sa(dp9
g6
L10L
sg7
L-208L
sa(dp10
g6
L10L
sg7
L-134L
sa(dp11
g6
L10L
sg7
L-84L
sasVhhints
p12
(lp13
(dp14
g6
L10L
sg7
L689L
sa(dp15
g6
L10L
sg7
L723L
sa(dp16
g6
L21L
sg7
L824L
sa(dp17
g6
L10L
sg7
L861L
sa(dp18
g6
L10L
sg7
L892L
sa(dp19
g6
L10L
sg7
L909L
sass."
Substitution2: "Thai.sl subtable" uni0E36.sl
EndChar

StartChar: uni0E37
Encoding: 455 3639 185
GlifName: uni0E_37
Width: 0
VWidth: 0
GlyphClass: 4
Flags: MW
AnchorPoint: "ThaiExtendedAbove.mkmk" 0 0 basemark 0
AnchorPoint: "ThaiAbove.mark" 0 0 mark 0
LayerCount: 2
Fore
SplineSet
-290 895 m 2
 -290 930 l 1
 -200 910 l 1
 -200 734 l 1
 -160 726 l 1
 -166 738 -170 751 -170 765 c 2
 -170 905 l 1
 -80 885 l 1
 -80 675 l 1
 -95 660 l 1
 -540 730 l 1
 -540 805 -497 895 -370 895 c 0
 -332 895 -303 883 -280 865 c 1
 -286 877 -290 888 -290 895 c 2
-414 773 m 1
 -232 740 l 1
 -258 783 -303 815 -355 815 c 0
 -383 815 -404 804 -414 773 c 1
EndSplineSet
PickledDataWithLists: "(dp0
Vcom.fontlab.hintData
p1
(dp2
Vvhints
p3
(lp4
(dp5
Vwidth
p6
L10L
sVposition
p7
L-554L
sa(dp8
g6
L10L
sg7
L-476L
sa(dp9
g6
L10L
sg7
L-280L
sa(dp10
g6
L10L
sg7
L-218L
sa(dp11
g6
L10L
sg7
L-159L
sa(dp12
g6
L10L
sg7
L-148L
sa(dp13
g6
L10L
sg7
L-100L
sasVhhints
p14
(lp15
(dp16
g6
L10L
sg7
L698L
sa(dp17
g6
L10L
sg7
L861L
sa(dp18
g6
L10L
sg7
L909L
sa(dp19
g6
L10L
sg7
L922L
sa(dp20
g6
L10L
sg7
L932L
sass."
Substitution2: "Thai.sl subtable" uni0E37.sl
EndChar

StartChar: uni0E38
Encoding: 456 3640 186
GlifName: uni0E_38
Width: 0
VWidth: 0
GlyphClass: 4
Flags: MW
AnchorPoint: "ThaiExtendedBelow.mkmk" 0 0 mark 0
AnchorPoint: "ThaiExtendedBelow.mkmk" 0 -280 basemark 0
AnchorPoint: "ThaiBelow.mark" 0 0 mark 0
LayerCount: 2
Fore
SplineSet
-180 -121 m 0
 -198 -121 -208 -133 -208 -150 c 0
 -208 -167 -198 -179 -180 -179 c 0
 -162 -179 -152 -167 -152 -150 c 0
 -152 -133 -162 -121 -180 -121 c 0
-85 -245 m 2
 -85 -305 l 1
 -185 -305 l 1
 -185 -265 l 2
 -185 -256 -183 -249 -179 -242 c 1
 -180 -242 l 0
 -237 -242 -280 -207 -280 -150 c 0
 -280 -93 -237 -58 -180 -58 c 0
 -123 -58 -80 -93 -80 -150 c 0
 -80 -192 -85 -207 -85 -245 c 2
EndSplineSet
PickledDataWithLists: "(dp0
Vcom.fontlab.hintData
p1
(dp2
Vvhints
p3
(lp4
(dp5
Vwidth
p6
L10L
sVposition
p7
L-285L
sa(dp8
g6
L10L
sg7
L-185L
sa(dp9
g6
L10L
sg7
L-104L
sasVhhints
p10
(lp11
(dp12
g6
L10L
sg7
L-322L
sa(dp13
g6
L10L
sg7
L-172L
sa(dp14
g6
L10L
sg7
L-98L
sass."
Substitution2: "ThaiBV.sd subtable" uni0E38.sd
EndChar

StartChar: uni0E39
Encoding: 457 3641 187
GlifName: uni0E_39
Width: 0
VWidth: 0
GlyphClass: 4
Flags: MW
AnchorPoint: "ThaiExtendedBelow.mkmk" 0 0 mark 0
AnchorPoint: "ThaiExtendedBelow.mkmk" 0 -280 basemark 0
AnchorPoint: "ThaiBelow.mark" -30 0 mark 0
LayerCount: 2
Fore
SplineSet
-340 -121 m 0
 -358 -121 -368 -133 -368 -150 c 0
 -368 -167 -358 -179 -340 -179 c 0
 -322 -179 -312 -167 -312 -150 c 0
 -312 -133 -322 -121 -340 -121 c 0
-345 -242 m 1
 -399 -240 -440 -205 -440 -150 c 0
 -440 -93 -397 -58 -340 -58 c 0
 -283 -58 -240 -93 -240 -150 c 0
 -240 -185 -250 -196 -250 -215 c 2
 -250 -225 l 2
 -250 -234 -245 -245 -215 -245 c 0
 -185 -245 -180 -234 -180 -225 c 2
 -180 -65 l 1
 -80 -65 l 1
 -80 -235 l 2
 -80 -283 -134 -310 -215 -310 c 0
 -296 -310 -345 -293 -345 -245 c 2
 -345 -242 l 1
EndSplineSet
PickledDataWithLists: "(dp0
Vcom.fontlab.hintData
p1
(dp2
Vvhints
p3
(lp4
(dp5
Vwidth
p6
L10L
sVposition
p7
L-401L
sa(dp8
g6
L10L
sg7
L-115L
sasVhhints
p9
(lp10
(dp11
g6
L10L
sg7
L-331L
sa(dp12
g6
L21L
sg7
L-267L
sa(dp13
g6
L10L
sg7
L-154L
sa(dp14
g6
L10L
sg7
L-106L
sass."
Substitution2: "ThaiBV.sd subtable" uni0E39.sd
EndChar

StartChar: uni0E3A
Encoding: 458 3642 188
GlifName: uni0E_3A_
Width: 0
VWidth: 0
GlyphClass: 4
Flags: MW
AnchorPoint: "ThaiExtendedBelow.mkmk" 0 0 mark 0
AnchorPoint: "ThaiExtendedBelow.mkmk" 0 -210 basemark 0
AnchorPoint: "ThaiBelow.mark" 0 0 mark 0
LayerCount: 2
Fore
SplineSet
-245 -150 m 0
 -245 -96 -204 -62 -150 -62 c 0
 -96 -62 -55 -96 -55 -150 c 0
 -55 -204 -96 -238 -150 -238 c 0
 -204 -238 -245 -204 -245 -150 c 0
EndSplineSet
PickledDataWithLists: "(dp0
Vcom.fontlab.hintData
p1
(dp2
Vvhints
p3
(lp4
(dp5
Vwidth
p6
L10L
sVposition
p7
L-229L
sa(dp8
g6
L10L
sg7
L-81L
sasVhhints
p9
(lp10
(dp11
g6
L10L
sg7
L-231L
sa(dp12
g6
L10L
sg7
L-110L
sass."
Substitution2: "ThaiBV.sd subtable" uni0E3A.sd
EndChar

StartChar: uni0E3F
Encoding: 459 3647 189
GlifName: uni0E_3F_
Width: 720
VWidth: 0
GlyphClass: 2
Flags: MW
LayerCount: 2
Fore
SplineSet
330 464 m 1
 375 470 425 502 425 575 c 0
 425 643 373 670 285 670 c 0
 267 670 249 670 235 669 c 1
 235 463 l 1
 264 464 295 464 330 464 c 1
501 440 m 1
 603 406 665 337 665 235 c 0
 665 102 559 13 395 -5 c 1
 395 -120 l 1
 275 -120 l 1
 275 -9 l 1
 162 -7 75 0 75 0 c 2
 75 780 l 1
 75 780 164 788 275 789 c 1
 275 900 l 1
 395 900 l 1
 395 780 l 1
 508 757 590 691 590 590 c 0
 590 519 553 471 501 440 c 1
235 113 m 1
 256 112 282 111 310 111 c 0
 412 111 499 136 499 235 c 0
 499 334 412 354 310 354 c 0
 282 354 256 353 235 352 c 1
 235 113 l 1
EndSplineSet
PickledDataWithLists: "(dp0
Vcom.fontlab.hintData
p1
(dp2
Vvhints
p3
(lp4
(dp5
Vwidth
p6
L10L
sVposition
p7
L26L
sa(dp8
g6
L10L
sg7
L116L
sa(dp9
g6
L10L
sg7
L121L
sa(dp10
g6
L10L
sg7
L223L
sa(dp11
g6
L10L
sg7
L343L
sa(dp12
g6
L10L
sg7
L350L
sa(dp13
g6
L10L
sg7
L407L
sa(dp14
g6
L10L
sg7
L412L
sa(dp15
g6
L10L
sg7
L537L
sa(dp16
g6
L10L
sg7
L636L
sa(dp17
g6
L10L
sg7
L735L
sasVhhints
p18
(lp19
(dp20
g6
L10L
sg7
L-127L
sa(dp21
g6
L10L
sg7
L-22L
sa(dp22
g6
L10L
sg7
L49L
sa(dp23
g6
L10L
sg7
L395L
sa(dp24
g6
L10L
sg7
L634L
sa(dp25
g6
L10L
sg7
L661L
sa(dp26
g6
L10L
sg7
L916L
sass."
EndChar

StartChar: uni0E40
Encoding: 460 3648 190
GlifName: uni0E_40
Width: 330
VWidth: 0
GlyphClass: 2
Flags: MW
LayerCount: 2
Fore
SplineSet
159 94 m 0
 159 75 170 61 190 61 c 0
 210 61 221 75 221 94 c 0
 221 113 210 127 190 127 c 0
 170 127 159 113 159 94 c 0
221 196 m 1
 270 185 305 148 305 94 c 0
 305 29 255 -11 190 -11 c 0
 125 -11 75 29 75 94 c 0
 75 142 85 163 85 210 c 2
 85 600 l 1
 235 600 l 1
 235 240 l 2
 235 222 229 208 221 196 c 1
EndSplineSet
PickledDataWithLists: "(dp0
Vcom.fontlab.hintData
p1
(dp2
Vvhints
p3
(lp4
(dp5
Vwidth
p6
L10L
sVposition
p7
L116L
sa(dp8
g6
L10L
sg7
L121L
sa(dp9
g6
L10L
sg7
L204L
sa(dp10
g6
L10L
sg7
L209L
sa(dp11
g6
L10L
sg7
L244L
sasVhhints
p12
(lp13
(dp14
g6
L10L
sg7
L-30L
sa(dp15
g6
L10L
sg7
L586L
sass."
EndChar

StartChar: uni0E42
Encoding: 462 3650 192
GlifName: uni0E_42
Width: 380
VWidth: 0
GlyphClass: 2
Flags: MW
LayerCount: 2
Fore
SplineSet
204 94 m 0
 204 75 215 61 235 61 c 0
 255 61 266 75 266 94 c 0
 266 113 255 127 235 127 c 0
 215 127 204 113 204 94 c 0
137 752 m 1
 231 736 280 694 280 600 c 2
 280 240 l 2
 280 222 274 208 266 196 c 1
 315 185 350 148 350 94 c 0
 350 29 300 -11 235 -11 c 0
 170 -11 120 29 120 94 c 0
 120 142 130 163 130 210 c 2
 130 600 l 2
 130 679 102 695 -5 695 c 1
 -5 730 l 2
 -5 829 65 915 195 915 c 0
 251 915 294 892 324 866 c 1
 326 871 328 876 330 880 c 2
 345 909 l 1
 455 888 l 1
 455 882 l 1
 360 764 l 1
 315 764 l 1
 298 785 269 815 215 815 c 0
 177 815 145 796 137 752 c 1
EndSplineSet
PickledDataWithLists: "(dp0
Vcom.fontlab.hintData
p1
(dp2
Vvhints
p3
(lp4
(dp5
Vwidth
p6
L10L
sVposition
p7
L37L
sa(dp8
g6
L10L
sg7
L165L
sa(dp9
g6
L10L
sg7
L175L
sa(dp10
g6
L10L
sg7
L248L
sa(dp11
g6
L10L
sg7
L257L
sa(dp12
g6
L10L
sg7
L268L
sa(dp13
g6
L10L
sg7
L517L
sasVhhints
p14
(lp15
(dp16
g6
L10L
sg7
L-29L
sa(dp17
g6
L10L
sg7
L924L
sa(dp18
g6
L10L
sg7
L984L
sass."
EndChar

StartChar: uni0E43
Encoding: 463 3651 193
GlifName: uni0E_43
Width: 380
VWidth: 0
GlyphClass: 2
Flags: MW
LayerCount: 2
Fore
SplineSet
200 838 m 1
 216 821 225 798 225 770 c 0
 225 705 175 665 110 665 c 0
 45 665 -5 705 -5 770 c 0
 -5 846 63 915 189 915 c 0
 315 915 385 847 385 755 c 0
 385 636 280 613 280 510 c 2
 280 240 l 2
 280 222 274 208 266 196 c 1
 315 185 350 148 350 94 c 0
 350 29 300 -11 235 -11 c 0
 170 -11 120 29 120 94 c 0
 120 142 130 163 130 210 c 2
 130 510 l 2
 130 634 275 663 275 765 c 0
 275 808 248 832 200 838 c 1
204 94 m 0
 204 75 215 61 235 61 c 0
 255 61 266 75 266 94 c 0
 266 113 255 127 235 127 c 0
 215 127 204 113 204 94 c 0
79 770 m 0
 79 751 90 737 110 737 c 0
 130 737 141 751 141 770 c 0
 141 789 130 803 110 803 c 0
 90 803 79 789 79 770 c 0
EndSplineSet
PickledDataWithLists: "(dp0
Vcom.fontlab.hintData
p1
(dp2
Vvhints
p3
(lp4
(dp5
Vwidth
p6
L10L
sVposition
p7
L1L
sa(dp8
g6
L10L
sg7
L82L
sa(dp9
g6
L10L
sg7
L189L
sa(dp10
g6
L10L
sg7
L232L
sa(dp11
g6
L10L
sg7
L270L
sa(dp12
g6
L10L
sg7
L279L
sa(dp13
g6
L10L
sg7
L311L
sasVhhints
p14
(lp15
(dp16
g6
L10L
sg7
L-24L
sa(dp17
g6
L10L
sg7
L642L
sa(dp18
g6
L10L
sg7
L948L
sa(dp19
g6
L10L
sg7
L1002L
sass."
EndChar

StartChar: uni0E44
Encoding: 464 3652 194
GlifName: uni0E_44
Width: 380
VWidth: 0
GlyphClass: 2
Flags: MW
LayerCount: 2
Fore
SplineSet
-5 878 m 1
 -5 884 l 1
 95 911 l 1
 125 850 l 2
 133 833 141 813 147 796 c 1
 158 814 170 834 180 850 c 0
 191 868 215 911 285 911 c 0
 365 911 390 856 390 820 c 0
 390 719 280 654 280 510 c 2
 280 240 l 2
 280 222 274 208 266 196 c 1
 315 185 350 148 350 94 c 0
 350 29 300 -11 235 -11 c 0
 170 -11 120 29 120 94 c 0
 120 142 130 163 130 210 c 2
 130 510 l 2
 130 621 287 765 287 815 c 0
 287 823 280 835 270 835 c 1
 262 825 240 795 240 795 c 1
 165 690 l 1
 110 690 l 1
 -5 878 l 1
204 94 m 0
 204 75 215 61 235 61 c 0
 255 61 266 75 266 94 c 0
 266 113 255 127 235 127 c 0
 215 127 204 113 204 94 c 0
EndSplineSet
PickledDataWithLists: "(dp0
Vcom.fontlab.hintData
p1
(dp2
Vvhints
p3
(lp4
(dp5
Vwidth
p6
L10L
sVposition
p7
L-47L
sa(dp8
g6
L10L
sg7
L152L
sa(dp9
g6
L10L
sg7
L234L
sa(dp10
g6
L10L
sg7
L415L
sasVhhints
p11
(lp12
(dp13
g6
L10L
sg7
L-28L
sa(dp14
g6
L10L
sg7
L849L
sa(dp15
g6
L10L
sg7
L906L
sa(dp16
g6
L10L
sg7
L1003L
sass."
EndChar

StartChar: uni0E45
Encoding: 465 3653 195
GlifName: uni0E_45
Width: 485
VWidth: 0
GlyphClass: 2
Flags: MW
LayerCount: 2
Fore
SplineSet
0 462 m 1
 11 535 76 621 210 621 c 0
 345 621 420 532 420 436 c 2
 420 -210 l 1
 270 -210 l 1
 270 436 l 2
 270 500 237 511 210 511 c 0
 182 511 157 497 150 450 c 1
 0 462 l 1
EndSplineSet
PickledDataWithLists: "(dp0
Vcom.fontlab.hintData
p1
(dp2
Vvhints
p3
(lp4
(dp5
Vwidth
p6
L10L
sVposition
p7
L15L
sa(dp8
g6
L10L
sg7
L291L
sa(dp9
g6
L10L
sg7
L312L
sa(dp10
g6
L10L
sg7
L379L
sa(dp11
g6
L10L
sg7
L400L
sasVhhints
p12
(lp13
(dp14
g6
L10L
sg7
L-245L
sa(dp15
g6
L10L
sg7
L399L
sa(dp16
g6
L10L
sg7
L545L
sa(dp17
g6
L10L
sg7
L606L
sass."
EndChar

StartChar: uni0E46
Encoding: 466 3654 196
GlifName: uni0E_46
Width: 590
VWidth: 0
Flags: MW
LayerCount: 2
Fore
SplineSet
174 315 m 0
 174 296 185 282 205 282 c 0
 225 282 236 296 236 315 c 0
 236 334 225 348 205 348 c 0
 185 348 174 334 174 315 c 0
186 500 m 1
 168 477 157 451 155 411 c 1
 170 417 187 420 205 420 c 0
 270 420 320 380 320 315 c 0
 320 250 270 210 205 210 c 0
 97 210 35 297 35 400 c 0
 35 560 139 615 185 615 c 1
 280 540 l 1
 375 615 l 1
 421 615 525 560 525 400 c 2
 525 -210 l 1
 375 -210 l 1
 375 400 l 2
 375 438 367 464 354 486 c 1
 290 440 l 1
 280 440 l 1
 270 440 l 1
 186 500 l 1
EndSplineSet
PickledDataWithLists: "(dp0
Vcom.fontlab.hintData
p1
(dp2
Vvhints
p3
(lp4
(dp5
Vwidth
p6
L10L
sVposition
p7
L54L
sa(dp8
g6
L10L
sg7
L136L
sa(dp9
g6
L10L
sg7
L262L
sa(dp10
g6
L10L
sg7
L434L
sa(dp11
g6
L10L
sg7
L444L
sa(dp12
g6
L10L
sg7
L516L
sa(dp13
g6
L10L
sg7
L526L
sasVhhints
p14
(lp15
(dp16
g6
L10L
sg7
L-244L
sa(dp17
g6
L10L
sg7
L216L
sa(dp18
g6
L10L
sg7
L274L
sa(dp19
g6
L10L
sg7
L390L
sa(dp20
g6
L10L
sg7
L536L
sa(dp21
g6
L10L
sg7
L588L
sa(dp22
g6
L10L
sg7
L594L
sass."
EndChar

StartChar: uni0E47
Encoding: 467 3655 197
GlifName: uni0E_47
Width: 0
VWidth: 0
GlyphClass: 4
Flags: MW
AnchorPoint: "ThaiExtendedAbove.mkmk" -80 0 basemark 0
AnchorPoint: "ThaiAbove.mark" 0 0 mark 0
LayerCount: 2
Fore
SplineSet
-450 785 m 0
 -450 863 -392 905 -295 905 c 2
 -190 905 l 2
 -153 905 -120 910 -95 930 c 1
 -60 865 l 1
 -96 839 -138 835 -185 835 c 2
 -295 835 l 2
 -342 835 -360 816 -360 785 c 0
 -360 761 -350 745 -324 738 c 1
 -290 795 l 1
 -280 795 l 1
 -253 777 l 1
 -240 808 -208 826 -170 826 c 0
 -119 826 -80 794 -80 743 c 0
 -80 692 -119 660 -170 660 c 0
 -215 660 -250 685 -258 726 c 1
 -295 665 l 1
 -392 665 -450 707 -450 785 c 0
-170 769 m 0
 -186 769 -195 758 -195 743 c 0
 -195 728 -186 717 -170 717 c 0
 -154 717 -145 728 -145 743 c 0
 -145 758 -154 769 -170 769 c 0
EndSplineSet
PickledDataWithLists: "(dp0
Vcom.fontlab.hintData
p1
(dp2
Vvhints
p3
(lp4
(dp5
Vwidth
p6
L10L
sVposition
p7
L-460L
sa(dp8
g6
L10L
sg7
L-390L
sa(dp9
g6
L10L
sg7
L-265L
sa(dp10
g6
L10L
sg7
L-100L
sa(dp11
g6
L10L
sg7
L-71L
sasVhhints
p12
(lp13
(dp14
g6
L10L
sg7
L691L
sa(dp15
g6
L10L
sg7
L739L
sa(dp16
g6
L10L
sg7
L806L
sa(dp17
g6
L10L
sg7
L861L
sa(dp18
g6
L10L
sg7
L909L
sa(dp19
g6
L10L
sg7
L929L
sass."
Substitution2: "Thai.sul subtable" uni0E47.sul
Substitution2: "Thai.su subtable" uni0E47.su
Substitution2: "Thai.sl subtable" uni0E47.sl
EndChar

StartChar: uni0E48
Encoding: 468 3656 198
GlifName: uni0E_48
Width: 0
VWidth: 0
GlyphClass: 4
Flags: MW
AnchorPoint: "ThaiExtendedAbove.mkmk" 0 0 mark 0
AnchorPoint: "ThaiExtendedAbove.mkmk" 0 240 basemark 0
LayerCount: 2
Fore
SplineSet
-80 945 m 1
 -190 965 l 1
 -190 1140 l 1
 -80 1140 l 1
 -80 945 l 1
EndSplineSet
PickledDataWithLists: "(dp0
Vcom.fontlab.hintData
p1
(dp2
Vvhints
p3
(lp4
(dp5
Vwidth
p6
L10L
sVposition
p7
L-127L
sasVhhints
p8
(lp9
(dp10
g6
L10L
sg7
L985L
sa(dp11
g6
L10L
sg7
L1197L
sass."
Substitution2: "Thai.sl subtable" uni0E48.sl
Substitution2: "Thai.sdl subtable" uni0E48.sdl
Substitution2: "Thai.sd subtable" uni0E48.sd
Substitution2: "ThaiT.0E4D subtable" uni0E4D
EndChar

StartChar: uni0E49
Encoding: 469 3657 199
GlifName: uni0E_49
Width: 0
VWidth: 0
GlyphClass: 4
Flags: MW
AnchorPoint: "ThaiExtendedAbove.mkmk" 0 0 mark 0
AnchorPoint: "ThaiExtendedAbove.mkmk" 0 240 basemark 0
LayerCount: 2
Fore
SplineSet
-303 1070 m 0
 -303 1059 -297 1051 -285 1051 c 0
 -273 1051 -267 1059 -267 1070 c 0
 -267 1081 -273 1089 -285 1089 c 0
 -297 1089 -303 1081 -303 1070 c 0
-258 1015 m 1
 -266 1012 -275 1010 -285 1010 c 0
 -322 1010 -350 1033 -350 1070 c 0
 -350 1107 -322 1130 -285 1130 c 0
 -229 1130 -200 1094 -195 1045 c 0
 -194 1032 -193 1019 -192 1008 c 1
 -161 1019 -135 1051 -135 1130 c 1
 -30 1115 l 1
 -30 1003 -110 950 -230 950 c 2
 -255 950 l 1
 -255 965 l 2
 -255 985 -257 1001 -258 1015 c 1
EndSplineSet
PickledDataWithLists: "(dp0
Vcom.fontlab.hintData
p1
(dp2
Vvhints
p3
(lp4
(dp5
Vwidth
p6
L10L
sVposition
p7
L-309L
sa(dp8
g6
L10L
sg7
L-263L
sa(dp9
g6
L10L
sg7
L-247L
sa(dp10
g6
L10L
sg7
L-188L
sa(dp11
g6
L10L
sg7
L7L
sasVhhints
p12
(lp13
(dp14
g6
L10L
sg7
L990L
sa(dp15
g6
L10L
sg7
L1197L
sass."
Substitution2: "Thai.sl subtable" uni0E49.sl
Substitution2: "Thai.sdl subtable" uni0E49.sdl
Substitution2: "Thai.sd subtable" uni0E49.sd
Substitution2: "ThaiT.0E4D subtable" uni0E4D
EndChar

StartChar: uni0E4A
Encoding: 470 3658 200
GlifName: uni0E_4A_
Width: 0
VWidth: 0
GlyphClass: 4
Flags: MW
AnchorPoint: "ThaiExtendedAbove.mkmk" 0 0 mark 0
AnchorPoint: "ThaiExtendedAbove.mkmk" 0 240 basemark 0
LayerCount: 2
Fore
SplineSet
-230 1021 m 0
 -242 1021 -248 1013 -248 1002 c 0
 -248 991 -242 983 -230 983 c 0
 -218 983 -212 991 -212 1002 c 0
 -212 1013 -218 1021 -230 1021 c 0
-230 1062 m 0
 -193 1062 -165 1039 -165 1002 c 0
 -165 965 -193 942 -230 942 c 0
 -303 942 -320 994 -320 1032 c 0
 -320 1114 -253 1137 -235 1137 c 1
 -185 1112 l 1
 -135 1137 l 1
 -118 1137 -64 1115 -60 1040 c 1
 -53 1061 -48 1086 -45 1112 c 1
 30 1097 l 1
 19 1019 -37 948 -140 945 c 1
 -150 982 l 1
 -132 997 -125 1009 -125 1032 c 0
 -125 1059 -134 1072 -144 1080 c 1
 -182 1062 l 1
 -185 1062 l 1
 -188 1062 l 1
 -229 1082 l 1
 -236 1077 -241 1070 -245 1060 c 1
 -240 1061 -235 1062 -230 1062 c 0
EndSplineSet
PickledDataWithLists: "(dp0
Vcom.fontlab.hintData
p1
(dp2
Vvhints
p3
(lp4
(dp5
Vwidth
p6
L10L
sVposition
p7
L-365L
sa(dp8
g6
L10L
sg7
L-305L
sa(dp9
g6
L10L
sg7
L-243L
sa(dp10
g6
L10L
sg7
L-152L
sa(dp11
g6
L10L
sg7
L-130L
sa(dp12
g6
L10L
sg7
L-79L
sa(dp13
g6
L10L
sg7
L24L
sasVhhints
p14
(lp15
(dp16
g6
L10L
sg7
L980L
sa(dp17
g6
L10L
sg7
L1097L
sa(dp18
g6
L10L
sg7
L1185L
sa(dp19
g6
L10L
sg7
L1195L
sass."
Substitution2: "Thai.sl subtable" uni0E4A.sl
Substitution2: "Thai.sdl subtable" uni0E4A.sdl
Substitution2: "Thai.sd subtable" uni0E4A.sd
Substitution2: "ThaiT.0E4D subtable" uni0E4D
EndChar

StartChar: uni0E4B
Encoding: 471 3659 201
GlifName: uni0E_4B_
Width: 0
VWidth: 0
GlyphClass: 4
Flags: MW
AnchorPoint: "ThaiExtendedAbove.mkmk" 0 0 mark 0
AnchorPoint: "ThaiExtendedAbove.mkmk" 0 240 basemark 0
LayerCount: 2
Fore
SplineSet
-270 1015 m 1
 -270 1075 l 1
 -185 1075 l 1
 -185 1140 l 1
 -85 1140 l 1
 -85 1075 l 1
 0 1075 l 1
 0 1015 l 1
 -85 1015 l 1
 -85 945 l 1
 -185 965 l 1
 -185 1015 l 1
 -270 1015 l 1
EndSplineSet
PickledDataWithLists: "(dp0
Vcom.fontlab.hintData
p1
(dp2
Vvhints
p3
(lp4
(dp5
Vwidth
p6
L10L
sVposition
p7
L-193L
sa(dp8
g6
L10L
sg7
L-131L
sa(dp9
g6
L10L
sg7
L-23L
sasVhhints
p10
(lp11
(dp12
g6
L10L
sg7
L985L
sa(dp13
g6
L10L
sg7
L1073L
sa(dp14
g6
L10L
sg7
L1078L
sa(dp15
g6
L10L
sg7
L1117L
sa(dp16
g6
L10L
sg7
L1122L
sa(dp17
g6
L10L
sg7
L1207L
sass."
Substitution2: "Thai.sl subtable" uni0E4B.sl
Substitution2: "Thai.sdl subtable" uni0E4B.sdl
Substitution2: "Thai.sd subtable" uni0E4B.sd
Substitution2: "ThaiT.0E4D subtable" uni0E4D
EndChar

StartChar: uni0E4C
Encoding: 472 3660 202
GlifName: uni0E_4C_
Width: 0
VWidth: 0
GlyphClass: 4
Flags: MW
AnchorPoint: "ThaiExtendedAbove.mkmk" 0 0 mark 0
AnchorPoint: "ThaiExtendedAbove.mkmk" 0 240 basemark 0
LayerCount: 2
Fore
SplineSet
-180 1056 m 0
 -198 1056 -208 1044 -208 1027 c 0
 -208 1010 -198 998 -180 998 c 0
 -162 998 -152 1010 -152 1027 c 0
 -152 1044 -162 1056 -180 1056 c 0
-90 1181 m 1
 15 1169 l 1
 15 1117 -21 1078 -89 1068 c 1
 -83 1056 -80 1043 -80 1027 c 0
 -80 970 -123 935 -180 935 c 0
 -246 935 -285 976 -285 1027 c 0
 -285 1078 -254 1126 -180 1126 c 2
 -155 1126 l 2
 -111 1126 -90 1138 -90 1181 c 1
EndSplineSet
PickledDataWithLists: "(dp0
Vcom.fontlab.hintData
p1
(dp2
Vvhints
p3
(lp4
(dp5
Vwidth
p6
L10L
sVposition
p7
L-277L
sa(dp8
g6
L10L
sg7
L-200L
sa(dp9
g6
L10L
sg7
L-185L
sa(dp10
g6
L10L
sg7
L-10L
sasVhhints
p11
(lp12
(dp13
g6
L10L
sg7
L978L
sa(dp14
g6
L10L
sg7
L1212L
sass."
Substitution2: "Thai.sl subtable" uni0E4C.sl
Substitution2: "Thai.sdl subtable" uni0E4C.sdl
Substitution2: "Thai.sd subtable" uni0E4C.sd
Substitution2: "ThaiT.0E4D subtable" uni0E4D
EndChar

StartChar: uni0E4D
Encoding: 473 3661 203
GlifName: uni0E_4D_
Width: 0
VWidth: 0
GlyphClass: 4
Flags: MW
AnchorPoint: "ThaiExtendedAbove.mkmk" 0 0 basemark 0
AnchorPoint: "ThaiAbove.mark" 0 0 mark 0
LayerCount: 2
Fore
SplineSet
-65 780 m 0
 -65 715 -115 675 -180 675 c 0
 -245 675 -295 715 -295 780 c 0
 -295 845 -245 885 -180 885 c 0
 -115 885 -65 845 -65 780 c 0
-149 780 m 0
 -149 799 -160 813 -180 813 c 0
 -200 813 -211 799 -211 780 c 0
 -211 761 -200 747 -180 747 c 0
 -160 747 -149 761 -149 780 c 0
EndSplineSet
PickledDataWithLists: "(dp0
Vcom.fontlab.hintData
p1
(dp2
Vvhints
p3
(lp4
(dp5
Vwidth
p6
L10L
sVposition
p7
L-282L
sa(dp8
g6
L10L
sg7
L-218L
sa(dp9
g6
L10L
sg7
L-122L
sa(dp10
g6
L10L
sg7
L-58L
sasVhhints
p11
(lp12
(dp13
g6
L10L
sg7
L703L
sa(dp14
g6
L10L
sg7
L747L
sa(dp15
g6
L10L
sg7
L863L
sa(dp16
g6
L10L
sg7
L907L
sass."
Substitution2: "Thai.sul subtable" uni0E4D.sul
Substitution2: "Thai.su subtable" uni0E4D.su
Substitution2: "Thai.sl subtable" uni0E4D.sl
Substitution2: "Thai0E4D.0E4B subtable" uni0E4B
Substitution2: "Thai0E4D.0E4A subtable" uni0E4A
Substitution2: "Thai0E4D.0E49 subtable" uni0E49
Substitution2: "Thai0E4D.0E48 subtable" uni0E48
EndChar

StartChar: uni0E4E
Encoding: 474 3662 204
GlifName: uni0E_4E_
Width: 0
VWidth: 0
GlyphClass: 4
Flags: MW
AnchorPoint: "ThaiExtendedAbove.mkmk" 0 -240 mark 0
AnchorPoint: "ThaiAbove.mark" 0 0 mark 0
LayerCount: 2
Fore
SplineSet
-370 762 m 0
 -370 803 -337 848 -271 848 c 0
 -269 848 -266 848 -264 848 c 1
 -262 887 -237 930 -174 930 c 0
 -142 930 -114 916 -95 897 c 2
 -60 860 l 1
 -112 814 l 1
 -159 861 l 2
 -168 870 -174 870 -174 870 c 2
 -176 870 -196 864 -196 841 c 0
 -196 831 -194 823 -189 816 c 2
 -157 781 l 1
 -209 735 l 1
 -256 782 l 2
 -265 791 -271 791 -271 791 c 2
 -273 791 -290 785 -290 762 c 0
 -290 752 -286 742 -277 733 c 2
 -240 698 l 1
 -294 650 l 1
 -341 697 l 2
 -360 716 -370 740 -370 762 c 0
EndSplineSet
PickledDataWithLists: "(dp0
Vcom.fontlab.hintData
p1
(dp2
Vvhints
p3
(lp4
(dp5
Vwidth
p6
L10L
sVposition
p7
L-400L
sa(dp8
g6
L10L
sg7
L-363L
sa(dp9
g6
L10L
sg7
L-335L
sa(dp10
g6
L10L
sg7
L-298L
sa(dp11
g6
L10L
sg7
L-211L
sa(dp12
g6
L10L
sg7
L-192L
sa(dp13
g6
L10L
sg7
L-141L
sasVhhints
p14
(lp15
(dp16
g6
L10L
sg7
L661L
sa(dp17
g6
L10L
sg7
L709L
sa(dp18
g6
L10L
sg7
L805L
sa(dp19
g6
L10L
sg7
L853L
sa(dp20
g6
L10L
sg7
L930L
sa(dp21
g6
L10L
sg7
L943L
sa(dp22
g6
L10L
sg7
L989L
sass."
Substitution2: "Thai.sl subtable" uni0E4E.sl
EndChar

StartChar: uni0E4F
Encoding: 475 3663 205
GlifName: uni0E_4F_
Width: 660
VWidth: 0
GlyphClass: 2
Flags: MW
LayerCount: 2
Fore
SplineSet
299 300 m 0
 299 281 310 267 330 267 c 0
 350 267 361 281 361 300 c 0
 361 319 350 333 330 333 c 0
 310 333 299 319 299 300 c 0
215 300 m 0
 215 365 265 405 330 405 c 0
 395 405 445 365 445 300 c 0
 445 235 395 195 330 195 c 0
 265 195 215 235 215 300 c 0
330 40 m 0
 158 40 55 158 55 300 c 0
 55 442 158 560 330 560 c 0
 502 560 605 442 605 300 c 0
 605 158 502 40 330 40 c 0
330 120 m 0
 432 120 505 186 505 300 c 0
 505 414 432 480 330 480 c 0
 228 480 155 414 155 300 c 0
 155 186 228 120 330 120 c 0
EndSplineSet
PickledDataWithLists: "(dp0
Vcom.fontlab.hintData
p1
(dp2
Vvhints
p3
(lp4
(dp5
Vwidth
p6
L10L
sVposition
p7
L80L
sa(dp8
g6
L10L
sg7
L150L
sa(dp9
g6
L10L
sg7
L267L
sa(dp10
g6
L10L
sg7
L472L
sa(dp11
g6
L10L
sg7
L477L
sa(dp12
g6
L10L
sg7
L488L
sa(dp13
g6
L10L
sg7
L590L
sa(dp14
g6
L10L
sg7
L660L
sasVhhints
p15
(lp16
(dp17
g6
L10L
sg7
L1L
sa(dp18
g6
L10L
sg7
L49L
sa(dp19
g6
L10L
sg7
L199L
sa(dp20
g6
L10L
sg7
L391L
sa(dp21
g6
L10L
sg7
L523L
sa(dp22
g6
L10L
sg7
L531L
sa(dp23
g6
L10L
sg7
L543L
sa(dp24
g6
L10L
sg7
L579L
sass."
EndChar

StartChar: uni0E4F.extra
Encoding: 807 63616 206
GlifName: uni0E_4F_.extra
Width: 660
VWidth: 0
GlyphClass: 3
Flags: MW
LayerCount: 2
Fore
SplineSet
370 900 m 1
 490 900 l 1
 470 630 l 1
 390 630 l 1
 370 900 l 1
170 900 m 1
 290 900 l 1
 270 630 l 1
 190 630 l 1
 170 900 l 1
EndSplineSet
Refer: 205 3663 S 1 0 0 1 0 0 2
PickledDataWithLists: "(dp0
Vcom.fontlab.hintData
p1
(dp2
Vvhints
p3
(lp4
(dp5
Vwidth
p6
L10L
sVposition
p7
L80L
sa(dp8
g6
L10L
sg7
L150L
sa(dp9
g6
L10L
sg7
L227L
sa(dp10
g6
L10L
sg7
L267L
sa(dp11
g6
L10L
sg7
L316L
sa(dp12
g6
L10L
sg7
L424L
sa(dp13
g6
L10L
sg7
L433L
sa(dp14
g6
L10L
sg7
L472L
sa(dp15
g6
L10L
sg7
L477L
sa(dp16
g6
L10L
sg7
L488L
sa(dp17
g6
L10L
sg7
L513L
sa(dp18
g6
L10L
sg7
L590L
sa(dp19
g6
L10L
sg7
L660L
sasVhhints
p20
(lp21
(dp22
g6
L10L
sg7
L1L
sa(dp23
g6
L10L
sg7
L49L
sa(dp24
g6
L10L
sg7
L199L
sa(dp25
g6
L10L
sg7
L391L
sa(dp26
g6
L10L
sg7
L523L
sa(dp27
g6
L10L
sg7
L531L
sa(dp28
g6
L10L
sg7
L543L
sa(dp29
g6
L10L
sg7
L579L
sa(dp30
g6
L10L
sg7
L668L
sa(dp31
g6
L10L
sg7
L673L
sa(dp32
g6
L10L
sg7
L947L
sass."
Ligature2: "Thai.extra subtable" uni0E4F uni200D uni0E48 uni200D uni0E48
Ligature2: "Thai.extra subtable" uni0E4F uni0E48 uni0E48
Ligature2: "Thai.liga subtable" uni0E4F uni200D period uni200D period
Ligature2: "Thai.liga subtable" uni0E4F period period
Colour: ff00ff
EndChar

StartChar: uni0E50
Encoding: 476 3664 207
GlifName: uni0E_50
Width: 720
VWidth: 0
GlyphClass: 2
Flags: MW
LayerCount: 2
Fore
SplineSet
50 287 m 2
 50 313 l 2
 50 451 122 621 360 621 c 0
 598 621 670 451 670 313 c 2
 670 287 l 2
 670 149 598 -21 360 -21 c 0
 122 -21 50 149 50 287 c 2
360 89 m 0
 462 89 520 159 520 287 c 2
 520 313 l 2
 520 441 462 511 360 511 c 0
 258 511 200 441 200 313 c 2
 200 287 l 2
 200 159 258 89 360 89 c 0
EndSplineSet
PickledDataWithLists: "(dp0
Vcom.fontlab.hintData
p1
(dp2
Vvhints
p3
(lp4
(dp5
Vwidth
p6
L10L
sVposition
p7
L61L
sa(dp8
g6
L10L
sg7
L149L
sa(dp9
g6
L10L
sg7
L561L
sa(dp10
g6
L10L
sg7
L649L
sasVhhints
p11
(lp12
(dp13
g6
L10L
sg7
L-26L
sa(dp14
g6
L10L
sg7
L36L
sa(dp15
g6
L10L
sg7
L533L
sa(dp16
g6
L10L
sg7
L544L
sa(dp17
g6
L10L
sg7
L571L
sa(dp18
g6
L10L
sg7
L606L
sass."
EndChar

StartChar: uni0E51
Encoding: 477 3665 208
GlifName: uni0E_51
Width: 720
VWidth: 0
GlyphClass: 2
Flags: MW
LayerCount: 2
Fore
SplineSet
50 330 m 0
 50 459 133 621 360 621 c 0
 598 621 670 448 670 310 c 2
 670 290 l 2
 670 138 534 -29 312 -45 c 1
 298 65 l 1
 416 73 524 176 524 290 c 2
 524 310 l 2
 524 438 466 513 360 513 c 0
 257 513 190 441 190 330 c 0
 190 251 244 225 285 225 c 0
 298 225 310 227 322 230 c 1
 276 242 245 278 245 330 c 0
 245 395 295 435 360 435 c 0
 425 435 475 395 475 330 c 0
 475 233 405 135 263 135 c 0
 121 135 50 244 50 330 c 0
329 330 m 0
 329 311 340 297 360 297 c 0
 380 297 391 311 391 330 c 0
 391 349 380 363 360 363 c 0
 340 363 329 349 329 330 c 0
EndSplineSet
PickledDataWithLists: "(dp0
Vcom.fontlab.hintData
p1
(dp2
Vvhints
p3
(lp4
(dp5
Vwidth
p6
L10L
sVposition
p7
L61L
sa(dp8
g6
L10L
sg7
L149L
sa(dp9
g6
L10L
sg7
L290L
sa(dp10
g6
L10L
sg7
L311L
sa(dp11
g6
L10L
sg7
L399L
sa(dp12
g6
L10L
sg7
L561L
sa(dp13
g6
L10L
sg7
L649L
sasVhhints
p14
(lp15
(dp16
g6
L10L
sg7
L-36L
sa(dp17
g6
L10L
sg7
L144L
sa(dp18
g6
L10L
sg7
L206L
sa(dp19
g6
L10L
sg7
L320L
sa(dp20
g6
L10L
sg7
L544L
sa(dp21
g6
L10L
sg7
L606L
sass."
EndChar

StartChar: uni0E52
Encoding: 478 3666 209
GlifName: uni0E_52
Width: 810
VWidth: 0
GlyphClass: 2
Flags: MW
LayerCount: 2
Fore
SplineSet
65 205 m 2
 65 750 l 1
 210 750 l 1
 210 205 l 2
 210 138 262 110 290 110 c 2
 535 110 l 2
 563 110 615 138 615 205 c 2
 615 400 l 2
 615 441 606 468 591 491 c 1
 520 440 l 1
 510 440 l 1
 500 440 l 1
 416 500 l 1
 398 477 387 451 385 411 c 1
 400 417 417 420 435 420 c 0
 500 420 550 380 550 315 c 0
 550 250 500 210 435 210 c 0
 327 210 265 297 265 400 c 0
 265 560 369 615 415 615 c 1
 510 540 l 1
 605 615 l 1
 651 615 755 560 755 400 c 2
 755 205 l 2
 755 110 682 0 530 0 c 2
 290 0 l 2
 138 0 65 110 65 205 c 2
404 315 m 0
 404 296 415 282 435 282 c 0
 455 282 466 296 466 315 c 0
 466 334 455 348 435 348 c 0
 415 348 404 334 404 315 c 0
EndSplineSet
PickledDataWithLists: "(dp0
Vcom.fontlab.hintData
p1
(dp2
Vvhints
p3
(lp4
(dp5
Vwidth
p6
L10L
sVposition
p7
L89L
sa(dp8
g6
L10L
sg7
L101L
sa(dp9
g6
L10L
sg7
L183L
sa(dp10
g6
L10L
sg7
L249L
sa(dp11
g6
L10L
sg7
L331L
sa(dp12
g6
L10L
sg7
L463L
sa(dp13
g6
L10L
sg7
L528L
sa(dp14
g6
L10L
sg7
L634L
sa(dp15
g6
L10L
sg7
L716L
sa(dp16
g6
L10L
sg7
L721L
sasVhhints
p17
(lp18
(dp19
g6
L10L
sg7
L6L
sa(dp20
g6
L10L
sg7
L14L
sa(dp21
g6
L10L
sg7
L65L
sa(dp22
g6
L10L
sg7
L72L
sa(dp23
g6
L10L
sg7
L216L
sa(dp24
g6
L10L
sg7
L274L
sa(dp25
g6
L10L
sg7
L390L
sa(dp26
g6
L10L
sg7
L536L
sa(dp27
g6
L10L
sg7
L583L
sa(dp28
g6
L10L
sg7
L594L
sa(dp29
g6
L10L
sg7
L794L
sass."
EndChar

StartChar: uni0E53
Encoding: 479 3667 210
GlifName: uni0E_53
Width: 720
VWidth: 0
GlyphClass: 2
Flags: MW
LayerCount: 2
Fore
SplineSet
60 233 m 1
 60 416 l 2
 60 503 95 621 235 621 c 0
 292 621 334 591 360 548 c 1
 386 591 428 621 485 621 c 0
 625 621 660 503 660 416 c 2
 660 185 l 2
 660 96 644 36 580 -11 c 1
 470 64 l 1
 492 81 515 104 515 185 c 2
 515 416 l 2
 515 496 494 511 474 511 c 0
 444 511 430 468 430 416 c 2
 430 225 l 1
 290 225 l 1
 290 416 l 2
 290 468 276 511 246 511 c 0
 226 511 205 496 205 416 c 2
 205 220 l 2
 205 212 205 205 203 198 c 1
 209 199 214 199 220 199 c 0
 285 199 335 159 335 94 c 0
 335 29 285 -11 220 -11 c 0
 134 -11 72 51 64 135 c 0
 61 167 60 233 60 233 c 1
251 94 m 0
 251 113 240 127 220 127 c 0
 200 127 189 113 189 94 c 0
 189 75 200 61 220 61 c 0
 240 61 251 75 251 94 c 0
EndSplineSet
PickledDataWithLists: "(dp0
Vcom.fontlab.hintData
p1
(dp2
Vvhints
p3
(lp4
(dp5
Vwidth
p6
L10L
sVposition
p7
L61L
sa(dp8
g6
L10L
sg7
L149L
sa(dp9
g6
L10L
sg7
L378L
sa(dp10
g6
L10L
sg7
L500L
sa(dp11
g6
L10L
sg7
L561L
sa(dp12
g6
L10L
sg7
L649L
sasVhhints
p13
(lp14
(dp15
g6
L10L
sg7
L-21L
sa(dp16
g6
L10L
sg7
L-15L
sa(dp17
g6
L10L
sg7
L41L
sa(dp18
g6
L10L
sg7
L77L
sa(dp19
g6
L10L
sg7
L237L
sa(dp20
g6
L10L
sg7
L606L
sass."
EndChar

StartChar: uni0E54
Encoding: 480 3668 211
GlifName: uni0E_54
Width: 720
VWidth: 0
GlyphClass: 2
Flags: MW
LayerCount: 2
Fore
SplineSet
50 300 m 2
 50 315 l 2
 50 460 149 604 355 615 c 0
 391 617 449 622 467 624 c 0
 534 632 561 625 570 753 c 1
 720 738 l 1
 709 580 616 532 493 516 c 0
 465 512 407 507 365 505 c 0
 271 500 200 434 200 315 c 2
 200 300 l 2
 200 181 264 110 360 110 c 2
 399 110 l 1
 367 146 350 193 350 245 c 0
 350 333 401 420 510 420 c 0
 575 420 625 380 625 315 c 0
 625 250 575 210 510 210 c 0
 492 210 476 213 461 219 c 1
 469 152 527 110 600 110 c 2
 650 110 l 1
 650 0 l 1
 360 0 l 2
 132 0 50 167 50 300 c 2
479 315 m 0
 479 296 490 282 510 282 c 0
 530 282 541 296 541 315 c 0
 541 334 530 348 510 348 c 0
 490 348 479 334 479 315 c 0
EndSplineSet
PickledDataWithLists: "(dp0
Vcom.fontlab.hintData
p1
(dp2
Vvhints
p3
(lp4
(dp5
Vwidth
p6
L10L
sVposition
p7
L61L
sa(dp8
g6
L10L
sg7
L149L
sa(dp9
g6
L10L
sg7
L400L
sa(dp10
g6
L10L
sg7
L488L
sa(dp11
g6
L10L
sg7
L527L
sa(dp12
g6
L10L
sg7
L591L
sa(dp13
g6
L10L
sg7
L662L
sa(dp14
g6
L10L
sg7
L679L
sasVhhints
p15
(lp16
(dp17
g6
L10L
sg7
L0L
sa(dp18
g6
L10L
sg7
L63L
sa(dp19
g6
L10L
sg7
L351L
sa(dp20
g6
L10L
sg7
L796L
sass."
EndChar

StartChar: uni0E55
Encoding: 481 3669 212
GlifName: uni0E_55
Width: 720
VWidth: 0
GlyphClass: 2
Flags: MW
LayerCount: 2
Fore
SplineSet
50 300 m 2
 50 315 l 2
 50 438 121 552 267 591 c 1
 256 607 250 627 250 650 c 0
 250 715 300 755 365 755 c 0
 430 755 480 715 480 650 c 0
 480 636 478 623 473 611 c 1
 536 619 561 629 570 753 c 1
 720 738 l 1
 709 580 616 532 493 516 c 0
 481 514 465 513 448 513 c 0
 423 513 396 515 375 520 c 1
 271 502 200 434 200 315 c 2
 200 300 l 2
 200 181 264 110 360 110 c 2
 399 110 l 1
 367 146 350 193 350 245 c 0
 350 333 401 420 510 420 c 0
 575 420 625 380 625 315 c 0
 625 250 575 210 510 210 c 0
 492 210 476 213 461 219 c 1
 469 152 527 110 600 110 c 2
 650 110 l 1
 650 0 l 1
 360 0 l 2
 132 0 50 167 50 300 c 2
334 650 m 0
 334 631 345 617 365 617 c 0
 385 617 396 631 396 650 c 0
 396 669 385 683 365 683 c 0
 345 683 334 669 334 650 c 0
479 315 m 0
 479 296 490 282 510 282 c 0
 530 282 541 296 541 315 c 0
 541 334 530 348 510 348 c 0
 490 348 479 334 479 315 c 0
EndSplineSet
PickledDataWithLists: "(dp0
Vcom.fontlab.hintData
p1
(dp2
Vvhints
p3
(lp4
(dp5
Vwidth
p6
L10L
sVposition
p7
L61L
sa(dp8
g6
L10L
sg7
L149L
sa(dp9
g6
L10L
sg7
L224L
sa(dp10
g6
L10L
sg7
L301L
sa(dp11
g6
L10L
sg7
L394L
sa(dp12
g6
L10L
sg7
L400L
sa(dp13
g6
L10L
sg7
L471L
sa(dp14
g6
L10L
sg7
L488L
sa(dp15
g6
L10L
sg7
L527L
sa(dp16
g6
L10L
sg7
L594L
sa(dp17
g6
L10L
sg7
L662L
sa(dp18
g6
L10L
sg7
L677L
sasVhhints
p19
(lp20
(dp21
g6
L10L
sg7
L0L
sa(dp22
g6
L10L
sg7
L62L
sa(dp23
g6
L10L
sg7
L351L
sa(dp24
g6
L10L
sg7
L506L
sa(dp25
g6
L10L
sg7
L564L
sa(dp26
g6
L10L
sg7
L701L
sa(dp27
g6
L10L
sg7
L754L
sa(dp28
g6
L10L
sg7
L794L
sass."
EndChar

StartChar: uni0E56
Encoding: 482 3670 213
GlifName: uni0E_56
Width: 720
VWidth: 0
GlyphClass: 2
Flags: MW
LayerCount: 2
Fore
SplineSet
50 738 m 1
 200 753 l 1
 214 563 l 1
 246 595 296 621 375 621 c 0
 587 621 670 451 670 313 c 2
 670 287 l 2
 670 149 598 -21 370 -21 c 0
 177 -21 90 68 90 160 c 0
 90 225 140 265 205 265 c 0
 270 265 320 225 320 160 c 0
 320 132 310 108 294 90 c 1
 313 87 336 85 360 85 c 0
 472 85 520 159 520 287 c 2
 520 313 l 2
 520 441 462 506 370 506 c 0
 271 506 234 432 225 410 c 1
 110 420 l 1
 50 738 l 1
236 160 m 0
 236 179 225 193 205 193 c 0
 185 193 174 179 174 160 c 0
 174 141 185 127 205 127 c 0
 225 127 236 141 236 160 c 0
EndSplineSet
PickledDataWithLists: "(dp0
Vcom.fontlab.hintData
p1
(dp2
Vvhints
p3
(lp4
(dp5
Vwidth
p6
L10L
sVposition
p7
L31L
sa(dp8
g6
L10L
sg7
L123L
sa(dp9
g6
L10L
sg7
L211L
sa(dp10
g6
L10L
sg7
L298L
sa(dp11
g6
L10L
sg7
L561L
sa(dp12
g6
L10L
sg7
L649L
sasVhhints
p13
(lp14
(dp15
g6
L10L
sg7
L-16L
sa(dp16
g6
L10L
sg7
L46L
sa(dp17
g6
L10L
sg7
L316L
sa(dp18
g6
L10L
sg7
L481L
sa(dp19
g6
L10L
sg7
L544L
sa(dp20
g6
L10L
sg7
L606L
sa(dp21
g6
L10L
sg7
L795L
sass."
EndChar

StartChar: uni0E57
Encoding: 483 3671 214
GlifName: uni0E_57
Width: 905
VWidth: 0
GlyphClass: 2
Flags: MW
LayerCount: 2
Fore
SplineSet
60 233 m 1
 60 416 l 2
 60 503 95 621 235 621 c 0
 292 621 334 591 360 548 c 1
 386 591 428 621 485 621 c 0
 625 621 650 503 650 416 c 2
 650 185 l 2
 650 150 646 120 637 93 c 1
 674 112 705 144 705 195 c 2
 705 750 l 1
 840 750 l 1
 840 195 l 2
 840 77 743 -11 560 -11 c 1
 470 64 l 1
 492 81 515 104 515 185 c 2
 515 416 l 2
 515 496 494 511 474 511 c 0
 444 511 430 468 430 416 c 2
 430 225 l 1
 290 225 l 1
 290 416 l 2
 290 468 276 511 246 511 c 0
 226 511 205 496 205 416 c 2
 205 220 l 2
 205 212 205 205 203 198 c 1
 209 199 214 199 220 199 c 0
 285 199 335 159 335 94 c 0
 335 29 285 -11 220 -11 c 0
 134 -11 72 51 64 135 c 0
 61 167 60 233 60 233 c 1
251 94 m 0
 251 113 240 127 220 127 c 0
 200 127 189 113 189 94 c 0
 189 75 200 61 220 61 c 0
 240 61 251 75 251 94 c 0
EndSplineSet
PickledDataWithLists: "(dp0
Vcom.fontlab.hintData
p1
(dp2
Vvhints
p3
(lp4
(dp5
Vwidth
p6
L10L
sVposition
p7
L61L
sa(dp8
g6
L10L
sg7
L149L
sa(dp9
g6
L10L
sg7
L378L
sa(dp10
g6
L10L
sg7
L505L
sa(dp11
g6
L10L
sg7
L561L
sa(dp12
g6
L10L
sg7
L639L
sa(dp13
g6
L10L
sg7
L716L
sa(dp14
g6
L10L
sg7
L799L
sasVhhints
p15
(lp16
(dp17
g6
L10L
sg7
L-21L
sa(dp18
g6
L10L
sg7
L-15L
sa(dp19
g6
L10L
sg7
L41L
sa(dp20
g6
L10L
sg7
L77L
sa(dp21
g6
L10L
sg7
L237L
sa(dp22
g6
L10L
sg7
L606L
sa(dp23
g6
L10L
sg7
L625L
sass."
EndChar

StartChar: uni0E58
Encoding: 484 3672 215
GlifName: uni0E_58
Width: 750
VWidth: 0
GlyphClass: 2
Flags: MW
LayerCount: 2
Fore
SplineSet
50 300 m 2
 50 315 l 2
 50 460 149 604 355 615 c 0
 391 617 449 622 467 624 c 0
 534 632 561 625 570 753 c 1
 720 738 l 1
 709 580 616 532 493 516 c 0
 465 512 407 507 365 505 c 0
 271 500 200 434 200 315 c 2
 200 300 l 2
 200 237 213 192 225 151 c 1
 300 270 l 1
 410 270 l 1
 410 141 436 94 495 94 c 0
 548 94 574 132 579 212 c 1
 571 211 563 210 555 210 c 0
 490 210 440 250 440 315 c 0
 440 380 490 420 555 420 c 0
 663 420 695 328 695 240 c 0
 695 130 658 -11 495 -11 c 0
 391 -11 341 53 319 126 c 1
 240 0 l 1
 115 0 l 1
 115 29 l 2
 115 102 50 180 50 300 c 2
524 315 m 0
 524 296 535 282 555 282 c 0
 575 282 586 296 586 315 c 0
 586 334 575 348 555 348 c 0
 535 348 524 334 524 315 c 0
EndSplineSet
PickledDataWithLists: "(dp0
Vcom.fontlab.hintData
p1
(dp2
Vvhints
p3
(lp4
(dp5
Vwidth
p6
L10L
sVposition
p7
L61L
sa(dp8
g6
L10L
sg7
L149L
sa(dp9
g6
L10L
sg7
L369L
sa(dp10
g6
L10L
sg7
L435L
sa(dp11
g6
L10L
sg7
L556L
sa(dp12
g6
L10L
sg7
L581L
sa(dp13
g6
L10L
sg7
L591L
sa(dp14
g6
L10L
sg7
L669L
sa(dp15
g6
L10L
sg7
L679L
sasVhhints
p16
(lp17
(dp18
g6
L10L
sg7
L4L
sa(dp19
g6
L10L
sg7
L66L
sa(dp20
g6
L10L
sg7
L246L
sa(dp21
g6
L10L
sg7
L315L
sa(dp22
g6
L10L
sg7
L796L
sass."
EndChar

StartChar: uni0E59
Encoding: 485 3673 216
GlifName: uni0E_59
Width: 720
VWidth: 0
GlyphClass: 2
Flags: MW
LayerCount: 2
Fore
SplineSet
155 450 m 0
 155 540 230 602 339 614 c 0
 389 619 443 622 457 624 c 0
 524 632 551 625 560 753 c 1
 710 738 l 1
 699 580 606 535 483 519 c 0
 451 515 388 514 346 509 c 0
 313 505 290 487 290 445 c 0
 290 429 294 418 298 412 c 1
 316 414 335 415 355 415 c 2
 555 415 l 1
 555 305 l 1
 355 305 l 2
 226 305 190 255 190 195 c 0
 190 138 225 84 355 84 c 0
 404 84 438 86 462 94 c 1
 448 111 440 134 440 160 c 0
 440 225 490 265 555 265 c 0
 620 265 670 225 670 160 c 0
 670 69 575 -21 355 -21 c 0
 133 -21 40 82 40 195 c 0
 40 272 82 346 179 385 c 1
 164 402 155 424 155 450 c 0
524 160 m 0
 524 141 535 127 555 127 c 0
 575 127 586 141 586 160 c 0
 586 179 575 193 555 193 c 0
 535 193 524 179 524 160 c 0
EndSplineSet
PickledDataWithLists: "(dp0
Vcom.fontlab.hintData
p1
(dp2
Vvhints
p3
(lp4
(dp5
Vwidth
p6
L10L
sVposition
p7
L61L
sa(dp8
g6
L10L
sg7
L149L
sa(dp9
g6
L10L
sg7
L205L
sa(dp10
g6
L10L
sg7
L293L
sa(dp11
g6
L10L
sg7
L531L
sa(dp12
g6
L10L
sg7
L619L
sa(dp13
g6
L10L
sg7
L679L
sasVhhints
p14
(lp15
(dp16
g6
L10L
sg7
L-26L
sa(dp17
g6
L10L
sg7
L36L
sa(dp18
g6
L10L
sg7
L155L
sa(dp19
g6
L10L
sg7
L314L
sa(dp20
g6
L10L
sg7
L370L
sa(dp21
g6
L10L
sg7
L796L
sass."
EndChar

StartChar: uni0E5A
Encoding: 486 3674 217
GlifName: uni0E_5A_
Width: 675
VWidth: 0
GlyphClass: 2
Flags: MW
LayerCount: 2
Fore
SplineSet
605 0 m 1
 475 0 l 1
 475 600 l 1
 605 600 l 1
 605 0 l 1
130 87 m 1
 258 101 285 122 285 165 c 2
 285 330 l 2
 285 377 305 397 315 433 c 1
 276 407 225 390 160 390 c 0
 82 390 25 436 25 506 c 0
 25 571 75 611 140 611 c 0
 205 611 255 571 255 506 c 0
 255 495 254 484 251 475 c 1
 300 499 327 544 345 594 c 1
 390 600 l 1
 413 583 415 538 415 470 c 2
 415 165 l 2
 415 38 287 -7 151 -21 c 1
 130 87 l 1
109 506 m 0
 109 487 120 473 140 473 c 0
 160 473 171 487 171 506 c 0
 171 525 160 539 140 539 c 0
 120 539 109 525 109 506 c 0
EndSplineSet
PickledDataWithLists: "(dp0
Vcom.fontlab.hintData
p1
(dp2
Vvhints
p3
(lp4
(dp5
Vwidth
p6
L10L
sVposition
p7
L34L
sa(dp8
g6
L10L
sg7
L116L
sa(dp9
g6
L10L
sg7
L136L
sa(dp10
g6
L10L
sg7
L334L
sa(dp11
g6
L10L
sg7
L334L
sa(dp12
g6
L10L
sg7
L411L
sa(dp13
g6
L10L
sg7
L416L
sa(dp14
g6
L10L
sg7
L504L
sa(dp15
g6
L10L
sg7
L509L
sa(dp16
g6
L10L
sg7
L586L
sa(dp17
g6
L10L
sg7
L592L
sasVhhints
p18
(lp19
(dp20
g6
L10L
sg7
L-14L
sa(dp21
g6
L10L
sg7
L7L
sa(dp22
g6
L10L
sg7
L396L
sa(dp23
g6
L10L
sg7
L454L
sa(dp24
g6
L10L
sg7
L588L
sa(dp25
g6
L10L
sg7
L594L
sass."
EndChar

StartChar: uni0E5B
Encoding: 487 3675 218
GlifName: uni0E_5B_
Width: 900
VWidth: 0
GlyphClass: 2
Flags: MW
LayerCount: 2
Fore
SplineSet
215 300 m 0
 215 365 265 405 330 405 c 0
 395 405 445 365 445 300 c 0
 445 235 395 195 330 195 c 0
 265 195 215 235 215 300 c 0
299 300 m 0
 299 281 310 267 330 267 c 0
 350 267 361 281 361 300 c 0
 361 319 350 333 330 333 c 0
 310 333 299 319 299 300 c 0
55 300 m 0
 55 442 158 560 330 560 c 1
 330 480 l 1
 228 480 155 414 155 300 c 0
 155 186 228 120 330 120 c 0
 432 120 505 186 505 300 c 0
 505 357 484 408 459 433 c 1
 530 483 l 1
 552 459 569 431 581 400 c 2
 654 250 l 1
 689 430 l 1
 744 436 l 1
 805 325 l 1
 885 325 l 1
 885 275 l 1
 775 275 l 1
 735 340 l 1
 697 146 l 1
 633 140 l 1
 588 233 l 1
 563 123 474 40 330 40 c 0
 158 40 55 158 55 300 c 0
EndSplineSet
PickledDataWithLists: "(dp0
Vcom.fontlab.hintData
p1
(dp2
Vvhints
p3
(lp4
(dp5
Vwidth
p6
L10L
sVposition
p7
L80L
sa(dp8
g6
L10L
sg7
L150L
sa(dp9
g6
L10L
sg7
L306L
sa(dp10
g6
L10L
sg7
L430L
sa(dp11
g6
L10L
sg7
L500L
sa(dp12
g6
L16L
sg7
L633L
sa(dp13
g6
L10L
sg7
L639L
sa(dp14
g6
L10L
sg7
L1147L
sasVhhints
p15
(lp16
(dp17
g6
L10L
sg7
L1L
sa(dp18
g6
L10L
sg7
L49L
sa(dp19
g6
L10L
sg7
L124L
sa(dp20
g6
L10L
sg7
L191L
sa(dp21
g6
L10L
sg7
L239L
sa(dp22
g6
L10L
sg7
L261L
sa(dp23
g6
L10L
sg7
L302L
sa(dp24
g6
L10L
sg7
L427L
sa(dp25
g6
L10L
sg7
L513L
sa(dp26
g6
L10L
sg7
L531L
sa(dp27
g6
L10L
sg7
L579L
sass."
EndChar

StartChar: uni0E48.sd
Encoding: 817 63627 222
GlifName: uni0E_48.sd
Width: 0
VWidth: 0
GlyphClass: 4
Flags: MW
AnchorPoint: "ThaiExtendedAbove.mkmk" 0 0 basemark 0
AnchorPoint: "ThaiTone.mark" 0 0 mark 0
LayerCount: 2
Fore
SplineSet
-200 710 m 1
 -200 900 l 1
 -80 900 l 1
 -80 690 l 1
 -200 710 l 1
EndSplineSet
PickledDataWithLists: "(dp0
Vcom.fontlab.hintData
p1
(dp2
Vvhints
p3
(lp4
(dp5
Vwidth
p6
L10L
sVposition
p7
L-127L
sasVhhints
p8
(lp9
(dp10
g6
L10L
sg7
L715L
sa(dp11
g6
L10L
sg7
L927L
sass."
Substitution2: "Thai.su subtable" uni0E48
EndChar

StartChar: uni0E49.sd
Encoding: 820 63630 223
GlifName: uni0E_49.sd
Width: 0
VWidth: 0
GlyphClass: 4
Flags: MW
AnchorPoint: "ThaiExtendedAbove.mkmk" 0 0 basemark 0
AnchorPoint: "ThaiTone.mark" 0 0 mark 0
LayerCount: 2
Fore
SplineSet
-333 840 m 0
 -333 829 -327 821 -315 821 c 0
 -303 821 -297 829 -297 840 c 0
 -297 851 -303 859 -315 859 c 0
 -327 859 -333 851 -333 840 c 0
-300 720 m 1
 -299 727 -298 736 -298 750 c 0
 -298 762 -299 772 -301 781 c 1
 -305 780 -310 780 -315 780 c 0
 -352 780 -380 803 -380 840 c 0
 -380 877 -352 900 -315 900 c 0
 -251 900 -235 851 -228 808 c 0
 -226 798 -225 784 -224 773 c 1
 -184 781 -145 810 -145 905 c 1
 -30 890 l 1
 -30 761 -147 700 -260 700 c 2
 -285 700 l 1
 -300 720 l 1
EndSplineSet
PickledDataWithLists: "(dp0
Vcom.fontlab.hintData
p1
(dp2
Vvhints
p3
(lp4
(dp5
Vwidth
p6
L10L
sVposition
p7
L-309L
sa(dp8
g6
L10L
sg7
L-263L
sa(dp9
g6
L10L
sg7
L-247L
sa(dp10
g6
L10L
sg7
L-188L
sa(dp11
g6
L10L
sg7
L7L
sasVhhints
p12
(lp13
(dp14
g6
L10L
sg7
L720L
sa(dp15
g6
L10L
sg7
L927L
sass."
Substitution2: "Thai.su subtable" uni0E49
EndChar

StartChar: uni0E4A.sd
Encoding: 823 63633 224
GlifName: uni0E_4A_.sd
Width: 0
VWidth: 0
GlyphClass: 4
Flags: MW
AnchorPoint: "ThaiExtendedAbove.mkmk" 0 0 basemark 0
AnchorPoint: "ThaiTone.mark" 0 0 mark 0
LayerCount: 2
Fore
SplineSet
-305 755 m 0
 -305 744 -299 736 -287 736 c 0
 -275 736 -269 744 -269 755 c 0
 -269 766 -275 774 -287 774 c 0
 -299 774 -305 766 -305 755 c 0
-185 845 m 1
 -234 815 l 1
 -238 815 l 1
 -242 815 l 1
 -294 847 l 1
 -306 840 -316 830 -319 808 c 1
 -310 812 -299 815 -287 815 c 0
 -250 815 -222 792 -222 755 c 0
 -222 718 -250 695 -287 695 c 0
 -366 695 -390 747 -390 793 c 0
 -390 886 -315 905 -293 905 c 1
 -238 870 l 1
 -183 905 l 1
 -161 905 -105 880 -105 793 c 0
 -105 790 -106 787 -106 784 c 1
 -92 815 -87 857 -85 900 c 1
 0 886 l 1
 -16 792 -62 711 -175 700 c 1
 -195 735 l 1
 -176 748 -170 765 -170 793 c 0
 -170 819 -175 834 -185 845 c 1
EndSplineSet
PickledDataWithLists: "(dp0
Vcom.fontlab.hintData
p1
(dp2
Vvhints
p3
(lp4
(dp5
Vwidth
p6
L10L
sVposition
p7
L-365L
sa(dp8
g6
L10L
sg7
L-305L
sa(dp9
g6
L10L
sg7
L-243L
sa(dp10
g6
L10L
sg7
L-152L
sa(dp11
g6
L10L
sg7
L-130L
sa(dp12
g6
L10L
sg7
L-79L
sa(dp13
g6
L10L
sg7
L24L
sasVhhints
p14
(lp15
(dp16
g6
L10L
sg7
L710L
sa(dp17
g6
L10L
sg7
L827L
sa(dp18
g6
L21L
sg7
L869L
sa(dp19
g6
L10L
sg7
L915L
sa(dp20
g6
L10L
sg7
L925L
sass."
Substitution2: "Thai.su subtable" uni0E4A
EndChar

StartChar: uni0E4B.sd
Encoding: 826 63636 225
GlifName: uni0E_4B_.sd
Width: 0
VWidth: 0
GlyphClass: 4
Flags: MW
AnchorPoint: "ThaiExtendedAbove.mkmk" 0 0 basemark 0
AnchorPoint: "ThaiTone.mark" 0 0 mark 0
LayerCount: 2
Fore
SplineSet
-280 760 m 1
 -280 830 l 1
 -195 830 l 1
 -195 900 l 1
 -85 900 l 1
 -85 830 l 1
 0 830 l 1
 0 760 l 1
 -85 760 l 1
 -85 685 l 1
 -195 705 l 1
 -195 760 l 1
 -280 760 l 1
EndSplineSet
PickledDataWithLists: "(dp0
Vcom.fontlab.hintData
p1
(dp2
Vvhints
p3
(lp4
(dp5
Vwidth
p6
L10L
sVposition
p7
L-193L
sa(dp8
g6
L10L
sg7
L-131L
sa(dp9
g6
L10L
sg7
L-23L
sasVhhints
p10
(lp11
(dp12
g6
L10L
sg7
L715L
sa(dp13
g6
L10L
sg7
L803L
sa(dp14
g6
L10L
sg7
L808L
sa(dp15
g6
L10L
sg7
L847L
sa(dp16
g6
L10L
sg7
L852L
sa(dp17
g6
L10L
sg7
L937L
sass."
Substitution2: "Thai.su subtable" uni0E4B
EndChar

